<svg width="300" height="48" viewBox="0 0 300 48" fill="none" xmlns="http://www.w3.org/2000/svg">
<path d="M94.32 27.192H90.192C89.776 27.192 89.424 27.512 89.424 27.96V30.904C89.424 31.8 89.52 32.728 89.52 33.624C89.52 34.616 89.424 35.608 88.656 36.312C87.6 37.272 85.488 37.272 84.144 37.272C83.376 37.272 82.768 37.176 82.416 36.44C82.032 35.704 81.84 34.584 81.84 33.752C81.84 33.272 81.904 32.824 82.48 32.824C82.8 32.824 83.632 32.888 84.304 32.888C85.04 32.888 85.104 32.536 85.104 31.576V28.088C85.104 27.608 84.688 27.192 84.208 27.192H79.632C78.448 27.192 78.416 26.584 78.416 26.072C78.416 25.56 78.48 25.144 78.48 24.056V18.2C78.48 17.432 78.448 16.632 78.448 15.864C78.448 14.968 78.96 14.744 79.728 14.744C80.624 14.744 81.52 14.808 82.384 14.808C83.728 14.808 83.952 14.008 83.952 13.848C83.952 13.528 83.568 13.464 83.312 13.464H77.616C77.104 13.464 76.72 13.88 76.72 14.36V19.352C76.72 24.216 76.528 29.624 74.672 34.168C74.416 34.776 73.488 36.952 72.784 36.952C72.24 36.952 69.328 35.544 69.328 34.712C69.328 34.552 69.488 34.232 69.712 33.816C70.992 31.512 71.984 27.704 72.048 24.6C72.112 22.264 72.208 19.928 72.208 17.592V13.912C72.208 12.888 72.112 11.864 72.112 10.84C72.112 9.592 72.72 9.24 73.84 9.24C74.896 9.24 75.92 9.304 76.944 9.304H93.584C94.8 9.304 96.016 9.24 97.232 9.24C98 9.24 98.064 9.528 98.064 10.488V12.152C98.064 13.24 98 13.56 97.232 13.56C96.016 13.56 94.8 13.464 93.584 13.464H90.288C88.752 13.464 88.688 14.424 88.688 14.456C88.688 14.808 89.008 14.808 89.264 14.808H91.536C92.496 14.808 93.488 14.744 94.448 14.744C95.216 14.744 95.76 14.968 95.76 15.832C95.76 16.632 95.696 17.432 95.696 18.2V24.056C95.696 25.176 95.792 25.688 95.792 26.04C95.792 27.096 95.28 27.192 94.32 27.192ZM83.344 19.48H90.832C91.12 19.48 91.344 19.256 91.344 18.968V18.84C91.344 18.552 91.12 18.328 90.832 18.328H83.344C83.088 18.328 82.832 18.552 82.832 18.84V18.968C82.832 19.256 83.056 19.448 83.344 19.48ZM90.832 22.648H83.344C83.088 22.648 82.832 22.904 82.832 23.16V23.352C82.832 23.64 83.088 23.864 83.344 23.864H90.832C91.12 23.864 91.344 23.64 91.344 23.352V23.16C91.344 22.904 91.152 22.68 90.832 22.648ZM90.8 30.168C90.8 29.528 93.552 28.216 93.936 28.216C94.224 28.216 94.416 28.504 94.576 28.696C95.344 29.656 96.144 30.776 96.816 31.768C97.104 32.184 98.544 34.264 98.544 34.584C98.544 35.256 95.888 36.76 95.312 36.76C95.088 36.76 94.992 36.568 94.864 36.376C94.544 35.832 94.16 35.288 93.84 34.744C92.912 33.24 92.176 32.088 91.024 30.616C90.928 30.488 90.8 30.296 90.8 30.168ZM81.04 28.568C83.792 29.944 83.984 30.072 83.984 30.392C83.984 30.616 83.728 30.648 83.376 30.648C82.96 30.648 82.608 31.096 82.32 31.64C81.776 32.696 80.336 34.744 79.376 35.896C78.96 36.408 78.704 36.76 78.384 36.76C77.616 36.76 75.248 35.384 75.248 34.488C75.248 34.296 75.408 34.104 75.536 33.976C77.008 32.536 78.64 30.264 79.536 28.408C79.6 28.248 79.696 28.056 79.856 28.056C79.984 28.056 80.56 28.344 81.04 28.568ZM117.392 29.752V21.592C117.392 21.272 117.36 20.952 117.104 20.952C116.88 20.952 116.624 21.336 116.496 21.496C115.952 22.2 114.96 23.352 114.352 23.992C114.128 24.216 113.872 24.504 113.552 24.504C113.104 24.504 112.368 23.832 112.048 23.512C111.888 23.352 111.6 23.096 111.344 23.096C110.96 23.096 110.96 23.384 110.96 23.896V31.896C110.96 33.304 111.024 34.744 111.024 36.184C111.024 36.984 110.768 37.176 108.656 37.176H108.432C106.608 37.176 106.288 36.952 106.288 36.152C106.288 34.712 106.352 33.304 106.352 31.896V24.6C106.352 24.184 106.352 23.96 106.128 23.96C105.936 23.96 105.84 24.088 105.712 24.216C105.456 24.472 105.072 24.856 104.72 24.856C104.112 24.856 103.568 24.024 103.248 23.576C102.896 23.096 102.064 22.04 102.064 21.432C102.064 20.952 102.544 20.44 102.96 19.96C105.456 16.984 107.568 13.08 108.72 9.336C108.912 8.696 109.04 8.312 109.552 8.312C109.904 8.312 112.72 9.272 113.264 9.464C113.584 9.56 114.288 9.816 114.288 10.232C114.288 10.424 114.032 10.648 113.712 10.68C113.424 10.712 113.328 10.744 113.168 11.192C112.656 12.76 111.568 15.192 110.736 16.6C110.672 16.696 110.64 16.76 110.64 16.856C110.64 17.112 110.864 17.336 111.152 17.368C111.44 17.4 111.792 17.528 111.792 17.88C111.792 18.104 111.632 18.264 111.344 18.456C110.96 18.744 110.96 19.384 110.96 19.992C110.96 20.184 111.056 20.44 111.248 20.44C111.536 20.44 112.752 18.968 112.976 18.68C115.152 16.024 117.2 12.056 118.096 8.76C118.224 8.344 118.352 8.216 118.576 8.216C119.024 8.216 122.224 9.432 122.928 9.688C123.28 9.816 123.504 9.912 123.504 10.2C123.504 10.392 123.248 10.456 123.12 10.488C122.448 10.68 122.352 10.872 122.096 11.576C122 11.864 121.904 12.12 121.712 12.536C121.648 12.696 121.616 12.792 121.616 12.952C121.616 13.496 122 13.496 122.544 13.496H126.864C128.112 13.496 129.36 13.4 130.608 13.4C131.376 13.4 131.472 13.72 131.472 14.648V16.76C131.472 17.592 131.408 17.912 130.672 17.912C129.392 17.912 128.112 17.848 126.864 17.848H123.056C122.576 17.848 122.16 18.232 122.16 18.744V19.8C122.16 20.312 122.576 20.696 123.056 20.696H126.544C127.664 20.696 128.752 20.632 129.872 20.632C130.48 20.632 130.544 20.952 130.544 21.944V23.672C130.544 24.664 130.48 25.016 129.872 25.016C128.816 25.016 127.696 24.92 126.544 24.92H123.056C122.576 24.92 122.16 25.336 122.16 25.816V26.68C122.16 27.16 122.576 27.576 123.056 27.576H126.448C127.568 27.576 128.72 27.512 129.872 27.512C130.48 27.512 130.544 27.8 130.544 28.792V30.584C130.544 31.576 130.48 31.896 129.872 31.896C128.72 31.896 127.568 31.8 126.448 31.8H123.12C122.544 31.8 122.192 32.216 122.192 32.664C122.192 33.784 122.256 34.872 122.256 35.992C122.256 37.208 121.84 37.304 120.528 37.304H119.024C117.648 37.304 117.296 37.208 117.296 35.928C117.296 33.88 117.392 31.8 117.392 29.752ZM147.056 31.608V31.736C147.056 32.024 147.28 32.248 147.568 32.248H155.248C155.536 32.248 155.76 32.024 155.76 31.736V31.608C155.76 31.32 155.536 31.096 155.248 31.096H147.568C147.28 31.096 147.088 31.288 147.056 31.608ZM147.056 27.16V27.256C147.088 27.576 147.28 27.768 147.568 27.768H155.248C155.536 27.768 155.76 27.544 155.76 27.256V27.16C155.76 26.872 155.536 26.648 155.248 26.648H147.568C147.28 26.648 147.056 26.872 147.056 27.16ZM150.96 16.12V16.472C150.96 16.888 151.28 17.24 151.728 17.24H152.272C153.168 17.24 153.488 16.888 154.064 16.312C154.224 16.12 154.352 15.96 154.352 15.736C154.352 15.32 153.648 15.288 151.76 15.288C151.344 15.288 150.96 15.544 150.96 16.12ZM154.928 35.768H147.824C147.376 35.768 147.152 35.992 147.12 36.44C147.088 37.112 146.768 37.208 145.584 37.208H143.248C142.672 37.208 142.288 37.144 142.288 36.248C142.288 35.288 142.352 34.296 142.352 33.336V30.232C142.352 29.784 142.288 29.272 141.84 29.272C141.648 29.272 141.52 29.336 141.328 29.432C141.232 29.464 141.104 29.528 140.944 29.592C140.016 30.008 138.16 30.808 137.712 30.808C136.816 30.808 135.6 27.608 135.6 27.224C135.6 26.84 136.08 26.68 136.656 26.52L136.976 26.424C140.304 25.432 143.6 23.992 146.608 22.232C146.768 22.136 147.184 21.912 147.184 21.656C147.184 21.368 146.8 21.368 146.32 21.368H140.336C139.088 21.368 137.84 21.432 136.56 21.432C135.792 21.432 135.728 21.144 135.728 20.216V18.424C135.728 17.464 135.792 17.176 136.592 17.176C137.84 17.176 139.088 17.24 140.336 17.24H145.168C145.584 17.24 145.936 16.888 145.936 16.472V16.056C145.936 15.64 145.584 15.288 145.168 15.288H143.952C142.672 15.288 141.392 15.352 140.112 15.352C139.312 15.352 139.248 15.032 139.248 14.072V12.344C139.248 11.416 139.312 11.064 140.112 11.064C141.392 11.064 142.672 11.16 143.952 11.16H144.848C145.648 11.16 145.936 10.648 145.936 10.232C145.936 9.848 145.84 9.176 145.84 8.76C145.84 8.312 146.096 8.184 146.48 8.184C147.184 8.184 150.16 8.44 150.992 8.536C151.28 8.568 151.728 8.632 151.728 9.016C151.728 9.24 151.568 9.336 151.312 9.528C151.12 9.688 150.992 9.944 150.992 10.2C150.992 10.68 151.376 11.128 151.888 11.128C152.816 11.128 153.712 11.064 154.64 11.064C155.376 11.064 155.472 11.384 155.472 12.056V13.56C155.472 13.752 155.472 14.04 155.728 14.04C156.208 14.04 158.192 10.68 158.512 10.104C158.608 9.912 158.736 9.72 158.992 9.72C159.376 9.72 161.584 11.064 162.064 11.352C162.192 11.416 162.288 11.48 162.384 11.544C162.96 11.896 163.312 12.12 163.312 12.44C163.312 12.728 163.024 12.824 162.8 12.856C162.128 12.952 162.128 13.016 161.744 13.528C161.104 14.456 160.4 15.352 159.696 16.184C159.536 16.376 159.312 16.632 159.312 16.856C159.312 17.24 159.76 17.24 160.048 17.24C161.168 17.24 162.32 17.176 163.472 17.176C164.24 17.176 164.304 17.496 164.304 18.424V20.216C164.304 21.144 164.24 21.432 163.472 21.432C162.192 21.432 160.944 21.368 159.696 21.368H155.92C154.704 21.368 154.224 21.72 153.552 22.264C153.392 22.392 153.232 22.52 153.04 22.648C152.944 22.744 152.816 22.84 152.816 22.968C152.816 23.224 153.04 23.288 153.424 23.288H156.272C157.456 23.288 158.736 23.192 159.28 23.192C160.304 23.192 160.528 23.864 160.528 24.76C160.528 25.816 160.464 26.84 160.464 27.896V33.336C160.464 34.296 160.528 35.288 160.528 36.28C160.528 37.08 160.304 37.24 159.12 37.24H156.976C156.176 37.24 155.76 37.208 155.696 36.376C155.664 36.088 155.44 35.768 154.928 35.768ZM179.568 14.904C178.512 16.888 177.296 18.808 176.016 20.632C175.856 20.856 175.408 21.432 175.408 21.688C175.408 21.848 175.632 21.912 175.76 21.912C176.144 21.912 177.136 21.88 177.136 21.4C177.136 21.144 177.008 20.792 176.944 20.568C176.912 20.408 176.784 20.024 176.784 19.832C176.784 19.16 178.704 18.808 179.248 18.808C179.824 18.808 179.92 19.064 180.752 22.136C180.912 22.744 181.456 24.984 181.456 25.496C181.456 26.232 179.12 26.808 178.704 26.808C178.288 26.808 178.224 26.584 178.128 26.104C178.096 25.944 178.064 25.688 177.744 25.688C177.424 25.688 177.264 26.008 177.264 26.328V31.512C177.264 33.176 177.328 34.84 177.328 36.504C177.328 37.336 177.008 37.4 176.016 37.4H174.288C173.296 37.4 173.04 37.336 173.04 36.472C173.04 34.808 173.104 33.176 173.104 31.512V29.24C173.104 29.048 173.04 28.856 172.848 28.856C172.496 28.856 172.496 29.336 172.464 29.784C172.4 31.32 172.176 33.528 171.92 35.256C171.792 36.056 171.728 36.312 171.28 36.312C170.736 36.312 168.528 35.832 168.528 35.192C168.528 34.968 168.912 33.048 168.976 32.696C169.2 31.096 169.328 29.496 169.456 27.896C169.456 27.672 169.456 27.352 169.872 27.352C170.064 27.352 170.48 27.448 170.704 27.48C170.992 27.544 172.496 27.864 172.72 27.864C173.008 27.864 173.104 27.704 173.104 27.416V26.968C173.104 26.52 172.944 26.392 172.528 26.392C172.4 26.392 171.12 26.488 170.864 26.52C170.544 26.552 170.544 26.616 170.416 26.872C170.32 27.032 170.192 27.096 170.032 27.096C169.68 27.096 169.584 26.904 169.136 24.92C169.008 24.408 168.816 23.448 168.816 22.936C168.816 22.36 169.008 22.36 169.84 22.36C170.992 22.296 171.056 22.072 171.6 21.144C171.728 20.92 171.856 20.728 171.856 20.472C171.856 20.024 171.408 19.608 171.088 19.288C170.512 18.68 169.232 17.4 168.592 16.92C168.464 16.824 168.304 16.696 168.304 16.504C168.304 15.928 169.648 13.048 170.256 13.048C170.448 13.048 170.608 13.24 170.736 13.24C170.96 13.24 171.024 13.08 171.248 12.504C171.472 11.896 172.08 10.328 172.496 9.112C172.656 8.632 172.688 8.344 172.976 8.344C173.36 8.344 176.048 9.432 176.496 9.656C176.752 9.784 176.848 9.912 176.848 10.072C176.848 10.328 176.688 10.456 176.432 10.488C176.112 10.52 175.952 10.52 175.824 10.84C175.248 12.088 174.672 13.304 174.096 14.52C173.936 14.84 173.488 15.608 173.488 15.864C173.488 16.12 173.712 16.44 174 16.44C174.192 16.44 174.32 16.28 174.608 15.736C174.896 15.192 175.536 13.816 175.952 12.792C176.08 12.504 176.208 12.152 176.528 12.152C176.976 12.152 179.088 13.208 179.632 13.464C180.144 13.688 180.624 13.848 180.624 14.168C180.624 14.488 180.368 14.584 180.208 14.584C179.888 14.584 179.696 14.648 179.568 14.904ZM181.872 34.2V26.424C181.872 25.528 181.808 24.856 181.808 24.44C181.808 23.352 183.28 23.352 184.048 23.352C185.04 23.352 186 23.416 186.992 23.416H191.152C192.144 23.416 193.104 23.352 194.096 23.352C194.896 23.352 196.336 23.352 196.336 24.44C196.336 24.888 196.24 25.496 196.24 26.424V34.2C196.24 35.32 196.336 36.376 196.336 36.792C196.336 37.304 196.016 37.368 194.928 37.368H192.752C192.048 37.368 191.728 37.304 191.728 36.792C191.728 36.632 191.76 36.504 191.76 36.344C191.76 35.864 191.376 35.416 190.864 35.416H187.28C186.768 35.416 186.352 35.832 186.352 36.344V36.792C186.352 37.304 186.032 37.368 185.36 37.368H183.152C182.128 37.368 181.808 37.304 181.808 36.824C181.808 36.44 181.872 35.128 181.872 34.2ZM186.288 28.184V30.68C186.288 31.192 186.672 31.576 187.184 31.576H190.928C191.408 31.576 191.824 31.16 191.824 30.68V28.184C191.824 27.672 191.408 27.288 190.928 27.288H187.184C186.672 27.288 186.288 27.672 186.288 28.184ZM179.728 27.128C180.368 27.128 180.432 27.288 180.848 29.048C181.04 29.88 181.552 32.28 181.552 33.016C181.552 33.816 179.696 34.296 179.056 34.296C178.48 34.296 178.48 33.88 178.384 33.144C178.192 31.384 177.904 30.264 177.552 28.568C177.52 28.44 177.488 28.28 177.488 28.12C177.488 27.384 179.152 27.128 179.728 27.128ZM184.88 9.144H191.664C192.432 9.144 193.456 9.08 194.128 9.08C196.048 9.08 196.72 9.4 196.72 11.416C196.72 13.4 196.336 18.328 195.504 19.992C194.544 21.848 192.496 21.944 190.64 21.944C189.104 21.944 188.4 21.912 188.4 19.032C188.4 18.488 188.4 17.56 189.008 17.56C189.264 17.56 189.648 17.656 190.032 17.656C190.768 17.656 191.312 17.56 191.568 16.792C191.792 16.056 191.92 14.584 191.92 13.816C191.92 13.24 191.792 13.176 191.28 13.176H189.936C188.88 13.176 188.816 13.848 188.688 14.552C187.92 19.064 183.92 22.584 183.152 22.584C182.352 22.584 180.368 20.344 180.368 19.672C180.368 19.48 180.528 19.352 180.688 19.256C181.968 18.296 183.44 16.76 184.016 15.224C184.144 14.808 184.4 13.976 184.4 13.592C184.4 13.208 184.08 13.176 183.6 13.176C183.056 13.176 182.512 13.24 181.968 13.24C181.2 13.24 181.136 12.92 181.136 11.864V10.36C181.136 9.368 181.2 9.08 182 9.08C182.864 9.08 183.824 9.144 184.88 9.144ZM223.408 21.944V32.888C223.408 34.104 223.504 35.32 223.504 36.536C223.504 37.272 223.152 37.368 222.16 37.368H219.952C219.024 37.368 218.64 37.272 218.64 36.536C218.64 35.384 218.736 34.136 218.736 32.888V21.88C218.736 21.176 218.704 20.44 218.64 19.8C218.64 19.704 218.608 19.576 218.608 19.48C218.608 19.096 218.96 19.064 219.28 19.064C219.824 19.064 220.592 19.096 220.944 19.096C221.104 19.096 221.328 19.032 221.328 18.84C221.328 18.616 221.136 18.456 220.976 18.328C219.664 17.24 217.648 15.096 216.56 13.752C216.4 13.56 216.176 13.304 215.888 13.304C215.568 13.304 215.344 13.592 215.056 13.944C213.84 15.416 212.528 16.824 211.152 18.136C211.024 18.264 210.864 18.456 210.864 18.616C210.864 19 211.312 19.032 212.464 19.096C212.784 19.128 213.168 19.16 213.296 19.16C214.256 19.192 214.736 19.256 214.736 19.704C214.736 19.864 214.64 19.96 214.384 20.088C213.968 20.28 213.936 20.44 213.936 21.112V23.288C213.936 26.52 213.488 29.72 211.728 32.504C210.768 34.04 209.36 35.64 207.824 36.632C207.6 36.76 207.408 36.888 207.216 37.016C206.96 37.176 206.832 37.272 206.544 37.272C205.136 37.272 203.344 34.68 203.344 34.04C203.344 33.688 203.76 33.464 204.048 33.304C206.192 32.12 208.144 29.752 208.72 27.352C209.072 25.944 209.168 24.696 209.168 23.256V21.336C209.168 20.792 209.136 20.472 208.784 20.472C208.56 20.472 208.24 20.728 208.08 20.888C207.472 21.4 205.104 23.352 204.464 23.352C203.248 23.352 201.52 20.44 201.52 19.992C201.52 19.736 201.744 19.576 201.968 19.448C205.424 17.496 211.696 11.96 213.456 8.44C213.616 8.152 213.712 8.024 214.032 8.024C214.576 8.024 216.848 8.472 217.584 8.568C218.928 8.76 219.44 8.856 219.44 9.368C219.44 9.592 219.376 9.656 219.248 9.752C219.152 9.816 219.056 9.944 219.056 10.072C219.056 10.2 219.632 10.936 220.368 11.736C220.464 11.8 220.528 11.896 220.56 11.928C223.152 14.616 226.32 17.08 229.616 18.808C230.256 19.128 230.672 19.32 230.672 19.704C230.672 20.472 228.688 23.096 227.696 23.096C227.024 23.096 224.848 21.4 224.24 20.92C224.112 20.824 223.984 20.76 223.824 20.76C223.44 20.76 223.408 21.208 223.408 21.944Z" fill="#36CDD5"/>
<mask id="mask0_410_3" style="mask-type:alpha" maskUnits="userSpaceOnUse" x="9" y="1" width="37" height="47">
<rect x="9" y="1" width="37" height="47" fill="#D9D9D9"/>
</mask>
<g mask="url(#mask0_410_3)">
<circle cx="45.9226" cy="24.5383" r="21.0769" fill="#3FE2EB" stroke="#ADFAFF" stroke-width="4"/>
</g>
<rect y="22" width="10" height="3" rx="1.5" fill="#3FE2EB"/>
<rect x="1" y="36.3999" width="10" height="3" rx="1.5" transform="rotate(-15 1 36.3999)" fill="#3FE2EB"/>
<rect x="2.25781" y="7.46094" width="10" height="3" rx="1.5" transform="rotate(15 2.25781 7.46094)" fill="#3FE2EB"/>
<mask id="mask1_410_3" style="mask-type:alpha" maskUnits="userSpaceOnUse" x="254" y="0" width="37" height="47">
<rect x="291" y="47" width="37" height="47" transform="rotate(-180 291 47)" fill="#D9D9D9"/>
</mask>
<g mask="url(#mask1_410_3)">
<circle cx="254.077" cy="23.4617" r="21.0769" transform="rotate(-180 254.077 23.4617)" fill="#3FE2EB" stroke="#ADFAFF" stroke-width="4"/>
</g>
<rect x="300" y="26" width="10" height="3" rx="1.5" transform="rotate(-180 300 26)" fill="#3FE2EB"/>
<rect x="299" y="11.6001" width="10" height="3" rx="1.5" transform="rotate(165 299 11.6001)" fill="#3FE2EB"/>
<rect x="297.742" y="40.5391" width="10" height="3" rx="1.5" transform="rotate(-165 297.742 40.5391)" fill="#3FE2EB"/>
</svg>
