<svg width="366" height="47" viewBox="0 0 366 47" fill="none" xmlns="http://www.w3.org/2000/svg">
<mask id="path-1-outside-1_410_2" maskUnits="userSpaceOnUse" x="73" y="7" width="223" height="31" fill="black">
<rect fill="white" x="73" y="7" width="223" height="31"/>
<path d="M79.5045 24.472V26.168C79.5045 29.176 79.5365 29.24 83.0245 29.24C85.9685 29.24 91.5685 29.176 94.2885 28.6C94.4485 28.568 94.5765 28.536 94.7045 28.536C95.4725 28.536 95.5365 29.656 95.5365 30.776V31.64C95.5365 32.504 95.4405 33.336 94.5765 33.528C93.2645 33.848 84.6885 33.976 82.8005 33.976C80.0485 33.976 76.7525 33.88 75.5045 31.992C74.6085 30.648 74.5765 27.992 74.5765 26.424V15.704C74.5765 14.36 74.5445 12.28 74.4165 10.968V10.712C74.4165 10.424 74.6725 10.328 74.8645 10.328C75.4725 10.328 78.5445 11 79.4085 11.096C79.6645 11.128 80.1765 11.16 80.1765 11.512C80.1765 11.704 80.0485 11.8 79.8885 11.96C79.5365 12.312 79.5045 12.92 79.5045 13.944V18.296C79.5045 18.744 79.8245 19.032 80.2725 19.032C81.2965 19.032 83.7285 18.488 84.8165 18.2C87.0565 17.56 89.0085 16.696 91.0565 15.608C91.1845 15.544 91.4405 15.416 91.5685 15.416C92.0165 15.416 93.2965 17.464 94.2565 19.064C94.4805 19.416 94.6405 19.768 94.6405 19.896C94.6405 20.184 94.3205 20.216 94.1285 20.216C93.9685 20.216 93.8085 20.184 93.5205 20.184C93.0085 20.184 92.7205 20.312 92.1765 20.536C88.5285 22.072 84.6245 23.288 80.6565 23.576C80.0805 23.608 79.5685 23.704 79.5045 24.472ZM96.1765 9.784C98.0325 9.784 99.5045 11.256 99.5045 13.112C99.5045 14.968 98.0325 16.44 96.1765 16.44C94.3205 16.44 92.8165 14.936 92.8165 13.112C92.8165 11.256 94.3205 9.784 96.1765 9.784ZM96.1765 11.416C95.2485 11.416 94.4805 12.184 94.4805 13.112C94.4805 14.04 95.2165 14.808 96.1765 14.808C97.1045 14.808 97.8725 14.04 97.8725 13.112C97.8725 12.184 97.1045 11.416 96.1765 11.416ZM108.785 13.752H123.025C123.985 13.752 124.945 13.72 125.905 13.72C127.185 13.72 127.921 14.104 127.921 15.48C127.921 16.568 127.889 17.656 127.889 18.712V29.528C127.889 30.456 127.953 31.384 127.953 32.344C127.953 33.688 127.921 33.848 126.417 33.848H124.593C123.377 33.848 123.249 33.72 123.121 33.208C122.929 32.504 122.481 32.504 121.425 32.504H108.849C108.433 32.536 107.985 32.568 107.537 32.568C106.769 32.568 106.673 32.152 106.673 31.032V28.76C106.673 27.8 106.737 27.512 107.409 27.512C107.825 27.512 108.465 27.576 108.945 27.576C109.937 27.608 110.929 27.608 111.953 27.608H121.969C122.513 27.608 122.961 27.16 122.961 26.616V19.64C122.961 19.096 122.513 18.648 121.969 18.648H111.921C110.993 18.648 110.065 18.648 109.169 18.68C108.593 18.68 108.049 18.744 107.505 18.744C106.801 18.744 106.641 18.456 106.641 17.016V15.096C106.641 13.88 106.801 13.688 107.377 13.688C107.857 13.688 108.337 13.752 108.785 13.752ZM146.193 11H152.945C154.545 11 156.305 10.904 157.105 10.904C158.065 10.904 158.161 11.32 158.161 12.728V14.072C158.161 15.256 158.129 15.736 157.169 15.736C155.761 15.736 154.353 15.672 152.945 15.672H146.193C144.753 15.672 143.345 15.736 141.937 15.736C141.041 15.736 140.945 15.32 140.945 14.136V12.536C140.945 11.352 141.041 10.904 142.001 10.904C142.801 10.904 144.561 11 146.193 11ZM142.097 19.096H161.009C161.457 19.064 161.873 19.032 162.321 19.032C163.185 19.032 163.281 19.416 163.281 20.696V22.168C163.281 23.544 163.057 23.864 162.257 23.864C160.785 23.864 159.313 23.8 157.841 23.8H154.417C153.585 23.8 153.457 24.536 153.361 25.048C152.657 28.728 151.089 31.96 147.921 34.136C147.057 34.744 143.921 36.536 142.961 36.536C142.033 36.536 139.473 33.368 139.473 32.728C139.473 32.408 139.921 32.28 140.465 32.12C144.369 31.032 146.801 29.624 148.049 25.592C148.113 25.336 148.273 24.728 148.273 24.536C148.273 24.12 147.985 23.8 147.537 23.8H142.097C140.753 23.8 139.217 23.896 137.905 23.896C137.137 23.896 136.913 23.448 136.913 22.488V20.344C136.913 19.16 137.137 19 137.873 19C138.801 19 140.689 19.096 142.097 19.096ZM160.721 11.352C160.977 11.352 163.601 14.168 163.601 14.68C163.601 15.32 161.937 16.408 161.649 16.408C161.585 16.408 161.425 16.28 161.233 16.024C160.689 15.352 159.825 14.264 158.897 13.336C158.769 13.208 158.641 13.08 158.641 12.92C158.641 12.44 160.337 11.352 160.721 11.352ZM163.345 8.248C163.697 8.248 166.321 11.032 166.321 11.544C166.321 12.12 164.785 13.304 164.401 13.304C164.241 13.304 164.081 13.112 163.985 12.984C163.249 12.024 162.449 11.128 161.585 10.264C161.489 10.168 161.361 10.008 161.361 9.848C161.361 9.368 163.057 8.248 163.345 8.248ZM185.503 23.608V35.608C185.503 36.504 184.767 36.568 184.064 36.568H182.752C181.344 36.568 181.216 36.376 181.216 35.32C181.216 34.328 181.28 33.368 181.28 32.376V26.904C181.28 26.68 181.152 26.456 180.864 26.456C180.64 26.456 180.384 26.648 180.064 26.872C179.424 27.352 176.288 29.464 175.68 29.464C175.04 29.464 172.672 27.16 172.672 26.424C172.672 26.104 172.992 25.944 173.632 25.688C178.592 23.576 183.424 19.8 186.272 15.288C186.496 14.936 186.656 14.68 186.88 14.68C187.36 14.68 189.44 16.152 190.208 16.76C190.496 16.984 190.72 17.272 190.72 17.496C190.72 17.752 190.496 17.848 190.272 17.88C189.664 18.04 189.504 18.168 189.12 18.648C188.256 19.704 187.328 20.728 186.368 21.656C185.632 22.36 185.503 22.52 185.503 23.608ZM208.287 19.864H223.007C224.895 19.864 226.943 19.736 227.231 19.736C228.063 19.736 228.191 20.088 228.191 21.016V22.552C228.191 24.312 228.159 24.856 227.135 24.856C225.887 24.856 224.415 24.76 223.007 24.76H208.287C206.879 24.76 205.375 24.856 204.191 24.856C203.103 24.856 203.103 24.248 203.103 22.552V21.08C203.103 20.12 203.199 19.736 204.031 19.736C204.479 19.736 206.271 19.864 208.287 19.864ZM241.376 10.904C241.376 10.52 241.76 10.328 244.064 10.04C245.312 9.88 246.048 9.784 246.656 9.784C247.52 9.784 247.584 9.848 247.808 12.248C248 14.296 248.128 15.256 248.352 16.12C248.448 16.504 248.608 16.952 249.088 16.952C249.696 16.952 252.544 15.256 253.248 14.84C253.728 14.552 255.36 13.56 255.776 13.56C256.128 13.56 256.8 14.552 257.248 15.288C257.6 15.864 258.56 17.432 258.56 18.04C258.56 18.392 258.208 18.52 257.536 18.744C257.408 18.808 257.248 18.84 257.088 18.904C254.176 19.896 250.112 22.008 247.008 23.96C245.472 24.92 243.264 26.36 243.264 28.024C243.264 30.168 247.328 30.168 248.8 30.168C250.432 30.168 252.128 30.104 253.664 29.912C254.336 29.816 256.544 29.464 257.056 29.304C257.152 29.304 257.28 29.272 257.376 29.272C257.696 29.272 257.792 29.816 257.824 30.072C257.92 31 257.952 32.056 257.952 32.984C257.952 33.944 257.92 34.232 257.088 34.456C255.616 34.84 250.08 35 248.32 35C245.792 35 243.584 34.84 241.344 33.56C239.36 32.408 238.144 30.392 238.144 28.088C238.144 24.92 240.416 22.264 242.944 20.632C243.424 20.344 243.712 20.184 243.712 19.64C243.712 19.416 243.616 19.16 243.52 18.872C243.264 18.008 243.04 17.112 242.816 16.184C242.464 14.616 242.016 12.856 241.472 11.288C241.44 11.192 241.376 11 241.376 10.904ZM269.792 24.312C269.792 20.728 270.368 17.144 271.296 13.72C271.584 12.696 271.872 11.896 272.128 10.84C272.192 10.552 272.288 10.232 272.608 10.232C272.928 10.232 276.672 11.896 277.248 12.152C277.824 12.408 278.016 12.6 278.016 12.792C278.016 12.984 277.888 13.048 277.728 13.112C276.896 13.432 276.672 13.912 276.256 14.744C275.04 17.208 274.336 21.272 274.336 24.312C274.336 24.984 274.336 25.656 274.656 25.656C274.912 25.656 275.008 25.432 275.104 25.24C275.424 24.472 275.616 24.088 275.904 24.088C276.352 24.088 277.984 25.144 277.984 25.624C277.984 26.2 276.192 29.72 276.192 31.896C276.192 32.248 276.256 32.792 276.288 33.176C276.32 33.368 276.32 33.592 276.32 33.752C276.32 34.616 275.328 35.096 274.624 35.384C274.208 35.544 273.472 35.8 272.992 35.8C272.416 35.8 272.128 35.288 271.776 34.584C270.24 31.352 269.792 27.864 269.792 24.312ZM284.512 10.296C285.184 10.296 288.48 10.776 289.28 10.904C289.44 10.936 289.696 11 289.696 11.224C289.696 11.384 289.6 11.576 289.44 11.8C288.896 12.632 288.864 13.656 288.864 14.616C288.864 15.064 289.088 15.384 289.568 15.384C289.92 15.384 291.456 14.968 291.936 14.84C292.16 14.776 292.608 14.648 292.768 14.648C293.248 14.648 293.376 15.288 293.472 15.768C293.664 16.632 293.856 17.656 293.856 18.424C293.856 19.224 293.568 19.384 290.048 19.864C289.344 19.96 288.992 20.12 288.992 20.92C288.992 21.336 289.184 25.688 289.216 26.136C289.28 26.904 289.568 26.968 290.368 27.384C291.488 27.992 292.864 28.952 293.792 29.816C294.176 30.2 294.528 30.584 294.528 31.16C294.528 32.056 292.96 34.104 292 34.104C291.52 34.104 291.04 33.688 290.368 33.048C290.24 32.92 290.112 32.824 289.984 32.696C289.792 32.504 289.6 32.312 289.344 32.312C289.056 32.312 288.96 32.472 288.736 32.824C287.744 34.424 285.504 34.936 283.744 34.936C280.832 34.936 277.92 33.496 277.92 30.2C277.92 27.064 280.608 25.624 283.424 25.624H284.16C284.704 25.624 284.928 25.304 284.928 24.824C284.928 24.088 284.768 22.584 284.768 22.072C284.768 20.984 284.64 20.472 283.936 20.472C283.36 20.472 281.152 20.6 279.808 20.6H279.328C278.592 20.6 277.952 20.536 277.728 20.28C277.472 19.96 277.44 17.272 277.44 16.696C277.44 16.28 277.536 15.832 278.048 15.832C278.24 15.832 279.232 15.928 279.52 15.96C280.832 16.088 282.144 16.152 283.424 16.152C283.936 16.152 284.352 15.96 284.352 15.384C284.352 14.712 284 11.544 284 10.84C284 10.456 284.128 10.296 284.512 10.296ZM283.712 29.464C283.232 29.464 282.048 29.592 282.048 30.296C282.048 30.936 283.072 31.256 283.744 31.256C284.48 31.256 285.184 31 285.184 30.136C285.184 29.496 284.192 29.464 283.712 29.464Z"/>
</mask>
<path d="M79.5045 24.472V26.168C79.5045 29.176 79.5365 29.24 83.0245 29.24C85.9685 29.24 91.5685 29.176 94.2885 28.6C94.4485 28.568 94.5765 28.536 94.7045 28.536C95.4725 28.536 95.5365 29.656 95.5365 30.776V31.64C95.5365 32.504 95.4405 33.336 94.5765 33.528C93.2645 33.848 84.6885 33.976 82.8005 33.976C80.0485 33.976 76.7525 33.88 75.5045 31.992C74.6085 30.648 74.5765 27.992 74.5765 26.424V15.704C74.5765 14.36 74.5445 12.28 74.4165 10.968V10.712C74.4165 10.424 74.6725 10.328 74.8645 10.328C75.4725 10.328 78.5445 11 79.4085 11.096C79.6645 11.128 80.1765 11.16 80.1765 11.512C80.1765 11.704 80.0485 11.8 79.8885 11.96C79.5365 12.312 79.5045 12.92 79.5045 13.944V18.296C79.5045 18.744 79.8245 19.032 80.2725 19.032C81.2965 19.032 83.7285 18.488 84.8165 18.2C87.0565 17.56 89.0085 16.696 91.0565 15.608C91.1845 15.544 91.4405 15.416 91.5685 15.416C92.0165 15.416 93.2965 17.464 94.2565 19.064C94.4805 19.416 94.6405 19.768 94.6405 19.896C94.6405 20.184 94.3205 20.216 94.1285 20.216C93.9685 20.216 93.8085 20.184 93.5205 20.184C93.0085 20.184 92.7205 20.312 92.1765 20.536C88.5285 22.072 84.6245 23.288 80.6565 23.576C80.0805 23.608 79.5685 23.704 79.5045 24.472ZM96.1765 9.784C98.0325 9.784 99.5045 11.256 99.5045 13.112C99.5045 14.968 98.0325 16.44 96.1765 16.44C94.3205 16.44 92.8165 14.936 92.8165 13.112C92.8165 11.256 94.3205 9.784 96.1765 9.784ZM96.1765 11.416C95.2485 11.416 94.4805 12.184 94.4805 13.112C94.4805 14.04 95.2165 14.808 96.1765 14.808C97.1045 14.808 97.8725 14.04 97.8725 13.112C97.8725 12.184 97.1045 11.416 96.1765 11.416ZM108.785 13.752H123.025C123.985 13.752 124.945 13.72 125.905 13.72C127.185 13.72 127.921 14.104 127.921 15.48C127.921 16.568 127.889 17.656 127.889 18.712V29.528C127.889 30.456 127.953 31.384 127.953 32.344C127.953 33.688 127.921 33.848 126.417 33.848H124.593C123.377 33.848 123.249 33.72 123.121 33.208C122.929 32.504 122.481 32.504 121.425 32.504H108.849C108.433 32.536 107.985 32.568 107.537 32.568C106.769 32.568 106.673 32.152 106.673 31.032V28.76C106.673 27.8 106.737 27.512 107.409 27.512C107.825 27.512 108.465 27.576 108.945 27.576C109.937 27.608 110.929 27.608 111.953 27.608H121.969C122.513 27.608 122.961 27.16 122.961 26.616V19.64C122.961 19.096 122.513 18.648 121.969 18.648H111.921C110.993 18.648 110.065 18.648 109.169 18.68C108.593 18.68 108.049 18.744 107.505 18.744C106.801 18.744 106.641 18.456 106.641 17.016V15.096C106.641 13.88 106.801 13.688 107.377 13.688C107.857 13.688 108.337 13.752 108.785 13.752ZM146.193 11H152.945C154.545 11 156.305 10.904 157.105 10.904C158.065 10.904 158.161 11.32 158.161 12.728V14.072C158.161 15.256 158.129 15.736 157.169 15.736C155.761 15.736 154.353 15.672 152.945 15.672H146.193C144.753 15.672 143.345 15.736 141.937 15.736C141.041 15.736 140.945 15.32 140.945 14.136V12.536C140.945 11.352 141.041 10.904 142.001 10.904C142.801 10.904 144.561 11 146.193 11ZM142.097 19.096H161.009C161.457 19.064 161.873 19.032 162.321 19.032C163.185 19.032 163.281 19.416 163.281 20.696V22.168C163.281 23.544 163.057 23.864 162.257 23.864C160.785 23.864 159.313 23.8 157.841 23.8H154.417C153.585 23.8 153.457 24.536 153.361 25.048C152.657 28.728 151.089 31.96 147.921 34.136C147.057 34.744 143.921 36.536 142.961 36.536C142.033 36.536 139.473 33.368 139.473 32.728C139.473 32.408 139.921 32.28 140.465 32.12C144.369 31.032 146.801 29.624 148.049 25.592C148.113 25.336 148.273 24.728 148.273 24.536C148.273 24.12 147.985 23.8 147.537 23.8H142.097C140.753 23.8 139.217 23.896 137.905 23.896C137.137 23.896 136.913 23.448 136.913 22.488V20.344C136.913 19.16 137.137 19 137.873 19C138.801 19 140.689 19.096 142.097 19.096ZM160.721 11.352C160.977 11.352 163.601 14.168 163.601 14.68C163.601 15.32 161.937 16.408 161.649 16.408C161.585 16.408 161.425 16.28 161.233 16.024C160.689 15.352 159.825 14.264 158.897 13.336C158.769 13.208 158.641 13.08 158.641 12.92C158.641 12.44 160.337 11.352 160.721 11.352ZM163.345 8.248C163.697 8.248 166.321 11.032 166.321 11.544C166.321 12.12 164.785 13.304 164.401 13.304C164.241 13.304 164.081 13.112 163.985 12.984C163.249 12.024 162.449 11.128 161.585 10.264C161.489 10.168 161.361 10.008 161.361 9.848C161.361 9.368 163.057 8.248 163.345 8.248ZM185.503 23.608V35.608C185.503 36.504 184.767 36.568 184.064 36.568H182.752C181.344 36.568 181.216 36.376 181.216 35.32C181.216 34.328 181.28 33.368 181.28 32.376V26.904C181.28 26.68 181.152 26.456 180.864 26.456C180.64 26.456 180.384 26.648 180.064 26.872C179.424 27.352 176.288 29.464 175.68 29.464C175.04 29.464 172.672 27.16 172.672 26.424C172.672 26.104 172.992 25.944 173.632 25.688C178.592 23.576 183.424 19.8 186.272 15.288C186.496 14.936 186.656 14.68 186.88 14.68C187.36 14.68 189.44 16.152 190.208 16.76C190.496 16.984 190.72 17.272 190.72 17.496C190.72 17.752 190.496 17.848 190.272 17.88C189.664 18.04 189.504 18.168 189.12 18.648C188.256 19.704 187.328 20.728 186.368 21.656C185.632 22.36 185.503 22.52 185.503 23.608ZM208.287 19.864H223.007C224.895 19.864 226.943 19.736 227.231 19.736C228.063 19.736 228.191 20.088 228.191 21.016V22.552C228.191 24.312 228.159 24.856 227.135 24.856C225.887 24.856 224.415 24.76 223.007 24.76H208.287C206.879 24.76 205.375 24.856 204.191 24.856C203.103 24.856 203.103 24.248 203.103 22.552V21.08C203.103 20.12 203.199 19.736 204.031 19.736C204.479 19.736 206.271 19.864 208.287 19.864ZM241.376 10.904C241.376 10.52 241.76 10.328 244.064 10.04C245.312 9.88 246.048 9.784 246.656 9.784C247.52 9.784 247.584 9.848 247.808 12.248C248 14.296 248.128 15.256 248.352 16.12C248.448 16.504 248.608 16.952 249.088 16.952C249.696 16.952 252.544 15.256 253.248 14.84C253.728 14.552 255.36 13.56 255.776 13.56C256.128 13.56 256.8 14.552 257.248 15.288C257.6 15.864 258.56 17.432 258.56 18.04C258.56 18.392 258.208 18.52 257.536 18.744C257.408 18.808 257.248 18.84 257.088 18.904C254.176 19.896 250.112 22.008 247.008 23.96C245.472 24.92 243.264 26.36 243.264 28.024C243.264 30.168 247.328 30.168 248.8 30.168C250.432 30.168 252.128 30.104 253.664 29.912C254.336 29.816 256.544 29.464 257.056 29.304C257.152 29.304 257.28 29.272 257.376 29.272C257.696 29.272 257.792 29.816 257.824 30.072C257.92 31 257.952 32.056 257.952 32.984C257.952 33.944 257.92 34.232 257.088 34.456C255.616 34.84 250.08 35 248.32 35C245.792 35 243.584 34.84 241.344 33.56C239.36 32.408 238.144 30.392 238.144 28.088C238.144 24.92 240.416 22.264 242.944 20.632C243.424 20.344 243.712 20.184 243.712 19.64C243.712 19.416 243.616 19.16 243.52 18.872C243.264 18.008 243.04 17.112 242.816 16.184C242.464 14.616 242.016 12.856 241.472 11.288C241.44 11.192 241.376 11 241.376 10.904ZM269.792 24.312C269.792 20.728 270.368 17.144 271.296 13.72C271.584 12.696 271.872 11.896 272.128 10.84C272.192 10.552 272.288 10.232 272.608 10.232C272.928 10.232 276.672 11.896 277.248 12.152C277.824 12.408 278.016 12.6 278.016 12.792C278.016 12.984 277.888 13.048 277.728 13.112C276.896 13.432 276.672 13.912 276.256 14.744C275.04 17.208 274.336 21.272 274.336 24.312C274.336 24.984 274.336 25.656 274.656 25.656C274.912 25.656 275.008 25.432 275.104 25.24C275.424 24.472 275.616 24.088 275.904 24.088C276.352 24.088 277.984 25.144 277.984 25.624C277.984 26.2 276.192 29.72 276.192 31.896C276.192 32.248 276.256 32.792 276.288 33.176C276.32 33.368 276.32 33.592 276.32 33.752C276.32 34.616 275.328 35.096 274.624 35.384C274.208 35.544 273.472 35.8 272.992 35.8C272.416 35.8 272.128 35.288 271.776 34.584C270.24 31.352 269.792 27.864 269.792 24.312ZM284.512 10.296C285.184 10.296 288.48 10.776 289.28 10.904C289.44 10.936 289.696 11 289.696 11.224C289.696 11.384 289.6 11.576 289.44 11.8C288.896 12.632 288.864 13.656 288.864 14.616C288.864 15.064 289.088 15.384 289.568 15.384C289.92 15.384 291.456 14.968 291.936 14.84C292.16 14.776 292.608 14.648 292.768 14.648C293.248 14.648 293.376 15.288 293.472 15.768C293.664 16.632 293.856 17.656 293.856 18.424C293.856 19.224 293.568 19.384 290.048 19.864C289.344 19.96 288.992 20.12 288.992 20.92C288.992 21.336 289.184 25.688 289.216 26.136C289.28 26.904 289.568 26.968 290.368 27.384C291.488 27.992 292.864 28.952 293.792 29.816C294.176 30.2 294.528 30.584 294.528 31.16C294.528 32.056 292.96 34.104 292 34.104C291.52 34.104 291.04 33.688 290.368 33.048C290.24 32.92 290.112 32.824 289.984 32.696C289.792 32.504 289.6 32.312 289.344 32.312C289.056 32.312 288.96 32.472 288.736 32.824C287.744 34.424 285.504 34.936 283.744 34.936C280.832 34.936 277.92 33.496 277.92 30.2C277.92 27.064 280.608 25.624 283.424 25.624H284.16C284.704 25.624 284.928 25.304 284.928 24.824C284.928 24.088 284.768 22.584 284.768 22.072C284.768 20.984 284.64 20.472 283.936 20.472C283.36 20.472 281.152 20.6 279.808 20.6H279.328C278.592 20.6 277.952 20.536 277.728 20.28C277.472 19.96 277.44 17.272 277.44 16.696C277.44 16.28 277.536 15.832 278.048 15.832C278.24 15.832 279.232 15.928 279.52 15.96C280.832 16.088 282.144 16.152 283.424 16.152C283.936 16.152 284.352 15.96 284.352 15.384C284.352 14.712 284 11.544 284 10.84C284 10.456 284.128 10.296 284.512 10.296ZM283.712 29.464C283.232 29.464 282.048 29.592 282.048 30.296C282.048 30.936 283.072 31.256 283.744 31.256C284.48 31.256 285.184 31 285.184 30.136C285.184 29.496 284.192 29.464 283.712 29.464Z" fill="#36CDD5"/>
<path d="M79.5045 24.472L79.0062 24.4305L79.0045 24.4512V24.472H79.5045ZM94.2885 28.6L94.1904 28.1097L94.1849 28.1108L94.2885 28.6ZM94.5765 33.528L94.468 33.0398L94.458 33.0422L94.5765 33.528ZM75.5045 31.992L75.9216 31.7163L75.9205 31.7146L75.5045 31.992ZM74.4165 10.968H73.9165V10.9923L73.9189 11.0165L74.4165 10.968ZM79.4085 11.096L79.4705 10.5998L79.4637 10.5991L79.4085 11.096ZM79.8885 11.96L80.2421 12.3136L80.2421 12.3136L79.8885 11.96ZM84.8165 18.2L84.9445 18.6834L84.9539 18.6808L84.8165 18.2ZM91.0565 15.608L90.8328 15.1607L90.8219 15.1664L91.0565 15.608ZM94.2565 19.064L93.8276 19.3213L93.8347 19.3324L94.2565 19.064ZM92.1765 20.536L91.9861 20.0736L91.9825 20.0752L92.1765 20.536ZM80.6565 23.576L80.6842 24.0753L80.6927 24.0747L80.6565 23.576ZM79.0045 24.472V26.168H80.0045V24.472H79.0045ZM79.0045 26.168C79.0045 26.9074 79.0055 27.5138 79.0684 27.9834C79.132 28.4579 79.2699 28.8928 79.6256 29.2068C79.9684 29.5095 80.4312 29.6245 80.9496 29.6801C81.4754 29.7366 82.1611 29.74 83.0245 29.74V28.74C82.144 28.74 81.5176 28.7354 81.0564 28.6859C80.5878 28.6355 80.3886 28.5465 80.2874 28.4572C80.1991 28.3792 80.111 28.2341 80.0596 27.8506C80.0075 27.4622 80.0045 26.9326 80.0045 26.168H79.0045ZM83.0245 29.74C85.9488 29.74 91.6093 29.6785 94.3921 29.0892L94.1849 28.1108C91.5277 28.6735 85.9882 28.74 83.0245 28.74V29.74ZM94.3866 29.0903C94.5833 29.0509 94.6408 29.036 94.7045 29.036V28.036C94.5122 28.036 94.3137 28.0851 94.1904 28.1097L94.3866 29.0903ZM94.7045 29.036C94.7573 29.036 94.7728 29.048 94.7925 29.0691C94.8279 29.1072 94.8798 29.1937 94.9254 29.3648C95.018 29.7121 95.0365 30.2081 95.0365 30.776H96.0365C96.0365 30.2239 96.023 29.5999 95.8916 29.1072C95.8253 28.8583 95.7171 28.5948 95.5245 28.3879C95.3162 28.164 95.0357 28.036 94.7045 28.036V29.036ZM95.0365 30.776V31.64H96.0365V30.776H95.0365ZM95.0365 31.64C95.0365 32.0706 95.0094 32.4104 94.9144 32.655C94.8351 32.8594 94.7171 32.9846 94.468 33.0399L94.685 34.0161C95.2999 33.8794 95.6619 33.4926 95.8466 33.017C96.0156 32.5816 96.0365 32.0734 96.0365 31.64H95.0365ZM94.458 33.0422C94.1845 33.1089 93.4548 33.1759 92.4206 33.2338C91.4092 33.2904 90.1604 33.3363 88.8904 33.3722C86.3501 33.4441 83.7389 33.476 82.8005 33.476V34.476C83.7501 34.476 86.3709 34.4439 88.9186 34.3718C90.1926 34.3357 91.4518 34.2896 92.4765 34.2322C93.4783 34.1761 94.3125 34.1071 94.695 34.0138L94.458 33.0422ZM82.8005 33.476C81.4215 33.476 79.955 33.4508 78.6849 33.2014C77.4037 32.9498 76.4336 32.4909 75.9216 31.7163L75.0874 32.2677C75.8234 33.3811 77.1253 33.9142 78.4922 34.1826C79.87 34.4532 81.4275 34.476 82.8005 34.476V33.476ZM75.9205 31.7146C75.5417 31.1464 75.3194 30.2471 75.2011 29.234C75.0848 28.2377 75.0765 27.2074 75.0765 26.424H74.0765C74.0765 27.2085 74.0842 28.2903 74.2079 29.35C74.3296 30.3929 74.5713 31.4936 75.0885 32.2694L75.9205 31.7146ZM75.0765 26.424V15.704H74.0765V26.424H75.0765ZM75.0765 15.704C75.0765 14.3603 75.0448 12.2583 74.9141 10.9194L73.9189 11.0165C74.0442 12.3017 74.0765 14.3597 74.0765 15.704H75.0765ZM74.9165 10.968V10.712H73.9165V10.968H74.9165ZM74.9165 10.712C74.9165 10.7166 74.9148 10.74 74.8985 10.7699C74.8827 10.7987 74.8628 10.8165 74.8502 10.8251C74.8391 10.8327 74.8348 10.8326 74.8414 10.8309C74.8479 10.8292 74.8567 10.828 74.8645 10.828V9.828C74.6981 9.828 74.4796 9.86743 74.2868 9.99889C74.0705 10.1464 73.9165 10.3929 73.9165 10.712H74.9165ZM74.8645 10.828C74.9668 10.828 75.229 10.8613 75.6273 10.9277C76.0083 10.9912 76.4715 11.0773 76.9476 11.1673C77.8825 11.3441 78.8964 11.5422 79.3533 11.5929L79.4637 10.5991C79.0566 10.5538 78.1025 10.3679 77.1334 10.1847C76.6575 10.0947 76.1847 10.0068 75.7917 9.9413C75.416 9.87869 75.0662 9.828 74.8645 9.828V10.828ZM79.3465 11.5921C79.427 11.6022 79.4851 11.6075 79.56 11.6191C79.6305 11.63 79.6846 11.6424 79.7233 11.6559C79.7656 11.6707 79.7582 11.6762 79.7356 11.6532C79.722 11.6393 79.7053 11.6173 79.6928 11.5875C79.6802 11.5573 79.6765 11.5302 79.6765 11.512H80.6765C80.6765 11.2869 80.5887 11.0948 80.4494 10.9528C80.3228 10.8238 80.1714 10.7533 80.0537 10.7121C79.8292 10.6335 79.564 10.6115 79.4705 10.5999L79.3465 11.5921ZM79.6765 11.512C79.6765 11.5019 79.6786 11.484 79.6861 11.4643C79.6929 11.4462 79.6996 11.4387 79.6953 11.4443C79.6895 11.4518 79.677 11.4664 79.6474 11.4959C79.6331 11.5103 79.6175 11.5254 79.5981 11.5444C79.5794 11.5626 79.5576 11.5838 79.5349 11.6064L80.2421 12.3136C80.2908 12.2648 80.4108 12.1549 80.4897 12.0517C80.5932 11.9163 80.6765 11.7404 80.6765 11.512H79.6765ZM79.535 11.6064C79.2546 11.8867 79.1312 12.2443 79.0708 12.6208C79.0115 12.9902 79.0045 13.4373 79.0045 13.944H80.0045C80.0045 13.4266 80.0135 13.0578 80.0582 12.7792C80.1018 12.5077 80.1704 12.3853 80.2421 12.3136L79.535 11.6064ZM79.0045 13.944V18.296H80.0045V13.944H79.0045ZM79.0045 18.296C79.0045 18.6447 79.1322 18.9649 79.3778 19.1961C79.6202 19.4242 79.9412 19.532 80.2725 19.532V18.532C80.1558 18.532 80.0928 18.4958 80.0632 18.4679C80.0368 18.4431 80.0045 18.3953 80.0045 18.296H79.0045ZM80.2725 19.532C80.8399 19.532 81.7491 19.3858 82.6173 19.2145C83.4996 19.0405 84.39 18.8301 84.9445 18.6834L84.6886 17.7166C84.155 17.8579 83.2854 18.0635 82.4237 18.2335C81.5479 18.4062 80.7291 18.532 80.2725 18.532V19.532ZM84.9539 18.6808C87.237 18.0284 89.2223 17.1486 91.2911 16.0496L90.8219 15.1664C88.7947 16.2434 86.876 17.0916 84.6791 17.7192L84.9539 18.6808ZM91.2801 16.0552C91.3457 16.0224 91.427 15.982 91.5048 15.9495C91.5435 15.9334 91.5735 15.9226 91.5942 15.9165C91.6217 15.9084 91.6078 15.916 91.5685 15.916V14.916C91.4653 14.916 91.3713 14.9396 91.3108 14.9575C91.2435 14.9774 91.1775 15.0026 91.1202 15.0265C91.006 15.074 90.8953 15.1296 90.8329 15.1608L91.2801 16.0552ZM91.5685 15.916C91.456 15.916 91.4143 15.8634 91.4755 15.9088C91.5185 15.9407 91.5844 16.0007 91.6732 16.098C91.849 16.2908 92.0664 16.5757 92.3102 16.9258C92.7956 17.6226 93.3481 18.5217 93.8278 19.3212L94.6853 18.8068C94.205 18.0063 93.6374 17.0814 93.1308 16.3542C92.8787 15.9923 92.632 15.6652 92.4119 15.424C92.3026 15.3043 92.1875 15.1918 92.071 15.1055C91.9727 15.0326 91.793 14.916 91.5685 14.916V15.916ZM93.8347 19.3324C93.9361 19.4918 94.0208 19.6479 94.0782 19.7727C94.107 19.8355 94.126 19.8841 94.1368 19.9171C94.1516 19.9621 94.1405 19.9462 94.1405 19.896H95.1405C95.1405 19.7818 95.1094 19.6739 95.0872 19.6059C95.061 19.5259 95.026 19.4405 94.9868 19.3552C94.9082 19.1841 94.8009 18.9882 94.6783 18.7956L93.8347 19.3324ZM94.1405 19.896C94.1405 19.8853 94.1421 19.8653 94.1503 19.8397C94.1587 19.8136 94.1719 19.7881 94.1892 19.7653C94.2233 19.7203 94.2581 19.705 94.2617 19.7035C94.2645 19.7023 94.2539 19.7069 94.2243 19.7108C94.1964 19.7144 94.1638 19.716 94.1285 19.716V20.716C94.2363 20.716 94.4497 20.7098 94.6513 20.6245C94.7589 20.579 94.8857 20.5017 94.9858 20.3697C95.0906 20.2316 95.1405 20.0671 95.1405 19.896H94.1405ZM94.1285 19.716C94.0751 19.716 94.0231 19.7108 93.914 19.7017C93.8118 19.6932 93.6843 19.684 93.5205 19.684V20.684C93.6447 20.684 93.7413 20.6908 93.831 20.6983C93.914 20.7052 94.0219 20.716 94.1285 20.716V19.716ZM93.5205 19.684C92.8957 19.684 92.5205 19.8536 91.9861 20.0737L92.3669 20.9983C92.9205 20.7704 93.1213 20.684 93.5205 20.684V19.684ZM91.9825 20.0752C88.3615 21.5998 84.5136 22.7947 80.6203 23.0773L80.6927 24.0747C84.7354 23.7813 88.6955 22.5442 92.3705 20.9968L91.9825 20.0752ZM80.6288 23.0768C80.3453 23.0925 79.9577 23.1246 79.6325 23.3185C79.2573 23.5422 79.0486 23.9219 79.0062 24.4305L80.0028 24.5135C80.0244 24.2541 80.1037 24.2018 80.1445 24.1775C80.2353 24.1234 80.3917 24.0915 80.6842 24.0752L80.6288 23.0768ZM96.1765 10.284C97.7564 10.284 99.0045 11.5321 99.0045 13.112H100.005C100.005 10.9799 98.3086 9.284 96.1765 9.284V10.284ZM99.0045 13.112C99.0045 14.6919 97.7564 15.94 96.1765 15.94V16.94C98.3086 16.94 100.005 15.2441 100.005 13.112H99.0045ZM96.1765 15.94C94.5935 15.94 93.3165 14.6568 93.3165 13.112H92.3165C92.3165 15.2152 94.0475 16.94 96.1765 16.94V15.94ZM93.3165 13.112C93.3165 11.5384 94.5904 10.284 96.1765 10.284V9.284C94.0506 9.284 92.3165 10.9736 92.3165 13.112H93.3165ZM96.1765 10.916C94.9724 10.916 93.9805 11.9079 93.9805 13.112H94.9805C94.9805 12.4601 95.5246 11.916 96.1765 11.916V10.916ZM93.9805 13.112C93.9805 14.31 94.9342 15.308 96.1765 15.308V14.308C95.4988 14.308 94.9805 13.77 94.9805 13.112H93.9805ZM96.1765 15.308C97.3806 15.308 98.3725 14.3161 98.3725 13.112H97.3725C97.3725 13.7639 96.8284 14.308 96.1765 14.308V15.308ZM98.3725 13.112C98.3725 11.9079 97.3806 10.916 96.1765 10.916V11.916C96.8284 11.916 97.3725 12.4601 97.3725 13.112H98.3725ZM123.121 33.208L123.606 33.0867L123.603 33.0764L123.121 33.208ZM108.849 32.504V32.004H108.829L108.81 32.0055L108.849 32.504ZM108.945 27.576L108.961 27.0763L108.953 27.076H108.945V27.576ZM109.169 18.68V19.18H109.177L109.186 19.1797L109.169 18.68ZM108.785 14.252H123.025V13.252H108.785V14.252ZM123.025 14.252C123.509 14.252 123.994 14.2439 124.473 14.2359C124.954 14.2279 125.429 14.22 125.905 14.22V13.22C125.42 13.22 124.935 13.2281 124.456 13.2361C123.975 13.2441 123.5 13.252 123.025 13.252V14.252ZM125.905 14.22C126.517 14.22 126.878 14.317 127.085 14.4784C127.262 14.6165 127.421 14.8781 127.421 15.48H128.421C128.421 14.7059 128.211 14.0875 127.7 13.6896C127.219 13.315 126.572 13.22 125.905 13.22V14.22ZM127.421 15.48C127.421 16.0197 127.413 16.56 127.405 17.1006C127.397 17.6399 127.389 18.1796 127.389 18.712H128.389C128.389 18.1884 128.396 17.6561 128.404 17.1154C128.412 16.576 128.421 16.0283 128.421 15.48H127.421ZM127.389 18.712V29.528H128.389V18.712H127.389ZM127.389 29.528C127.389 30.002 127.405 30.4747 127.421 30.9411C127.437 31.4102 127.453 31.8739 127.453 32.344H128.453C128.453 31.8541 128.436 31.3738 128.42 30.9069C128.404 30.4373 128.389 29.982 128.389 29.528H127.389ZM127.453 32.344C127.453 32.6891 127.45 32.9161 127.428 33.0816C127.407 33.2449 127.376 33.266 127.385 33.2571C127.395 33.2466 127.375 33.2809 127.208 33.3089C127.039 33.3373 126.793 33.348 126.417 33.348V34.348C126.792 34.348 127.114 34.3387 127.374 34.2951C127.636 34.2511 127.906 34.1614 128.112 33.9429C128.317 33.726 128.388 33.4551 128.42 33.2104C128.451 32.9679 128.453 32.6709 128.453 32.344H127.453ZM126.417 33.348H124.593V34.348H126.417V33.348ZM124.593 33.348C124.294 33.348 124.079 33.34 123.921 33.3229C123.76 33.3055 123.691 33.2816 123.665 33.2692C123.655 33.2647 123.656 33.2638 123.661 33.2685C123.667 33.2733 123.668 33.2763 123.665 33.2721C123.655 33.2544 123.637 33.2109 123.606 33.0867L122.635 33.3293C122.703 33.6001 122.812 33.9691 123.232 34.1708C123.406 34.2544 123.605 34.2945 123.814 34.3171C124.026 34.34 124.283 34.348 124.593 34.348V33.348ZM123.603 33.0764C123.543 32.8553 123.451 32.6475 123.301 32.4742C123.147 32.2952 122.957 32.1842 122.752 32.117C122.39 31.9978 121.915 32.004 121.425 32.004V33.004C121.99 33.004 122.267 33.0102 122.441 33.067C122.504 33.0878 122.528 33.1088 122.545 33.1278C122.566 33.1525 122.602 33.2087 122.638 33.3396L123.603 33.0764ZM121.425 32.004H108.849V33.004H121.425V32.004ZM108.81 32.0055C108.394 32.0375 107.963 32.068 107.537 32.068V33.068C108.006 33.068 108.471 33.0345 108.887 33.0025L108.81 32.0055ZM107.537 32.068C107.383 32.068 107.317 32.0461 107.295 32.0352C107.287 32.0316 107.28 32.0304 107.265 31.9993C107.243 31.9535 107.215 31.8633 107.197 31.6914C107.179 31.5226 107.173 31.3087 107.173 31.032H106.173C106.173 31.3153 106.178 31.5734 106.202 31.7976C106.226 32.0187 106.27 32.2425 106.368 32.4407C106.473 32.6536 106.634 32.8264 106.86 32.9357C107.072 33.0379 107.306 33.068 107.537 33.068V32.068ZM107.173 31.032V28.76H106.173V31.032H107.173ZM107.173 28.76C107.173 28.5209 107.177 28.3451 107.19 28.2107C107.205 28.0723 107.225 28.02 107.232 28.007C107.233 28.0044 107.23 28.0116 107.219 28.0212C107.209 28.0307 107.201 28.034 107.203 28.0333C107.214 28.0286 107.267 28.012 107.409 28.012V27.012C107.214 27.012 107.007 27.0314 106.817 27.1107C106.607 27.1984 106.448 27.3467 106.345 27.545C106.252 27.724 106.214 27.9237 106.196 28.1093C106.176 28.2989 106.173 28.5191 106.173 28.76H107.173ZM107.409 28.012C107.598 28.012 107.845 28.0268 108.123 28.0431C108.392 28.059 108.687 28.076 108.945 28.076V27.076C108.722 27.076 108.457 27.061 108.182 27.0449C107.916 27.0292 107.635 27.012 107.409 27.012V28.012ZM108.928 28.0757C109.93 28.108 110.93 28.108 111.953 28.108V27.108C110.927 27.108 109.943 27.108 108.961 27.0763L108.928 28.0757ZM111.953 28.108H121.969V27.108H111.953V28.108ZM121.969 28.108C122.789 28.108 123.461 27.4361 123.461 26.616H122.461C122.461 26.8839 122.236 27.108 121.969 27.108V28.108ZM123.461 26.616V19.64H122.461V26.616H123.461ZM123.461 19.64C123.461 18.8199 122.789 18.148 121.969 18.148V19.148C122.236 19.148 122.461 19.3721 122.461 19.64H123.461ZM121.969 18.148H111.921V19.148H121.969V18.148ZM111.921 18.148C110.994 18.148 110.057 18.1479 109.151 18.1803L109.186 19.1797C110.072 19.1481 110.991 19.148 111.921 19.148V18.148ZM109.169 18.18C108.864 18.18 108.57 18.1969 108.296 18.2128C108.017 18.229 107.759 18.244 107.505 18.244V19.244C107.794 19.244 108.08 19.227 108.353 19.2112C108.631 19.1951 108.897 19.18 109.169 19.18V18.18ZM107.505 18.244C107.353 18.244 107.292 18.2268 107.272 18.2179C107.266 18.2152 107.267 18.2149 107.269 18.217C107.27 18.2186 107.265 18.2139 107.254 18.1936C107.23 18.1454 107.197 18.0431 107.173 17.8372C107.151 17.636 107.141 17.3702 107.141 17.016H106.141C106.141 17.3818 106.15 17.692 106.18 17.9498C106.208 18.2029 106.259 18.4426 106.363 18.6464C106.475 18.8685 106.645 19.036 106.873 19.1351C107.081 19.2252 107.304 19.244 107.505 19.244V18.244ZM107.141 17.016V15.096H106.141V17.016H107.141ZM107.141 15.096C107.141 14.7994 107.15 14.5839 107.171 14.426C107.191 14.2635 107.218 14.1989 107.229 14.1803C107.232 14.1748 107.229 14.1809 107.219 14.1901C107.214 14.1943 107.209 14.1977 107.205 14.2002C107.2 14.2027 107.198 14.2037 107.198 14.2035C107.207 14.2003 107.25 14.188 107.377 14.188V13.188C107.215 13.188 107.022 13.1997 106.839 13.2705C106.633 13.3499 106.469 13.4912 106.356 13.6917C106.255 13.8731 106.206 14.0845 106.178 14.3C106.151 14.5201 106.141 14.7846 106.141 15.096H107.141ZM107.377 14.188C107.597 14.188 107.82 14.2027 108.059 14.2189C108.291 14.2346 108.54 14.252 108.785 14.252V13.252C108.581 13.252 108.366 13.2374 108.126 13.2211C107.893 13.2053 107.636 13.188 107.377 13.188V14.188ZM161.008 19.096V19.596H161.026L161.044 19.5947L161.008 19.096ZM153.361 25.048L153.852 25.1419L153.852 25.1401L153.361 25.048ZM147.921 34.136L147.637 33.7238L147.633 33.7271L147.921 34.136ZM140.465 32.12L140.33 31.6383L140.323 31.6403L140.465 32.12ZM148.049 25.592L148.526 25.7398L148.53 25.7267L148.534 25.7133L148.049 25.592ZM161.232 16.024L161.632 15.724L161.627 15.7166L161.621 15.7094L161.232 16.024ZM163.985 12.984L164.385 12.684L164.381 12.6798L163.985 12.984ZM146.193 11.5H152.945V10.5H146.193V11.5ZM152.945 11.5C153.753 11.5 154.6 11.4758 155.341 11.4517C156.088 11.4275 156.715 11.404 157.104 11.404V10.404C156.694 10.404 156.041 10.4285 155.308 10.4523C154.569 10.4762 153.736 10.5 152.945 10.5V11.5ZM157.104 11.404C157.317 11.404 157.426 11.4286 157.479 11.4514C157.513 11.4657 157.528 11.4782 157.548 11.5167C157.578 11.5745 157.611 11.6856 157.633 11.8994C157.654 12.1091 157.66 12.3771 157.66 12.728H158.66C158.66 12.3749 158.655 12.0629 158.628 11.7986C158.602 11.5384 158.551 11.2815 158.437 11.0593C158.313 10.8178 158.124 10.6383 157.87 10.5306C157.635 10.4314 157.372 10.404 157.104 10.404V11.404ZM157.66 12.728V14.072H158.66V12.728H157.66ZM157.66 14.072C157.66 14.371 157.658 14.6021 157.642 14.7891C157.626 14.9793 157.599 15.0795 157.573 15.1325C157.557 15.167 157.546 15.1763 157.519 15.1883C157.475 15.2088 157.375 15.236 157.169 15.236V16.236C157.442 16.236 157.706 16.2032 157.938 16.0967C158.187 15.9817 158.364 15.797 158.476 15.5635C158.578 15.3485 158.619 15.1067 158.639 14.8739C158.659 14.6379 158.66 14.365 158.66 14.072H157.66ZM157.169 15.236C156.471 15.236 155.773 15.2201 155.068 15.2041C154.365 15.1881 153.655 15.172 152.945 15.172V16.172C153.642 16.172 154.34 16.1878 155.045 16.2039C155.748 16.2198 156.458 16.236 157.169 16.236V15.236ZM152.945 15.172H146.193V16.172H152.945V15.172ZM146.193 15.172C145.466 15.172 144.748 15.1881 144.041 15.2041C143.332 15.2201 142.634 15.236 141.937 15.236V16.236C142.647 16.236 143.357 16.2198 144.064 16.2039C144.773 16.1879 145.479 16.172 146.193 16.172V15.172ZM141.937 15.236C141.744 15.236 141.646 15.2124 141.599 15.1925C141.57 15.1799 141.559 15.17 141.545 15.1425C141.521 15.0984 141.49 15.0087 141.47 14.8299C141.451 14.654 141.445 14.4298 141.445 14.136H140.445C140.445 14.4342 140.45 14.706 140.477 14.9411C140.503 15.1733 140.552 15.4096 140.664 15.6175C140.786 15.842 140.967 16.0101 141.208 16.1125C141.431 16.2076 141.681 16.236 141.937 16.236V15.236ZM141.445 14.136V12.536H140.445V14.136H141.445ZM141.445 12.536C141.445 12.2421 141.451 12.0166 141.471 11.8387C141.492 11.6583 141.524 11.5657 141.55 11.5182C141.567 11.4868 141.583 11.4706 141.624 11.4535C141.681 11.4295 141.792 11.404 142.001 11.404V10.404C141.729 10.404 141.468 10.4345 141.237 10.5315C140.99 10.6354 140.802 10.8052 140.675 11.0337C140.557 11.2463 140.505 11.4877 140.478 11.7243C140.45 11.9634 140.445 12.2379 140.445 12.536H141.445ZM142.001 11.404C142.39 11.404 143.017 11.4275 143.768 11.4517C144.513 11.4758 145.368 11.5 146.193 11.5V10.5C145.385 10.5 144.544 10.4762 143.801 10.4523C143.064 10.4285 142.411 10.404 142.001 10.404V11.404ZM142.097 19.596H161.008V18.596H142.097V19.596ZM161.044 19.5947C161.497 19.5624 161.894 19.532 162.321 19.532V18.532C161.851 18.532 161.416 18.5656 160.973 18.5973L161.044 19.5947ZM162.321 19.532C162.508 19.532 162.598 19.5543 162.638 19.5715C162.658 19.5803 162.666 19.5851 162.68 19.6131C162.704 19.6598 162.735 19.7557 162.755 19.9478C162.774 20.1361 162.781 20.3779 162.781 20.696H163.781C163.781 20.3741 163.775 20.0879 163.749 19.8442C163.724 19.6043 163.677 19.3642 163.569 19.1549C163.451 18.9269 163.273 18.7557 163.032 18.6525C162.811 18.5577 162.565 18.532 162.321 18.532V19.532ZM162.781 20.696V22.168H163.781V20.696H162.781ZM162.781 22.168C162.781 22.5021 162.767 22.7517 162.739 22.9394C162.71 23.1295 162.671 23.2237 162.643 23.2688C162.628 23.2944 162.603 23.364 162.257 23.364V24.364C162.71 24.364 163.197 24.2736 163.494 23.7952C163.622 23.5883 163.689 23.3445 163.727 23.0876C163.766 22.8283 163.781 22.5219 163.781 22.168H162.781ZM162.257 23.364C161.527 23.364 160.796 23.3481 160.059 23.3321C159.324 23.3161 158.583 23.3 157.84 23.3V24.3C158.57 24.3 159.301 24.3159 160.038 24.3319C160.773 24.3479 161.514 24.364 162.257 24.364V23.364ZM157.84 23.3H154.417V24.3H157.84V23.3ZM154.417 23.3C154.132 23.3 153.878 23.3638 153.66 23.4924C153.443 23.6203 153.291 23.7955 153.183 23.9758C152.981 24.3149 152.913 24.7221 152.869 24.9559L153.852 25.1401C153.904 24.8619 153.948 24.6451 154.042 24.4882C154.082 24.4205 154.124 24.3797 154.168 24.3536C154.211 24.3282 154.285 24.3 154.417 24.3V23.3ZM152.869 24.9541C152.181 28.5517 150.663 31.6457 147.637 33.7239L148.204 34.5481C151.514 32.2743 153.132 28.9043 153.852 25.1419L152.869 24.9541ZM147.633 33.7271C147.226 34.0135 146.247 34.6019 145.247 35.12C144.748 35.3781 144.255 35.6132 143.833 35.7824C143.387 35.9614 143.093 36.036 142.961 36.036V37.036C143.308 37.036 143.766 36.8866 144.205 36.7106C144.668 36.5248 145.193 36.2739 145.706 36.008C146.73 35.4781 147.751 34.8665 148.208 34.5449L147.633 33.7271ZM142.961 36.036C142.971 36.036 142.919 36.0347 142.786 35.9611C142.664 35.8937 142.515 35.7882 142.343 35.646C142.001 35.3624 141.614 34.9681 141.246 34.5445C140.88 34.1219 140.545 33.6835 140.305 33.3183C140.184 33.135 140.093 32.9784 140.034 32.857C139.964 32.7124 139.973 32.6836 139.973 32.728H138.973C138.973 32.9324 139.061 33.1426 139.135 33.2938C139.219 33.4681 139.335 33.664 139.469 33.8677C139.738 34.2765 140.101 34.7501 140.491 35.1995C140.879 35.6479 141.306 36.0856 141.705 36.416C141.904 36.5808 142.106 36.7278 142.302 36.8361C142.487 36.9383 142.718 37.036 142.961 37.036V36.036ZM139.973 32.728C139.973 32.7783 139.95 32.8226 139.932 32.844C139.923 32.8547 139.932 32.8399 139.992 32.8092C140.121 32.7435 140.315 32.6851 140.606 32.5997L140.323 31.6403C140.07 31.7149 139.768 31.8005 139.537 31.9188C139.31 32.0345 138.973 32.2751 138.973 32.728H139.973ZM140.599 32.6016C142.571 32.0521 144.232 31.4065 145.563 30.3519C146.907 29.2869 147.878 27.8349 148.526 25.7398L147.571 25.4442C146.971 27.3811 146.102 28.6491 144.942 29.5681C143.769 30.4975 142.262 31.0999 140.33 31.6384L140.599 32.6016ZM148.534 25.7133C148.564 25.5911 148.622 25.3663 148.672 25.1524C148.696 25.045 148.72 24.9344 148.738 24.8354C148.755 24.7465 148.772 24.6333 148.772 24.536H147.772C147.772 24.5347 147.77 24.5695 147.755 24.6566C147.741 24.7336 147.721 24.827 147.697 24.9276C147.651 25.1297 147.597 25.3369 147.563 25.4707L148.534 25.7133ZM148.772 24.536C148.772 24.2114 148.659 23.8984 148.431 23.6639C148.202 23.4271 147.885 23.3 147.536 23.3V24.3C147.636 24.3 147.687 24.3329 147.714 24.3601C147.742 24.3896 147.772 24.4446 147.772 24.536H148.772ZM147.536 23.3H142.097V24.3H147.536V23.3ZM142.097 23.3C141.415 23.3 140.686 23.3243 139.972 23.3483C139.254 23.3723 138.551 23.396 137.905 23.396V24.396C138.57 24.396 139.291 24.3717 140.005 24.3477C140.723 24.3237 141.434 24.3 142.097 24.3V23.3ZM137.905 23.396C137.625 23.396 137.568 23.3224 137.539 23.278C137.473 23.1779 137.412 22.957 137.412 22.488H136.412C136.412 22.979 136.464 23.4621 136.702 23.826C136.977 24.2456 137.416 24.396 137.905 24.396V23.396ZM137.412 22.488V20.344H136.412V22.488H137.412ZM137.412 20.344C137.412 20.059 137.426 19.8612 137.451 19.7226C137.476 19.5831 137.506 19.5417 137.509 19.5373C137.51 19.5364 137.51 19.5368 137.509 19.5377C137.508 19.5387 137.507 19.5391 137.507 19.5389C137.508 19.5386 137.517 19.5331 137.542 19.5263C137.6 19.5107 137.698 19.5 137.872 19.5V18.5C137.518 18.5 137.036 18.5222 136.724 18.9187C136.579 19.1023 136.507 19.3229 136.467 19.5464C136.427 19.7708 136.412 20.037 136.412 20.344H137.412ZM137.872 19.5C138.326 19.5 139.019 19.5236 139.789 19.5478C140.552 19.5717 141.383 19.596 142.097 19.596V18.596C141.402 18.596 140.585 18.5723 139.82 18.5482C139.062 18.5244 138.347 18.5 137.872 18.5V19.5ZM160.721 11.852C160.628 11.852 160.565 11.8241 160.554 11.8197C160.535 11.8115 160.526 11.8053 160.531 11.808C160.539 11.8132 160.562 11.8292 160.603 11.8625C160.683 11.9273 160.795 12.0281 160.931 12.1599C161.203 12.4215 161.546 12.7804 161.884 13.1576C162.223 13.5355 162.548 13.9231 162.785 14.2425C162.905 14.4031 162.995 14.5372 163.054 14.6387C163.083 14.6896 163.099 14.7235 163.106 14.7421C163.117 14.7692 163.101 14.7411 163.101 14.68H164.101C164.101 14.5549 164.064 14.4448 164.036 14.3744C164.005 14.2955 163.964 14.2164 163.921 14.1413C163.835 13.9908 163.718 13.8209 163.588 13.6455C163.325 13.2929 162.978 12.8805 162.629 12.4904C162.279 12.0996 161.918 11.7225 161.626 11.4401C161.48 11.2999 161.345 11.1767 161.233 11.0855C161.177 11.0408 161.118 10.9958 161.06 10.9595C161.031 10.9414 160.992 10.9194 160.948 10.9005C160.913 10.8854 160.829 10.852 160.721 10.852V11.852ZM163.101 14.68C163.101 14.6517 163.101 14.721 162.952 14.8993C162.823 15.0544 162.635 15.2259 162.425 15.3895C162.217 15.5516 162.002 15.6941 161.827 15.7936C161.74 15.8436 161.669 15.8788 161.62 15.8997C161.547 15.9306 161.573 15.908 161.648 15.908V16.908C161.796 16.908 161.937 16.8514 162.01 16.8203C162.107 16.7792 162.214 16.7244 162.323 16.6624C162.541 16.5379 162.796 16.3684 163.04 16.1785C163.282 15.9901 163.528 15.7696 163.72 15.5407C163.892 15.335 164.101 15.0283 164.101 14.68H163.101ZM161.648 15.908C161.719 15.908 161.77 15.9245 161.793 15.9327C161.818 15.942 161.834 15.951 161.838 15.9539C161.848 15.9593 161.842 15.957 161.821 15.9383C161.78 15.9021 161.714 15.8328 161.632 15.724L160.833 16.324C160.943 16.4712 161.053 16.5939 161.156 16.6857C161.207 16.731 161.265 16.7767 161.329 16.8141C161.374 16.8413 161.493 16.908 161.648 16.908V15.908ZM161.621 15.7094C161.082 15.0438 160.201 13.9329 159.25 12.9824L158.543 13.6896C159.448 14.5951 160.295 15.6602 160.844 16.3386L161.621 15.7094ZM159.25 12.9824C159.217 12.9491 159.192 12.9242 159.17 12.9004C159.148 12.877 159.136 12.8615 159.129 12.8517C159.115 12.8312 159.141 12.8594 159.141 12.92H158.141C158.141 13.1406 158.23 13.3128 158.312 13.4283C158.389 13.5378 158.486 13.6326 158.543 13.6896L159.25 12.9824ZM159.141 12.92C159.141 12.9965 159.112 13.0225 159.139 12.9791C159.16 12.9447 159.201 12.8914 159.27 12.8213C159.405 12.6818 159.603 12.5208 159.824 12.365C160.044 12.2104 160.272 12.0718 160.462 11.9742C160.557 11.9252 160.636 11.8902 160.694 11.8687C160.766 11.8421 160.765 11.852 160.721 11.852V10.852C160.58 10.852 160.442 10.8959 160.348 10.9306C160.24 10.9705 160.123 11.0243 160.005 11.0848C159.769 11.2062 159.501 11.3696 159.249 11.547C158.998 11.7232 158.748 11.9242 158.553 12.1237C158.457 12.2231 158.363 12.3336 158.29 12.4505C158.222 12.5585 158.141 12.7235 158.141 12.92H159.141ZM163.344 8.748C163.235 8.748 163.172 8.70528 163.201 8.72079C163.21 8.7257 163.235 8.74066 163.278 8.77218C163.363 8.83418 163.479 8.9315 163.621 9.06074C163.903 9.31721 164.254 9.67017 164.597 10.0427C164.94 10.4156 165.268 10.7987 165.506 11.1143C165.626 11.2732 165.716 11.4057 165.774 11.5059C165.803 11.5561 165.819 11.5894 165.826 11.6075C165.837 11.6338 165.821 11.6054 165.821 11.544H166.821C166.821 11.4186 166.784 11.3085 166.756 11.2378C166.724 11.1588 166.683 11.0797 166.64 11.0049C166.553 10.8548 166.436 10.6858 166.304 10.5117C166.039 10.1613 165.689 9.75239 165.332 9.36526C164.975 8.97783 164.604 8.60279 164.295 8.32126C164.141 8.1815 163.995 8.05732 163.869 7.96506C163.806 7.91946 163.739 7.87412 163.671 7.83799C163.623 7.81247 163.498 7.748 163.344 7.748V8.748ZM165.821 11.544C165.821 11.511 165.829 11.5145 165.805 11.5655C165.782 11.6121 165.742 11.6757 165.68 11.7542C165.558 11.9113 165.38 12.0891 165.18 12.2594C164.981 12.4287 164.775 12.5783 164.603 12.6824C164.517 12.7347 164.447 12.7707 164.398 12.7919C164.334 12.8191 164.344 12.804 164.401 12.804V13.804C164.553 13.804 164.695 13.7519 164.789 13.7121C164.897 13.6663 165.01 13.6053 165.122 13.5376C165.346 13.4017 165.596 13.2193 165.829 13.0206C166.061 12.8229 166.291 12.5967 166.469 12.3698C166.557 12.2563 166.64 12.1329 166.703 12.0045C166.764 11.8805 166.821 11.721 166.821 11.544H165.821ZM164.401 12.804C164.461 12.804 164.5 12.8219 164.51 12.8271C164.52 12.8322 164.516 12.8322 164.501 12.8183C164.486 12.8053 164.468 12.7865 164.446 12.7617C164.425 12.7374 164.405 12.711 164.385 12.684L163.585 13.284C163.637 13.3542 163.726 13.4672 163.836 13.5657C163.932 13.6512 164.131 13.804 164.401 13.804V12.804ZM164.381 12.6798C163.63 11.7 162.815 10.7876 161.938 9.91044L161.231 10.6176C162.082 11.4684 162.867 12.348 163.588 13.2882L164.381 12.6798ZM161.938 9.91044C161.924 9.896 161.909 9.87997 161.895 9.86336C161.881 9.84656 161.871 9.83157 161.863 9.81927C161.855 9.80661 161.854 9.80126 161.854 9.80344C161.855 9.80576 161.861 9.82152 161.861 9.848H160.861C160.861 10.0565 160.941 10.2287 161.01 10.3407C161.081 10.4576 161.166 10.5527 161.231 10.6176L161.938 9.91044ZM161.861 9.848C161.861 9.92359 161.832 9.94842 161.86 9.90277C161.882 9.86658 161.925 9.81157 161.993 9.73946C162.129 9.59616 162.324 9.43068 162.542 9.27009C162.757 9.11088 162.979 8.96736 163.159 8.86602C163.249 8.81502 163.322 8.77879 163.373 8.75692C163.449 8.72453 163.422 8.748 163.344 8.748V7.748C163.195 7.748 163.052 7.80647 162.98 7.83721C162.884 7.87845 162.776 7.93348 162.667 7.99497C162.448 8.11864 162.192 8.28511 161.947 8.46591C161.705 8.64532 161.458 8.84984 161.267 9.05154C161.172 9.15193 161.079 9.26317 161.008 9.38011C160.942 9.48757 160.861 9.6524 160.861 9.848H161.861ZM180.063 26.872L179.777 26.4624L179.77 26.4671L179.763 26.472L180.063 26.872ZM173.632 25.688L173.817 26.1524L173.827 26.148L173.632 25.688ZM186.271 15.288L185.85 15.0196L185.849 15.0211L186.271 15.288ZM190.208 16.76L189.897 17.152L189.901 17.1547L190.208 16.76ZM190.271 17.88L190.201 17.385L190.172 17.3891L190.144 17.3965L190.271 17.88ZM189.119 18.648L189.507 18.9646L189.51 18.9603L189.119 18.648ZM186.368 21.656L186.713 22.0173L186.715 22.0155L186.368 21.656ZM185.004 23.608V35.608H186.004V23.608H185.004ZM185.004 35.608C185.004 35.7636 184.972 35.8406 184.95 35.8769C184.93 35.9104 184.898 35.9418 184.835 35.9716C184.678 36.0455 184.427 36.068 184.063 36.068V37.068C184.404 37.068 184.873 37.0585 185.26 36.8764C185.469 36.7782 185.665 36.6256 185.805 36.3952C185.943 36.1674 186.004 35.9004 186.004 35.608H185.004ZM184.063 36.068H182.752V37.068H184.063V36.068ZM182.752 36.068C182.404 36.068 182.166 36.0557 181.999 36.0281C181.83 36.0004 181.787 35.9653 181.783 35.9619C181.782 35.9615 181.78 35.9602 181.775 35.9506C181.769 35.9385 181.758 35.9119 181.747 35.8605C181.725 35.7487 181.715 35.5844 181.715 35.32H180.715C180.715 35.5836 180.722 35.8393 180.768 36.0605C180.815 36.2941 180.914 36.5326 181.128 36.7181C181.332 36.8947 181.585 36.9736 181.836 37.0149C182.089 37.0563 182.395 37.068 182.752 37.068V36.068ZM181.715 35.32C181.715 34.8335 181.731 34.3537 181.747 33.8644C181.763 33.3777 181.78 32.8815 181.78 32.376H180.78C180.78 32.8625 180.764 33.3423 180.748 33.8316C180.732 34.3183 180.715 34.8145 180.715 35.32H181.715ZM181.78 32.376V26.904H180.78V32.376H181.78ZM181.78 26.904C181.78 26.704 181.723 26.4731 181.568 26.2814C181.401 26.0753 181.152 25.956 180.864 25.956V26.956C180.869 26.956 180.858 26.9568 180.839 26.9476C180.819 26.9383 180.802 26.9244 180.791 26.9106C180.786 26.9042 180.782 26.8989 180.781 26.8952C180.779 26.8916 180.778 26.8895 180.778 26.8894C180.778 26.8893 180.778 26.8906 180.779 26.8933C180.779 26.8961 180.78 26.8997 180.78 26.904H181.78ZM180.864 25.956C180.617 25.956 180.403 26.0587 180.25 26.1467C180.093 26.2369 179.925 26.3589 179.777 26.4624L180.35 27.2816C180.522 27.1611 180.642 27.0751 180.749 27.0133C180.86 26.9493 180.886 26.956 180.864 26.956V25.956ZM179.763 26.472C179.459 26.7007 178.527 27.3406 177.594 27.9241C177.129 28.2154 176.671 28.4871 176.298 28.6843C176.11 28.7832 175.952 28.859 175.829 28.9088C175.685 28.9668 175.649 28.964 175.68 28.964V29.964C175.862 29.964 176.057 29.8952 176.204 29.8359C176.371 29.7683 176.562 29.6753 176.764 29.5687C177.17 29.3549 177.65 29.0686 178.125 28.7719C179.072 28.1794 180.028 27.5233 180.364 27.272L179.763 26.472ZM175.68 28.964C175.723 28.964 175.705 28.975 175.594 28.9184C175.5 28.8701 175.378 28.7934 175.234 28.6885C174.948 28.4796 174.611 28.1864 174.288 27.8654C173.965 27.5441 173.668 27.2076 173.456 26.9157C173.35 26.7693 173.272 26.6439 173.223 26.5443C173.168 26.433 173.172 26.4 173.172 26.424H172.172C172.172 26.632 172.249 26.832 172.326 26.9876C172.409 27.1549 172.521 27.3302 172.647 27.5033C172.899 27.8504 173.234 28.2279 173.583 28.5746C173.932 28.9216 174.307 29.2504 174.645 29.4965C174.813 29.6191 174.981 29.7281 175.139 29.8087C175.28 29.881 175.476 29.964 175.68 29.964V28.964ZM173.172 26.424C173.172 26.4344 173.167 26.4568 173.156 26.475C173.149 26.4861 173.152 26.4737 173.198 26.4416C173.303 26.3685 173.487 26.2844 173.817 26.1522L173.446 25.2238C173.136 25.3476 172.84 25.4715 172.625 25.6224C172.383 25.7916 172.172 26.0463 172.172 26.424H173.172ZM173.827 26.148C178.865 24.0029 183.784 20.1662 186.694 15.5549L185.849 15.0211C183.063 19.4338 178.318 23.1491 173.436 25.228L173.827 26.148ZM186.693 15.5564C186.751 15.4661 186.798 15.3915 186.843 15.3257C186.888 15.2599 186.922 15.2149 186.949 15.1842C187.011 15.115 186.981 15.18 186.88 15.18V14.18C186.554 14.18 186.332 14.373 186.202 14.5198C186.073 14.6648 185.953 14.8574 185.85 15.0196L186.693 15.5564ZM186.88 15.18C186.839 15.18 186.849 15.1714 186.944 15.2091C187.024 15.2407 187.129 15.2909 187.257 15.3599C187.513 15.4975 187.828 15.6915 188.161 15.9099C188.826 16.3464 189.525 16.8578 189.897 17.152L190.518 16.368C190.122 16.0542 189.397 15.5256 188.71 15.0741C188.367 14.8485 188.024 14.6365 187.731 14.4791C187.585 14.4006 187.442 14.331 187.313 14.2798C187.2 14.2346 187.04 14.18 186.88 14.18V15.18ZM189.901 17.1547C190.015 17.2438 190.107 17.3384 190.165 17.4198C190.232 17.5129 190.219 17.537 190.219 17.496H191.219C191.219 17.231 191.095 16.9991 190.978 16.8362C190.852 16.6616 190.688 16.5002 190.514 16.3653L189.901 17.1547ZM190.219 17.496C190.219 17.4844 190.223 17.4558 190.241 17.4224C190.258 17.3904 190.279 17.3722 190.289 17.3651C190.297 17.3592 190.296 17.3622 190.278 17.3682C190.26 17.374 190.235 17.3802 190.201 17.385L190.342 18.375C190.488 18.3541 190.692 18.3062 190.87 18.1789C191.074 18.0333 191.219 17.7992 191.219 17.496H190.219ZM190.144 17.3965C189.825 17.4806 189.566 17.5699 189.33 17.7311C189.098 17.8892 188.922 18.0945 188.729 18.3357L189.51 18.9603C189.701 18.7215 189.797 18.6228 189.893 18.5569C189.985 18.4941 190.11 18.4394 190.399 18.3635L190.144 17.3965ZM188.733 18.3314C187.879 19.3746 186.964 20.3839 186.02 21.2965L186.715 22.0155C187.691 21.0721 188.632 20.0334 189.506 18.9646L188.733 18.3314ZM186.022 21.2947C185.671 21.6304 185.378 21.9111 185.207 22.2754C185.031 22.6499 185.004 23.0634 185.004 23.608H186.004C186.004 23.0646 186.04 22.8541 186.112 22.7006C186.189 22.5369 186.328 22.3856 186.713 22.0173L186.022 21.2947ZM208.287 20.364H223.007V19.364H208.287V20.364ZM223.007 20.364C223.962 20.364 224.953 20.3317 225.74 20.2996C226.545 20.2667 227.101 20.236 227.231 20.236V19.236C227.074 19.236 226.462 19.2693 225.699 19.3004C224.918 19.3323 223.941 19.364 223.007 19.364V20.364ZM227.231 20.236C227.41 20.236 227.508 20.2558 227.56 20.2747C227.598 20.2889 227.603 20.299 227.607 20.3053C227.619 20.3231 227.645 20.3744 227.664 20.5001C227.683 20.6253 227.691 20.7909 227.691 21.016H228.691C228.691 20.7771 228.684 20.5507 228.653 20.3489C228.622 20.1476 228.564 19.9369 228.44 19.7506C228.16 19.3319 227.697 19.236 227.231 19.236V20.236ZM227.691 21.016V22.552H228.691V21.016H227.691ZM227.691 22.552C227.691 22.9949 227.689 23.3428 227.672 23.6227C227.653 23.9076 227.621 24.0796 227.58 24.1856C227.547 24.2734 227.518 24.2911 227.497 24.3024C227.455 24.3246 227.357 24.356 227.135 24.356V25.356C227.426 25.356 227.716 25.3194 227.968 25.1846C228.241 25.0389 228.412 24.8106 228.515 24.5424C228.61 24.2924 228.65 23.9984 228.669 23.6863C228.69 23.3692 228.691 22.9891 228.691 22.552H227.691ZM227.135 24.356C226.522 24.356 225.851 24.3324 225.149 24.3083C224.45 24.2843 223.721 24.26 223.007 24.26V25.26C223.702 25.26 224.413 25.2837 225.114 25.3077C225.812 25.3316 226.501 25.356 227.135 25.356V24.356ZM223.007 24.26H208.287V25.26H223.007V24.26ZM208.287 24.26C207.574 24.26 206.837 24.2843 206.138 24.3083C205.435 24.3324 204.773 24.356 204.191 24.356V25.356C204.794 25.356 205.476 25.3316 206.173 25.3077C206.874 25.2837 207.593 25.26 208.287 25.26V24.26ZM204.191 24.356C203.957 24.356 203.849 24.3214 203.802 24.2956C203.774 24.2803 203.742 24.257 203.708 24.165C203.667 24.0552 203.636 23.8812 203.62 23.5988C203.604 23.3208 203.603 22.981 203.603 22.552H202.603C202.603 22.971 202.603 23.3432 202.621 23.6562C202.639 23.9648 202.676 24.2608 202.771 24.515C202.873 24.787 203.045 25.0217 203.323 25.1734C203.582 25.3146 203.882 25.356 204.191 25.356V24.356ZM203.603 22.552V21.08H202.603V22.552H203.603ZM203.603 21.08C203.603 20.8437 203.61 20.6664 203.627 20.5288C203.645 20.3896 203.671 20.3278 203.686 20.3029C203.692 20.2921 203.695 20.2857 203.723 20.2745C203.765 20.2573 203.855 20.236 204.031 20.236V19.236C203.553 19.236 203.089 19.3477 202.825 19.7931C202.712 19.9842 202.662 20.1984 202.636 20.4012C202.609 20.6056 202.603 20.8363 202.603 21.08H203.603ZM204.031 20.236C204.242 20.236 204.776 20.2668 205.55 20.2996C206.31 20.3317 207.27 20.364 208.287 20.364V19.364C207.289 19.364 206.345 19.3323 205.593 19.3004C204.855 19.2692 204.269 19.236 204.031 19.236V20.236ZM244.064 10.04L244.126 10.5361L244.127 10.5359L244.064 10.04ZM247.808 12.248L247.31 12.2945L247.31 12.2947L247.808 12.248ZM248.352 16.12L248.837 15.9987L248.836 15.9945L248.352 16.12ZM253.248 14.84L253.502 15.2705L253.505 15.2687L253.248 14.84ZM257.248 15.288L256.82 15.548L256.821 15.5487L257.248 15.288ZM257.536 18.744L257.377 18.2697L257.344 18.2809L257.312 18.2968L257.536 18.744ZM257.088 18.904L257.249 19.3773L257.261 19.3731L257.273 19.3682L257.088 18.904ZM247.008 23.96L247.273 24.384L247.274 24.3833L247.008 23.96ZM253.664 29.912L253.726 30.4082L253.734 30.407L253.664 29.912ZM257.056 29.304V28.804H256.979L256.906 28.8268L257.056 29.304ZM257.824 30.072L258.321 30.0205L258.32 30.01L257.824 30.072ZM257.088 34.456L257.214 34.9398L257.217 34.9388L257.088 34.456ZM241.344 33.56L241.092 33.9924L241.095 33.9941L241.344 33.56ZM242.944 20.632L242.686 20.2033L242.679 20.2075L242.672 20.2119L242.944 20.632ZM243.52 18.872L243.04 19.014L243.043 19.0221L243.045 19.0301L243.52 18.872ZM242.816 16.184L242.328 16.2935L242.329 16.3013L242.816 16.184ZM241.472 11.288L240.997 11.4461L240.999 11.4519L241.472 11.288ZM241.876 10.904C241.876 10.8975 241.876 10.9112 241.868 10.9346C241.859 10.9604 241.845 10.9798 241.836 10.9902C241.825 11.0012 241.855 10.965 242.018 10.9088C242.345 10.7964 242.966 10.6811 244.126 10.5361L244.001 9.54386C242.857 9.68693 242.134 9.81163 241.693 9.96316C241.472 10.039 241.262 10.1408 241.107 10.3048C240.93 10.4933 240.876 10.7098 240.876 10.904H241.876ZM244.127 10.5359C245.391 10.374 246.088 10.284 246.656 10.284V9.284C246.008 9.284 245.232 9.38604 244 9.54406L244.127 10.5359ZM246.656 10.284C246.89 10.284 246.971 10.2927 247.011 10.306C247.018 10.3083 247.01 10.3064 247.002 10.2986C246.995 10.2926 247.004 10.2971 247.021 10.3327C247.062 10.4178 247.11 10.5862 247.16 10.9239C247.209 11.2519 247.254 11.6926 247.31 12.2945L248.305 12.2015C248.25 11.6034 248.202 11.1361 248.149 10.7771C248.097 10.4278 248.033 10.1302 247.922 9.89926C247.795 9.63446 247.601 9.44823 247.326 9.35698C247.104 9.28332 246.853 9.284 246.656 9.284V10.284ZM247.31 12.2947C247.501 14.3405 247.632 15.3378 247.868 16.2455L248.836 15.9945C248.623 15.1742 248.498 14.2515 248.305 12.2013L247.31 12.2947ZM247.866 16.2413C247.916 16.4387 247.997 16.7255 248.166 16.9667C248.354 17.2354 248.656 17.452 249.088 17.452V16.452C249.049 16.452 249.036 16.4441 249.032 16.4419C249.025 16.4381 249.009 16.4267 248.985 16.3933C248.93 16.3145 248.883 16.1853 248.837 15.9987L247.866 16.2413ZM249.088 17.452C249.252 17.452 249.431 17.4006 249.574 17.3512C249.733 17.2967 249.913 17.2217 250.102 17.1356C250.481 16.9629 250.928 16.7315 251.37 16.4913C252.256 16.0103 253.151 15.4776 253.502 15.2705L252.993 14.4095C252.64 14.6184 251.759 15.1417 250.893 15.6127C250.459 15.8485 250.036 16.0671 249.688 16.2254C249.514 16.3048 249.366 16.3655 249.25 16.4054C249.118 16.4504 249.075 16.452 249.088 16.452V17.452ZM253.505 15.2687C253.747 15.1232 254.266 14.8089 254.775 14.5308C255.03 14.3914 255.275 14.2658 255.476 14.1763C255.577 14.1314 255.659 14.0991 255.721 14.0788C255.794 14.0551 255.804 14.06 255.776 14.06V13.06C255.643 13.06 255.511 13.0959 255.413 13.1276C255.305 13.1627 255.187 13.2101 255.069 13.2627C254.832 13.3682 254.561 13.5086 254.296 13.6532C253.765 13.943 253.228 14.2688 252.99 14.4113L253.505 15.2687ZM255.776 14.06C255.706 14.06 255.671 14.0373 255.684 14.0441C255.693 14.049 255.719 14.0654 255.762 14.1029C255.848 14.1781 255.957 14.2979 256.083 14.4575C256.332 14.7739 256.6 15.1858 256.82 15.548L257.675 15.028C257.447 14.6542 257.155 14.2021 256.868 13.8385C256.726 13.6581 256.573 13.4839 256.42 13.3501C256.344 13.2831 256.256 13.2162 256.159 13.164C256.066 13.1137 255.933 13.06 255.776 13.06V14.06ZM256.821 15.5487C256.998 15.8379 257.318 16.3609 257.593 16.8847C257.731 17.147 257.853 17.4003 257.939 17.6184C258.032 17.8531 258.06 17.9895 258.06 18.04H259.06C259.06 17.7865 258.967 17.4989 258.869 17.2506C258.764 16.9857 258.624 16.697 258.478 16.4193C258.186 15.8631 257.849 15.3141 257.674 15.0273L256.821 15.5487ZM258.06 18.04C258.06 18.0419 258.059 18.0349 258.063 18.0226C258.067 18.0097 258.072 17.9979 258.078 17.9889C258.089 17.9727 258.089 17.9828 258.041 18.0121C257.927 18.0809 257.733 18.1513 257.377 18.2697L257.694 19.2183C258.01 19.1127 258.328 19.0071 258.558 18.8679C258.682 18.7932 258.812 18.6912 258.91 18.5451C259.013 18.391 259.06 18.2185 259.06 18.04H258.06ZM257.312 18.2968C257.287 18.3091 257.25 18.3229 257.173 18.3472C257.107 18.3682 257.004 18.399 256.902 18.4398L257.273 19.3682C257.331 19.345 257.388 19.3278 257.474 19.3008C257.549 19.2771 257.656 19.2429 257.759 19.1912L257.312 18.2968ZM256.926 18.4307C253.964 19.4399 249.863 21.5736 246.741 23.5367L247.274 24.3833C250.36 22.4424 254.387 20.3521 257.249 19.3773L256.926 18.4307ZM246.743 23.536C245.977 24.0144 245.003 24.6368 244.22 25.3609C243.453 26.0704 242.764 26.9727 242.764 28.024H243.764C243.764 27.4113 244.178 26.7616 244.899 26.0951C245.604 25.4432 246.502 24.8656 247.273 24.384L246.743 23.536ZM242.764 28.024C242.764 28.748 243.118 29.288 243.622 29.6642C244.108 30.0268 244.741 30.2474 245.371 30.388C246.633 30.6698 248.071 30.668 248.8 30.668V29.668C248.056 29.668 246.726 29.6662 245.589 29.412C245.018 29.2846 244.543 29.1032 244.221 28.8628C243.917 28.636 243.764 28.372 243.764 28.024H242.764ZM248.8 30.668C250.442 30.668 252.161 30.6037 253.726 30.4081L253.602 29.4159C252.094 29.6043 250.421 29.668 248.8 29.668V30.668ZM253.734 30.407C254.076 30.3582 254.8 30.2455 255.504 30.1248C256.19 30.0073 256.909 29.8736 257.205 29.7812L256.906 28.8268C256.69 28.8944 256.049 29.0167 255.335 29.1392C254.639 29.2585 253.923 29.3698 253.593 29.417L253.734 30.407ZM257.056 29.804C257.146 29.804 257.24 29.7895 257.286 29.783C257.316 29.7788 257.336 29.7759 257.354 29.7739C257.372 29.7719 257.377 29.772 257.376 29.772V28.772C257.285 28.772 257.191 28.7865 257.145 28.793C257.115 28.7972 257.095 28.8001 257.077 28.8021C257.059 28.804 257.054 28.804 257.056 28.804V29.804ZM257.376 29.772C257.296 29.772 257.24 29.7326 257.221 29.7129C257.211 29.7025 257.223 29.7114 257.244 29.7636C257.286 29.8681 257.312 30.014 257.327 30.134L258.32 30.01C258.303 29.874 258.265 29.6199 258.171 29.3884C258.094 29.1987 257.873 28.772 257.376 28.772V29.772ZM257.326 30.1234C257.42 31.0277 257.452 32.0649 257.452 32.984H258.452C258.452 32.0471 258.419 30.9723 258.321 30.0205L257.326 30.1234ZM257.452 32.984C257.452 33.2272 257.449 33.4016 257.436 33.5394C257.423 33.6762 257.401 33.7387 257.386 33.7692C257.375 33.7902 257.343 33.8693 256.958 33.9732L257.217 34.9388C257.664 34.8187 258.064 34.6418 258.277 34.2228C258.374 34.0333 258.412 33.8298 258.431 33.6356C258.45 33.4424 258.452 33.2208 258.452 32.984H257.452ZM256.961 33.9722C256.638 34.0566 256.053 34.136 255.298 34.2051C254.555 34.2732 253.677 34.3288 252.787 34.3726C251.006 34.4603 249.19 34.5 248.32 34.5V35.5C249.209 35.5 251.041 35.4597 252.836 35.3714C253.734 35.3272 254.626 35.2708 255.39 35.2009C256.142 35.132 256.801 35.0474 257.214 34.9398L256.961 33.9722ZM248.32 34.5C245.809 34.5 243.712 34.3378 241.592 33.1259L241.095 33.9941C243.455 35.3422 245.774 35.5 248.32 35.5V34.5ZM241.595 33.1276C239.758 32.061 238.644 30.2058 238.644 28.088H237.644C237.644 30.5782 238.961 32.755 241.092 33.9924L241.595 33.1276ZM238.644 28.088C238.644 25.1656 240.751 22.6425 243.215 21.0521L242.672 20.2119C240.08 21.8855 237.644 24.6744 237.644 28.088H238.644ZM243.201 21.0607C243.415 20.9324 243.683 20.78 243.876 20.5699C244.105 20.3204 244.212 20.0179 244.212 19.64H243.212C243.212 19.8061 243.174 19.8556 243.139 19.8941C243.068 19.972 242.952 20.0436 242.686 20.2033L243.201 21.0607ZM244.212 19.64C244.212 19.4611 244.174 19.2902 244.133 19.1446C244.093 19.0014 244.038 18.8456 243.994 18.7139L243.045 19.0301C243.097 19.1864 243.138 19.3026 243.17 19.4154C243.201 19.5258 243.212 19.5949 243.212 19.64H244.212ZM243.999 18.73C243.747 17.8789 243.525 16.9933 243.302 16.0667L242.329 16.3013C242.554 17.2307 242.78 18.1371 243.04 19.014L243.999 18.73ZM243.303 16.0745C242.95 14.4986 242.497 12.7179 241.944 11.1241L240.999 11.4519C241.534 12.9941 241.977 14.7334 242.328 16.2935L243.303 16.0745ZM241.946 11.1299C241.93 11.0808 241.909 11.0202 241.893 10.9622C241.885 10.9334 241.88 10.9106 241.877 10.8944C241.873 10.8738 241.876 10.8804 241.876 10.904H240.876C240.876 11.0283 240.911 11.1608 240.93 11.2298C240.954 11.3158 240.982 11.3992 240.997 11.4461L241.946 11.1299ZM271.296 13.72L270.814 13.5846L270.813 13.5892L271.296 13.72ZM272.128 10.84L272.614 10.9578L272.616 10.9485L272.128 10.84ZM277.728 13.112L277.907 13.5787L277.913 13.5762L277.728 13.112ZM276.256 14.744L275.808 14.5204L275.807 14.5227L276.256 14.744ZM275.104 25.24L275.551 25.4636L275.558 25.4482L275.565 25.4323L275.104 25.24ZM276.288 33.176L275.789 33.2175L275.791 33.238L275.794 33.2582L276.288 33.176ZM274.624 35.384L274.803 35.8508L274.813 35.8468L274.624 35.384ZM271.776 34.584L271.324 34.7987L271.328 34.8076L271.776 34.584ZM289.28 10.904L289.378 10.4137L289.368 10.4118L289.359 10.4103L289.28 10.904ZM289.44 11.8L289.033 11.5094L289.027 11.5178L289.021 11.5264L289.44 11.8ZM291.936 14.84L292.064 15.3232L292.073 15.3208L291.936 14.84ZM293.472 15.768L292.981 15.8661L292.983 15.8765L293.472 15.768ZM290.048 19.864L290.115 20.3594L290.048 19.864ZM289.215 26.136L288.717 26.1716L288.717 26.1775L289.215 26.136ZM290.368 27.384L290.606 26.9445L290.598 26.9404L290.368 27.384ZM293.792 29.816L294.145 29.4624L294.139 29.4561L294.132 29.4501L293.792 29.816ZM290.368 33.048L290.014 33.4017L290.023 33.4101L290.368 33.048ZM289.984 32.696L289.63 33.0496H289.63L289.984 32.696ZM288.736 32.824L288.314 32.5555L288.311 32.5605L288.736 32.824ZM277.728 20.28L277.337 20.5923L277.344 20.601L277.351 20.6093L277.728 20.28ZM279.52 15.96L279.464 16.457L279.471 16.4576L279.52 15.96ZM270.292 24.312C270.292 20.7807 270.859 17.2413 271.778 13.8508L270.813 13.5892C269.876 17.0467 269.292 20.6753 269.292 24.312H270.292ZM271.777 13.8554C272.052 12.8783 272.357 12.0175 272.613 10.9578L271.642 10.7222C271.386 11.7745 271.115 12.5137 270.814 13.5846L271.777 13.8554ZM272.616 10.9485C272.63 10.8815 272.644 10.826 272.66 10.7786C272.676 10.7305 272.689 10.704 272.696 10.6917C272.703 10.6807 272.697 10.6943 272.672 10.7101C272.643 10.7284 272.616 10.732 272.607 10.732V9.732C272.236 9.732 271.988 9.93705 271.847 10.1643C271.725 10.3606 271.671 10.5899 271.639 10.7315L272.616 10.9485ZM272.607 10.732C272.553 10.732 272.528 10.7205 272.575 10.7333C272.605 10.7415 272.651 10.7556 272.713 10.777C272.836 10.8193 273.003 10.8821 273.203 10.961C273.601 11.1185 274.112 11.3323 274.635 11.5558C275.679 12.0022 276.757 12.4809 277.044 12.6089L277.451 11.6951C277.163 11.5671 276.08 11.0858 275.028 10.6362C274.503 10.4117 273.982 10.1935 273.57 10.031C273.365 9.94994 273.182 9.8807 273.037 9.83104C272.965 9.80636 272.897 9.78449 272.837 9.7682C272.794 9.75646 272.702 9.732 272.607 9.732V10.732ZM277.044 12.6089C277.318 12.7306 277.456 12.8187 277.52 12.8738C277.576 12.9219 277.516 12.8916 277.516 12.792H278.516C278.516 12.5004 278.359 12.2781 278.175 12.1182C277.999 11.9653 277.753 11.8294 277.451 11.6951L277.044 12.6089ZM277.516 12.792C277.516 12.7835 277.517 12.7552 277.533 12.7179C277.549 12.6794 277.573 12.6507 277.592 12.6326C277.609 12.617 277.619 12.6133 277.609 12.6187C277.598 12.6245 277.579 12.6329 277.542 12.6478L277.913 13.5762C277.987 13.5468 278.142 13.4861 278.271 13.3674C278.43 13.2201 278.516 13.0205 278.516 12.792H277.516ZM277.548 12.6453C277.057 12.8342 276.718 13.084 276.446 13.4229C276.193 13.7381 276.007 14.1227 275.808 14.5204L276.703 14.9676C276.92 14.5333 277.054 14.2619 277.225 14.0491C277.377 13.86 277.566 13.7098 277.907 13.5787L277.548 12.6453ZM275.807 14.5227C274.546 17.0775 273.836 21.2242 273.836 24.312H274.836C274.836 21.3198 275.533 17.3385 276.704 14.9653L275.807 14.5227ZM273.836 24.312C273.836 24.6335 273.834 25.0147 273.882 25.3144C273.905 25.4613 273.948 25.6438 274.044 25.8016C274.154 25.9819 274.358 26.156 274.656 26.156V25.156C274.793 25.156 274.877 25.2461 274.897 25.2794C274.904 25.2901 274.886 25.2627 274.869 25.1576C274.837 24.9533 274.836 24.6625 274.836 24.312H273.836ZM274.656 26.156C274.961 26.156 275.179 26.0102 275.32 25.8438C275.438 25.7059 275.516 25.532 275.551 25.4636L274.656 25.0164C274.65 25.0294 274.643 25.0425 274.637 25.0543C274.631 25.0665 274.626 25.0776 274.62 25.0885C274.609 25.1103 274.6 25.1284 274.591 25.1443C274.573 25.1776 274.562 25.1917 274.559 25.1962C274.556 25.1991 274.566 25.1863 274.591 25.1737C274.618 25.1597 274.643 25.156 274.656 25.156V26.156ZM275.565 25.4323C275.728 25.0403 275.84 24.7951 275.936 24.6473C276.037 24.4906 276.026 24.588 275.904 24.588V23.588C275.493 23.588 275.242 23.8774 275.095 24.1047C274.943 24.3409 274.799 24.6717 274.642 25.0477L275.565 25.4323ZM275.904 24.588C275.877 24.588 275.89 24.5837 275.96 24.6076C276.021 24.6284 276.101 24.662 276.196 24.709C276.387 24.8027 276.611 24.9363 276.825 25.0859C277.041 25.2368 277.231 25.3929 277.361 25.5279C277.426 25.5958 277.465 25.6472 277.485 25.68C277.51 25.7207 277.484 25.6963 277.484 25.624H278.484C278.484 25.4317 278.406 25.2693 278.34 25.1604C278.269 25.0435 278.177 24.9337 278.082 24.8351C277.892 24.6371 277.646 24.4392 277.398 24.2661C277.148 24.0917 276.88 23.9313 276.639 23.812C276.518 23.7525 276.397 23.6999 276.283 23.661C276.178 23.6253 276.042 23.588 275.904 23.588V24.588ZM277.484 25.624C277.484 25.6086 277.481 25.657 277.43 25.8195C277.385 25.961 277.319 26.1433 277.236 26.3644C277.073 26.7952 276.842 27.3757 276.618 27.9881C276.172 29.2055 275.691 30.7077 275.691 31.896H276.691C276.691 30.9083 277.107 29.5625 277.557 28.3319C277.781 27.7203 277.998 27.1768 278.171 26.7176C278.256 26.4937 278.33 26.2895 278.383 26.1198C278.43 25.971 278.484 25.7834 278.484 25.624H277.484ZM275.691 31.896C275.691 32.2756 275.76 32.8671 275.789 33.2175L276.786 33.1345C276.751 32.7169 276.691 32.2204 276.691 31.896H275.691ZM275.794 33.2582C275.818 33.4022 275.82 33.5837 275.82 33.752H276.82C276.82 33.6003 276.821 33.3338 276.781 33.0938L275.794 33.2582ZM275.82 33.752C275.82 33.9677 275.702 34.1745 275.427 34.3908C275.149 34.6089 274.781 34.7794 274.434 34.9212L274.813 35.8468C275.17 35.7006 275.65 35.4871 276.044 35.1772C276.441 34.8655 276.82 34.4003 276.82 33.752H275.82ZM274.444 34.9173C274.243 34.9945 273.971 35.0927 273.695 35.171C273.41 35.252 273.16 35.3 272.992 35.3V36.3C273.303 36.3 273.661 36.22 273.968 36.133C274.284 36.0433 274.588 35.9335 274.803 35.8507L274.444 34.9173ZM272.992 35.3C272.884 35.3 272.796 35.265 272.677 35.1277C272.537 34.9676 272.404 34.722 272.223 34.3604L271.328 34.8076C271.499 35.15 271.686 35.5124 271.922 35.7843C272.179 36.079 272.523 36.3 272.992 36.3V35.3ZM272.227 34.3694C270.735 31.2304 270.292 27.8251 270.292 24.312H269.292C269.292 27.9029 269.744 31.4736 271.324 34.7986L272.227 34.3694ZM284.512 10.796C284.805 10.796 285.755 10.9091 286.781 11.0475C287.786 11.1831 288.806 11.3345 289.201 11.3977L289.359 10.4103C288.953 10.3455 287.925 10.1929 286.914 10.0565C285.924 9.92293 284.89 9.796 284.512 9.796V10.796ZM289.181 11.3943C289.216 11.4013 289.244 11.4076 289.268 11.4148C289.293 11.4222 289.301 11.4271 289.299 11.4261C289.298 11.4252 289.271 11.4096 289.243 11.37C289.229 11.3495 289.216 11.3249 289.207 11.2973C289.199 11.2696 289.196 11.2444 289.196 11.224H290.196C290.196 10.8732 289.976 10.6609 289.796 10.5579C289.634 10.4656 289.458 10.4298 289.378 10.4137L289.181 11.3943ZM289.196 11.224C289.196 11.2069 289.2 11.2214 289.173 11.2797C289.147 11.3361 289.103 11.4114 289.033 11.5094L289.846 12.0906C290.009 11.8625 290.196 11.5561 290.196 11.224H289.196ZM289.021 11.5264C288.385 12.4995 288.364 13.6712 288.364 14.616H289.364C289.364 13.6408 289.406 12.7645 289.858 12.0736L289.021 11.5264ZM288.364 14.616C288.364 14.9164 288.438 15.2381 288.655 15.4925C288.883 15.7593 289.209 15.884 289.568 15.884V14.884C289.503 14.884 289.466 14.8733 289.448 14.8657C289.431 14.8587 289.423 14.8514 289.416 14.8435C289.401 14.8259 289.364 14.7636 289.364 14.616H288.364ZM289.568 15.884C289.714 15.884 289.925 15.8463 290.118 15.8069C290.329 15.764 290.576 15.7062 290.823 15.6455C291.317 15.5241 291.826 15.3866 292.064 15.3231L291.807 14.3569C291.565 14.4214 291.066 14.5559 290.584 14.6745C290.343 14.7338 290.11 14.788 289.919 14.8271C289.823 14.8466 289.741 14.8616 289.676 14.8715C289.643 14.8765 289.617 14.8798 289.597 14.8818C289.576 14.8839 289.567 14.884 289.568 14.884V15.884ZM292.073 15.3208C292.186 15.2885 292.346 15.2427 292.497 15.2051C292.572 15.1862 292.64 15.1707 292.695 15.1601C292.759 15.1479 292.778 15.148 292.768 15.148V14.148C292.614 14.148 292.399 14.1987 292.254 14.2349C292.085 14.2773 291.909 14.3275 291.798 14.3592L292.073 15.3208ZM292.768 15.148C292.771 15.148 292.766 15.1483 292.757 15.1451C292.749 15.1421 292.745 15.1387 292.746 15.1396C292.752 15.1442 292.777 15.1696 292.811 15.2417C292.884 15.3955 292.93 15.6107 292.981 15.8661L293.962 15.6699C293.917 15.4453 293.851 15.1005 293.716 14.8143C293.577 14.5216 293.293 14.148 292.768 14.148V15.148ZM292.983 15.8765C293.176 16.7412 293.355 17.7168 293.355 18.424H294.355C294.355 17.5952 294.151 16.5228 293.96 15.6595L292.983 15.8765ZM293.355 18.424C293.355 18.609 293.334 18.6491 293.328 18.6594C293.327 18.6614 293.296 18.7174 293.09 18.7983C292.646 18.9715 291.765 19.1251 289.98 19.3686L290.115 20.3594C291.85 20.1229 292.873 19.9565 293.453 19.7297C293.759 19.6106 294.02 19.4466 294.183 19.1786C294.341 18.9189 294.355 18.639 294.355 18.424H293.355ZM289.98 19.3686C289.634 19.4158 289.229 19.4902 288.929 19.7496C288.593 20.0394 288.492 20.4563 288.492 20.92H289.492C289.492 20.5837 289.566 20.5206 289.582 20.5064C289.634 20.4618 289.757 20.4082 290.115 20.3594L289.98 19.3686ZM288.492 20.92C288.492 21.3525 288.684 25.7175 288.717 26.1716L289.714 26.1004C289.683 25.6585 289.492 21.3195 289.492 20.92H288.492ZM288.717 26.1775C288.755 26.6289 288.87 26.9799 289.179 27.2616C289.314 27.3846 289.469 27.4785 289.62 27.5606C289.764 27.639 289.955 27.7329 290.137 27.8276L290.598 26.9404C290.38 26.8271 290.235 26.757 290.098 26.6824C289.968 26.6115 289.897 26.5634 289.852 26.5224C289.801 26.4761 289.74 26.4111 289.714 26.0945L288.717 26.1775ZM290.129 27.8234C291.217 28.4141 292.558 29.3503 293.451 30.1819L294.132 29.4501C293.169 28.5537 291.758 27.5699 290.606 26.9446L290.129 27.8234ZM293.438 30.1696C293.832 30.5633 294.028 30.8133 294.028 31.16H295.028C295.028 30.3547 294.519 29.8367 294.145 29.4624L293.438 30.1696ZM294.028 31.16C294.028 31.264 293.973 31.4742 293.822 31.771C293.678 32.0528 293.473 32.3629 293.237 32.6508C293 32.9398 292.744 33.1915 292.505 33.3663C292.251 33.5517 292.079 33.604 292 33.604V34.604C292.4 34.604 292.784 34.4003 293.094 34.1737C293.419 33.9365 293.735 33.6202 294.01 33.2852C294.286 32.9491 294.533 32.5792 294.713 32.225C294.886 31.8858 295.028 31.504 295.028 31.16H294.028ZM292 33.604C291.908 33.604 291.769 33.5647 291.541 33.4058C291.313 33.2467 291.051 33.0085 290.712 32.6859L290.023 33.4101C290.356 33.7275 290.67 34.0173 290.97 34.2262C291.27 34.4353 291.611 34.604 292 34.604V33.604ZM290.721 32.6944C290.644 32.6169 290.567 32.5504 290.505 32.4957C290.439 32.4384 290.388 32.3929 290.337 32.3424L289.63 33.0496C289.707 33.1271 289.784 33.1936 289.846 33.2483C289.912 33.3056 289.964 33.3511 290.014 33.4016L290.721 32.6944ZM290.337 32.3424C290.248 32.2536 290.12 32.1233 289.972 32.0209C289.816 31.9126 289.605 31.812 289.344 31.812V32.812C289.344 32.812 289.344 32.812 289.345 32.8121C289.346 32.8123 289.348 32.8127 289.352 32.8142C289.36 32.8173 289.377 32.8249 289.403 32.8431C289.463 32.8847 289.527 32.9464 289.63 33.0496L290.337 32.3424ZM289.344 31.812C289.08 31.812 288.857 31.8957 288.67 32.0743C288.527 32.2108 288.41 32.4043 288.314 32.5556L289.157 33.0924C289.216 33.0002 289.257 32.9352 289.295 32.8816C289.332 32.8285 289.352 32.8064 289.361 32.7977C289.366 32.7928 289.357 32.8017 289.339 32.8088C289.322 32.8154 289.318 32.812 289.344 32.812V31.812ZM288.311 32.5605C287.893 33.2346 287.195 33.706 286.357 34.01C285.52 34.3136 284.58 34.436 283.743 34.436V35.436C284.667 35.436 285.727 35.3024 286.698 34.95C287.668 34.598 288.586 34.0134 289.16 33.0875L288.311 32.5605ZM283.743 34.436C282.36 34.436 281.014 34.0926 280.028 33.3957C279.062 32.7125 278.42 31.6772 278.42 30.2H277.42C277.42 32.0188 278.233 33.3515 279.451 34.2123C280.649 35.0594 282.215 35.436 283.743 35.436V34.436ZM278.42 30.2C278.42 28.7956 279.012 27.7995 279.911 27.139C280.828 26.4656 282.092 26.124 283.424 26.124V25.124C281.939 25.124 280.451 25.5024 279.32 26.333C278.171 27.1765 277.42 28.4684 277.42 30.2H278.42ZM283.424 26.124H284.16V25.124H283.424V26.124ZM284.16 26.124C284.531 26.124 284.878 26.0113 285.122 25.7355C285.356 25.4708 285.428 25.1328 285.428 24.824H284.428C284.428 24.9952 284.387 25.0572 284.373 25.0725C284.369 25.0767 284.332 25.124 284.16 25.124V26.124ZM285.428 24.824C285.428 24.4332 285.386 23.8523 285.346 23.3265C285.305 22.78 285.268 22.3036 285.268 22.072H284.268C284.268 22.3524 284.31 22.884 284.349 23.4015C284.389 23.9397 284.428 24.4788 284.428 24.824H285.428ZM285.268 22.072C285.268 21.5398 285.242 21.0335 285.071 20.6571C284.976 20.4497 284.831 20.2641 284.615 20.1375C284.405 20.0144 284.17 19.972 283.936 19.972V20.972C284.053 20.972 284.098 20.9936 284.11 21.0005C284.116 21.0039 284.135 21.0143 284.16 21.0709C284.229 21.2225 284.268 21.5162 284.268 22.072H285.268ZM283.936 19.972C283.634 19.972 282.92 20.0049 282.139 20.0364C281.346 20.0684 280.468 20.1 279.808 20.1V21.1C280.491 21.1 281.389 21.0676 282.18 21.0356C282.983 21.0031 283.661 20.972 283.936 20.972V19.972ZM279.808 20.1H279.327V21.1H279.808V20.1ZM279.327 20.1C278.969 20.1 278.658 20.084 278.42 20.0432C278.152 19.9973 278.093 19.9381 278.104 19.9507L277.351 20.6093C277.586 20.8779 277.959 20.9787 278.251 21.0288C278.573 21.084 278.95 21.1 279.327 21.1V20.1ZM278.118 19.9677C278.162 20.0233 278.153 20.0468 278.128 19.9406C278.108 19.8606 278.089 19.7474 278.07 19.6028C278.034 19.3153 278.007 18.9459 277.987 18.5585C277.947 17.7859 277.939 16.979 277.939 16.696H276.939C276.939 16.989 276.948 17.8141 276.988 18.6095C277.008 19.0061 277.037 19.4047 277.079 19.7292C277.099 19.8906 277.124 20.0444 277.156 20.1749C277.181 20.2792 277.229 20.4567 277.337 20.5923L278.118 19.9677ZM277.939 16.696C277.939 16.6096 277.945 16.5332 277.956 16.4689C277.967 16.4035 277.981 16.3645 277.992 16.3444C278.001 16.3279 278.003 16.332 277.993 16.3375C277.984 16.3429 277.994 16.332 278.048 16.332V15.332C277.845 15.332 277.651 15.3771 277.48 15.4795C277.308 15.582 277.19 15.7241 277.111 15.8716C276.962 16.1484 276.939 16.468 276.939 16.696H277.939ZM278.048 16.332C278.205 16.332 279.164 16.4235 279.464 16.4569L279.575 15.4631C279.299 15.4325 278.274 15.332 278.048 15.332V16.332ZM279.471 16.4576C280.799 16.5872 282.127 16.652 283.424 16.652V15.652C282.16 15.652 280.864 15.5888 279.568 15.4624L279.471 16.4576ZM283.424 16.652C283.728 16.652 284.081 16.5973 284.37 16.3909C284.688 16.1635 284.852 15.8087 284.852 15.384H283.852C283.852 15.4677 283.837 15.5121 283.827 15.5326C283.818 15.551 283.807 15.564 283.789 15.5771C283.742 15.6107 283.631 15.652 283.424 15.652V16.652ZM284.852 15.384C284.852 15.0183 284.76 14.0239 284.673 13.0785C284.584 12.0969 284.5 11.1624 284.5 10.84H283.5C283.5 11.2216 283.591 12.2231 283.678 13.1695C283.767 14.1521 283.852 15.0777 283.852 15.384H284.852ZM284.5 10.84C284.5 10.8055 284.501 10.7785 284.503 10.7578C284.505 10.737 284.508 10.7248 284.509 10.7192C284.511 10.7138 284.51 10.7168 284.506 10.7251C284.502 10.7339 284.494 10.7466 284.481 10.7603C284.469 10.7742 284.455 10.7851 284.442 10.7929C284.43 10.8005 284.422 10.8032 284.421 10.8035C284.421 10.8036 284.427 10.8016 284.442 10.7996C284.458 10.7976 284.48 10.796 284.512 10.796V9.796C284.267 9.796 283.963 9.84421 283.742 10.0877C283.531 10.3189 283.5 10.6167 283.5 10.84H284.5ZM283.712 28.964C283.443 28.964 282.967 28.9982 282.54 29.1422C282.152 29.2729 281.548 29.5919 281.548 30.296H282.548C282.548 30.2795 282.548 30.266 282.582 30.2339C282.628 30.1907 282.717 30.1378 282.859 30.0898C283.144 29.9938 283.5 29.964 283.712 29.964V28.964ZM281.548 30.296C281.548 30.9198 282.044 31.2864 282.431 31.4684C282.845 31.6634 283.343 31.756 283.743 31.756V30.756C283.472 30.756 283.122 30.6886 282.856 30.5636C282.563 30.4256 282.548 30.3122 282.548 30.296H281.548ZM283.743 31.756C284.155 31.756 284.626 31.6869 285.01 31.4408C285.428 31.1725 285.684 30.7301 285.684 30.136H284.684C284.684 30.4059 284.587 30.5235 284.469 30.5992C284.317 30.6971 284.068 30.756 283.743 30.756V31.756ZM285.684 30.136C285.684 29.8279 285.557 29.5755 285.361 29.394C285.18 29.2267 284.957 29.1342 284.765 29.0792C284.382 28.9699 283.951 28.964 283.712 28.964V29.964C283.952 29.964 284.257 29.9741 284.49 30.0408C284.606 30.0738 284.661 30.1093 284.681 30.128C284.686 30.1325 284.684 30.1241 284.684 30.136H285.684Z" fill="#3FE2EB" mask="url(#path-1-outside-1_410_2)"/>
<mask id="mask0_410_2" style="mask-type:alpha" maskUnits="userSpaceOnUse" x="9" y="0" width="37" height="47">
<rect x="9" width="37" height="47" fill="#D9D9D9"/>
</mask>
<g mask="url(#mask0_410_2)">
<circle cx="45.9226" cy="23.5383" r="21.0769" fill="#3FE2EB" stroke="#ADFAFF" stroke-width="4"/>
</g>
<rect y="21" width="10" height="3" rx="1.5" fill="#3FE2EB"/>
<rect x="1" y="35.3999" width="10" height="3" rx="1.5" transform="rotate(-15 1 35.3999)" fill="#3FE2EB"/>
<rect x="2.25781" y="6.46094" width="10" height="3" rx="1.5" transform="rotate(15 2.25781 6.46094)" fill="#3FE2EB"/>
<mask id="mask1_410_2" style="mask-type:alpha" maskUnits="userSpaceOnUse" x="320" y="0" width="37" height="47">
<rect x="357" y="47" width="37" height="47" transform="rotate(-180 357 47)" fill="#D9D9D9"/>
</mask>
<g mask="url(#mask1_410_2)">
<circle cx="320.077" cy="23.4617" r="21.0769" transform="rotate(-180 320.077 23.4617)" fill="#3FE2EB" stroke="#ADFAFF" stroke-width="4"/>
</g>
<rect x="366" y="26" width="10" height="3" rx="1.5" transform="rotate(-180 366 26)" fill="#3FE2EB"/>
<rect x="365" y="11.6001" width="10" height="3" rx="1.5" transform="rotate(165 365 11.6001)" fill="#3FE2EB"/>
<rect x="363.742" y="40.5391" width="10" height="3" rx="1.5" transform="rotate(-165 363.742 40.5391)" fill="#3FE2EB"/>
</svg>
