<svg width="94" height="24" viewBox="0 0 94 24" fill="none" xmlns="http://www.w3.org/2000/svg">
<path d="M26.592 4.296H22.632C21.864 4.296 21.072 4.344 20.304 4.344C19.704 4.344 19.704 3.984 19.704 3.12C19.704 2.28 19.704 1.896 20.304 1.896C21.072 1.896 21.864 1.968 22.632 1.968H26.592C27.36 1.968 28.152 1.896 28.92 1.896C29.544 1.896 29.52 2.304 29.52 3.12C29.52 3.96 29.544 4.344 28.92 4.344C28.152 4.344 27.36 4.296 26.592 4.296ZM26.472 11.28V9.288C26.472 8.808 26.28 8.616 25.8 8.616H23.76C23.304 8.616 23.112 8.808 23.112 9.288V11.28C23.112 11.76 23.304 11.952 23.76 11.952H25.8C26.28 11.952 26.472 11.76 26.472 11.28ZM23.016 14.784C22.824 17.256 22.512 19.176 21.6 21.504C21.312 22.2 21.192 22.32 20.904 22.32C20.592 22.32 18.96 21.72 18.96 21.24C18.96 21.096 19.08 20.904 19.128 20.784C20.424 18 20.736 14.736 20.736 11.712V9.096C20.736 8.496 20.712 7.896 20.712 7.296C20.712 6.432 21.192 6.264 21.96 6.264C22.536 6.264 23.136 6.312 23.736 6.312H25.8C26.4 6.312 26.976 6.264 27.576 6.264C28.344 6.264 28.824 6.432 28.824 7.296C28.824 7.896 28.8 8.496 28.8 9.096V11.952C28.8 12.696 28.848 13.416 28.848 14.136C28.848 14.712 28.584 14.712 27.624 14.712C26.856 14.712 26.688 14.712 26.52 14.544C26.376 14.376 26.208 14.16 25.992 14.136H23.712C23.256 14.136 23.064 14.328 23.016 14.784ZM33.432 5.64V7.896C33.432 8.376 33.624 8.568 34.104 8.568H37.2C38.136 8.568 39.096 8.52 40.056 8.52C40.68 8.52 40.632 8.76 40.632 9.72C40.632 10.656 40.656 10.896 40.056 10.896C39.72 10.896 39.168 10.872 38.832 10.848C38.352 10.896 38.184 11.04 38.184 11.496V18.552C38.184 19.608 38.256 20.664 38.256 21.72C38.256 22.512 37.992 22.512 36.984 22.512C35.976 22.512 35.688 22.512 35.688 21.72C35.688 20.664 35.76 19.608 35.76 18.552V11.496C35.76 11.04 35.568 10.824 35.088 10.824H34.104C33.648 10.824 33.48 10.992 33.408 11.472C33.288 14.376 32.784 16.944 31.536 19.608C31.2 20.304 30.624 21.336 30.096 21.864C29.928 22.032 29.784 22.128 29.544 22.128C29.04 22.128 27.696 21.504 27.696 21.048C27.696 20.88 27.888 20.712 27.984 20.592C28.752 19.632 29.304 18.816 29.808 17.688C30.768 15.456 30.984 12.504 30.984 10.104V3.96C30.984 2.88 31.92 2.88 32.544 2.832C34.152 2.688 37.104 2.232 38.52 1.488C38.616 1.44 38.688 1.392 38.808 1.392C39.192 1.392 39.72 2.136 39.96 2.448C40.224 2.784 40.608 3.264 40.608 3.48C40.608 3.648 40.44 3.768 40.272 3.768C40.128 3.768 40.056 3.72 39.936 3.648C39.816 3.6 39.696 3.552 39.576 3.552C39.432 3.552 39.12 3.648 38.976 3.696C37.224 4.2 36.168 4.416 34.296 4.68C33.552 4.776 33.432 4.8 33.432 5.64ZM60.456 9.696V11.208C60.456 11.664 60.648 11.856 61.104 11.856H62.184C63.096 11.856 64.008 11.808 64.896 11.808C65.52 11.808 65.496 12.096 65.496 12.984C65.496 13.896 65.52 14.16 64.896 14.16C63.984 14.16 63.072 14.112 62.184 14.112H61.104C60.648 14.112 60.456 14.304 60.456 14.784V18.84C60.456 19.296 60.648 19.464 61.104 19.512H63.24C64.128 19.512 65.04 19.44 65.952 19.44C66.576 19.44 66.552 19.752 66.552 20.616C66.552 21.504 66.552 21.768 65.928 21.768C65.016 21.768 64.128 21.72 63.24 21.72H55.752C54.84 21.72 53.952 21.768 53.04 21.768C52.416 21.768 52.44 21.456 52.44 20.616C52.44 19.728 52.416 19.44 53.04 19.44C53.952 19.44 54.84 19.512 55.752 19.512H57.384C57.864 19.512 58.056 19.296 58.056 18.84V14.784C58.056 14.304 57.864 14.112 57.384 14.112H56.616C55.704 14.112 54.792 14.16 53.904 14.16C53.28 14.16 53.304 13.848 53.304 12.984C53.304 12.096 53.28 11.808 53.904 11.808C54.816 11.808 55.728 11.856 56.616 11.856H57.384C57.864 11.856 58.056 11.664 58.056 11.208V9.864C58.056 9.312 58.08 8.784 57.984 8.256C57.984 8.184 57.96 8.088 57.96 8.016C57.96 7.752 58.128 7.704 58.368 7.704C58.704 7.704 60.072 7.824 60.456 7.872C60.648 7.896 61.008 7.92 61.008 8.184C61.008 8.352 60.888 8.4 60.72 8.544C60.48 8.736 60.456 9.048 60.456 9.696ZM55.656 4.056C55.632 4.152 55.608 4.2 55.608 4.272C55.608 4.656 56.04 4.68 56.088 4.68H63.024C64.008 4.68 64.992 4.608 66 4.608C66.576 4.608 66.552 4.92 66.552 5.808C66.552 6.696 66.576 6.984 66 6.984C64.992 6.984 64.008 6.936 63.024 6.936H55.128C54.624 6.936 54.432 7.056 54.192 7.512C53.472 9 52.632 10.44 51.672 11.808C51.408 12.192 51.336 12.384 51.336 12.84V19.2C51.336 20.04 51.408 20.904 51.408 21.744C51.408 22.44 51.12 22.44 50.208 22.44C49.272 22.44 48.984 22.44 48.984 21.768C48.984 20.904 49.056 20.064 49.056 19.2V15.744C49.032 15.6 48.984 15.456 48.816 15.456C48.72 15.456 48.672 15.48 48.6 15.552C48.24 15.912 46.896 17.28 46.44 17.28C46.008 17.28 45.096 16.248 45.096 15.912C45.096 15.624 45.48 15.384 45.672 15.216C46.824 14.28 47.76 13.392 48.696 12.264C48.912 12.024 49.008 11.856 49.008 11.52V11.352C48.984 11.232 48.96 10.92 48.96 10.824C48.96 10.56 49.128 10.512 49.344 10.512C49.44 10.512 49.512 10.536 49.608 10.536C49.92 10.512 50.064 10.464 50.256 10.2C50.832 9.336 51.336 8.424 51.816 7.512C51.84 7.44 51.864 7.368 51.864 7.296C51.864 7.008 51.648 6.96 51.432 6.936H48.96C47.976 6.936 46.992 6.984 46.008 6.984C45.432 6.984 45.432 6.72 45.432 5.808C45.432 4.92 45.408 4.608 45.984 4.608C46.992 4.608 47.976 4.68 48.96 4.68H52.368C52.848 4.68 53.088 4.56 53.256 4.08C53.616 3.072 53.808 2.256 54.024 1.224C54.072 1.032 54.144 0.887999 54.36 0.887999C54.576 0.887999 55.464 1.128 55.752 1.2C56.328 1.32 56.904 1.416 56.904 1.776C56.904 1.944 56.712 2.064 56.568 2.136C56.232 2.28 56.232 2.352 55.992 3.072C55.92 3.312 55.8 3.624 55.656 4.056ZM73.344 9.48C73.008 9.48 72.024 9.528 71.832 9.528C71.328 9.528 71.352 9.144 71.352 8.328C71.352 7.44 71.328 7.104 71.832 7.104C72.072 7.104 73.032 7.128 73.344 7.152C73.776 7.128 73.944 6.888 73.944 6.48V4.176C73.944 3.528 73.944 2.856 73.872 2.28C73.848 2.184 73.848 2.088 73.848 1.992C73.848 1.704 74.016 1.656 74.256 1.656C74.544 1.656 76.248 1.776 76.584 1.8C76.776 1.824 77.112 1.848 77.112 2.112C77.112 2.304 76.92 2.376 76.68 2.52C76.416 2.688 76.392 2.904 76.392 3.744V6.48C76.392 6.912 76.56 7.104 77.016 7.128C77.448 7.128 77.88 7.104 78.336 7.104C78.84 7.104 78.816 7.392 78.816 8.328C78.816 9.192 78.84 9.528 78.336 9.528C78.192 9.528 77.304 9.48 77.04 9.48C76.56 9.504 76.392 9.696 76.392 10.128V15.504C76.416 15.744 76.488 15.96 76.776 15.96C76.896 15.96 77.064 15.888 77.28 15.816C77.712 15.648 78.408 15.336 78.528 15.336C79.056 15.336 79.032 16.416 79.032 16.776C79.032 17.304 78.96 17.448 78.504 17.64C76.728 18.456 74.928 19.176 73.08 19.824C72.576 19.992 72.552 20.04 72.432 20.4C72.384 20.52 72.336 20.712 72.144 20.712C71.904 20.712 71.736 20.112 71.664 19.92C71.544 19.584 71.112 18.408 71.112 18.12C71.112 17.784 71.472 17.76 71.712 17.712C72.288 17.592 72.816 17.424 73.368 17.208C73.824 17.04 73.944 16.824 73.944 16.368V10.128C73.944 9.696 73.776 9.504 73.344 9.48ZM87.096 9.312C86.664 9.504 86.544 9.72 86.544 10.224V13.704C86.544 14.784 86.616 15.864 86.616 16.92C86.616 17.64 86.376 17.664 85.392 17.664C84.48 17.664 84.192 17.664 84.192 16.968C84.192 15.864 84.264 14.784 84.264 13.704V11.208C84.24 11.112 84.24 10.752 83.88 10.752C83.808 10.752 83.736 10.776 83.664 10.8L82.8 11.184C82.344 11.4 82.224 11.592 82.224 12.072V18.552C82.224 19.536 82.32 19.776 83.424 19.776H88.368C89.472 19.776 89.904 19.608 90.24 17.616C90.312 17.184 90.336 17.016 90.744 17.016C91.152 17.016 91.632 17.16 92.016 17.28C92.496 17.448 92.688 17.592 92.688 18.048C92.688 18.792 92.04 20.544 91.608 21.144C91.008 21.984 90.024 22.104 89.064 22.104H82.728C79.536 22.104 79.872 20.712 79.872 18.144V13.128C79.848 13.032 79.848 12.696 79.512 12.696C79.416 12.696 79.368 12.72 79.272 12.744C79.128 12.816 78.672 13.032 78.504 13.032C78.048 13.032 77.448 11.352 77.448 11.184C77.448 10.8 78.096 10.584 79.272 10.152C79.728 9.936 79.872 9.744 79.872 9.24V6.648C79.872 6.024 79.896 5.4 79.8 4.848C79.8 4.776 79.776 4.68 79.776 4.608C79.776 4.344 79.968 4.32 80.184 4.32C80.568 4.32 81.768 4.392 82.224 4.416C82.416 4.44 82.848 4.44 82.848 4.728C82.848 4.896 82.656 4.968 82.512 5.064C82.248 5.232 82.224 5.736 82.224 6.48V8.208C82.248 8.328 82.248 8.664 82.608 8.664C82.68 8.664 82.752 8.64 82.824 8.64L83.664 8.256C84.12 8.04 84.264 7.848 84.264 7.344V3.624C84.264 2.952 84.216 2.28 84.168 1.656C84.168 1.584 84.144 1.488 84.144 1.416C84.144 1.152 84.36 1.104 84.576 1.104C84.864 1.104 86.376 1.2 86.688 1.224C86.856 1.248 87.096 1.296 87.096 1.536C87.096 1.68 86.976 1.728 86.808 1.848C86.568 2.04 86.544 2.544 86.544 3.288V6.336C86.568 6.456 86.568 6.792 86.928 6.792C87 6.792 87.072 6.792 87.12 6.768L88.224 6.288C88.8 6.048 89.472 5.64 90.096 5.64C90.6 5.64 90.96 5.88 91.248 6.264C91.392 6.48 91.392 6.816 91.392 7.08C91.392 8.808 91.344 12.096 91.2 13.776C91.056 15.696 90.24 16.152 88.392 16.152C87.816 16.152 87.216 16.224 87.216 14.304C87.216 14.064 87.264 13.752 87.552 13.752C87.648 13.752 87.792 13.776 87.984 13.776C88.704 13.776 88.752 13.536 88.824 12.792C88.944 11.736 88.992 10.344 88.992 9.264C88.992 9.072 89.016 8.712 88.728 8.712C88.536 8.712 88.152 8.904 87.864 9C87.6 9.096 87.36 9.192 87.096 9.312Z" fill="#060606"/>
<circle cx="5.5" cy="11.5" r="5.5" fill="#41C9E2"/>
</svg>
