<svg width="94" height="24" viewBox="0 0 94 24" fill="none" xmlns="http://www.w3.org/2000/svg">
<path d="M25.248 5.568C25.248 5.976 24.216 6.84 23.736 6.84C23.52 6.84 23.376 6.624 23.256 6.48C22.272 5.28 21.192 4.152 20.016 3.144C19.896 3.024 19.704 2.88 19.704 2.688C19.704 2.304 20.76 1.368 21.168 1.368C21.384 1.368 21.504 1.512 21.792 1.752C22.32 2.208 22.992 2.88 23.496 3.384C23.832 3.72 25.248 5.184 25.248 5.568ZM21.672 12.072H21.216C20.808 12.072 20.4 12.12 19.992 12.12C19.44 12.12 19.464 11.784 19.464 10.944C19.464 10.056 19.44 9.768 20.016 9.768C20.4 9.768 20.808 9.816 21.216 9.816H22.032C22.512 9.816 22.992 9.768 23.472 9.768C24.312 9.768 24.792 10.008 24.792 10.92C24.792 11.568 24.768 12.24 24.768 12.888V16.344C24.768 17.904 25.128 18.84 26.688 19.344C28.2 19.824 31.992 19.8 33.696 19.8C35.616 19.8 37.536 19.752 39.456 19.68C39.648 19.68 39.936 19.656 40.128 19.656C40.56 19.656 40.584 19.944 40.584 20.328C40.584 21.84 40.152 21.984 39.144 21.984H32.856C30.96 21.984 27.408 21.984 25.728 21.36C24.864 21.024 24.384 20.616 23.88 19.848C23.784 19.68 23.64 19.56 23.424 19.56C23.28 19.56 23.208 19.584 23.088 19.68C22.416 20.208 21.744 20.76 21.072 21.264C20.808 21.456 20.736 21.552 20.712 21.84C20.688 22.008 20.568 22.128 20.4 22.128C20.136 22.128 20.016 21.792 19.536 20.832C19.368 20.496 19.032 19.992 19.032 19.608C19.032 19.368 19.248 19.272 19.632 19.104C19.752 19.056 19.872 19.008 19.992 18.936C20.232 18.816 21.552 17.952 21.84 17.76C22.272 17.448 22.344 17.256 22.344 16.752V12.72C22.344 12.264 22.152 12.072 21.672 12.072ZM31.776 8.4V8.28C31.776 7.944 31.536 7.704 31.2 7.704H29.808C29.472 7.704 29.232 7.944 29.232 8.28V8.4C29.232 8.736 29.472 8.976 29.808 8.976H31.2C31.536 8.976 31.776 8.736 31.776 8.4ZM34.656 8.976H36.096C36.432 8.976 36.672 8.736 36.672 8.4V8.28C36.672 7.944 36.432 7.704 36.096 7.704H34.656C34.32 7.704 34.104 7.944 34.104 8.28V8.4C34.104 8.736 34.32 8.976 34.656 8.976ZM31.2 10.392H29.808C29.472 10.392 29.232 10.632 29.232 10.968V11.112C29.232 11.472 29.472 11.688 29.808 11.688H31.2C31.536 11.688 31.776 11.472 31.776 11.112V10.968C31.776 10.632 31.536 10.392 31.2 10.392ZM34.104 10.968V11.112C34.104 11.472 34.32 11.688 34.656 11.688H36.096C36.432 11.688 36.672 11.472 36.672 11.112V10.968C36.672 10.632 36.432 10.392 36.096 10.392H34.656C34.32 10.392 34.104 10.632 34.104 10.968ZM29.64 6.096H31.2C31.608 6.096 31.776 5.928 31.776 5.52V5.448C31.776 5.04 31.608 4.872 31.2 4.872H28.896C28.056 4.872 27.216 4.92 26.376 4.92C25.848 4.92 25.872 4.632 25.872 4.032C25.872 3.408 25.848 3.12 26.376 3.12C27.216 3.12 28.056 3.168 28.896 3.168H31.104C31.536 3.168 31.752 3.024 31.776 2.568C31.776 2.208 31.752 1.848 31.704 1.488C31.68 1.392 31.68 1.32 31.68 1.248C31.68 0.983999 31.872 0.935999 32.088 0.935999C32.544 0.935999 33.552 1.008 34.032 1.032C34.248 1.056 34.632 1.056 34.632 1.344C34.632 1.488 34.536 1.536 34.368 1.68C34.104 1.872 34.128 2.16 34.104 2.52C34.128 3 34.296 3.168 34.776 3.168H37.248C38.088 3.168 38.928 3.12 39.768 3.12C40.296 3.12 40.272 3.36 40.272 4.032C40.272 4.656 40.296 4.92 39.792 4.92C38.952 4.92 38.112 4.872 37.248 4.872H34.656C34.272 4.872 34.104 5.04 34.104 5.448V5.52C34.104 5.928 34.272 6.096 34.656 6.096H36.24C36.792 6.096 37.344 6.072 37.896 6.072C38.592 6.072 39 6.216 39 6.984C39 7.392 38.976 7.824 38.976 8.232V11.184C38.976 11.592 39 12 39 12.432C39 13.176 38.616 13.344 37.92 13.344C37.368 13.344 36.816 13.296 36.24 13.296H34.656C34.272 13.296 34.104 13.488 34.104 13.872V13.968C34.104 14.376 34.272 14.544 34.656 14.544H37.608C38.424 14.544 39.24 14.496 40.056 14.496C40.584 14.496 40.56 14.784 40.56 15.384C40.56 16.008 40.584 16.296 40.056 16.296C39.24 16.296 38.424 16.248 37.608 16.248H34.776C34.32 16.248 34.128 16.416 34.128 16.896C34.104 17.4 34.152 17.928 34.152 18.432C34.152 19.128 33.888 19.128 32.952 19.128C31.968 19.128 31.728 19.128 31.728 18.408C31.728 17.88 31.776 17.376 31.752 16.872C31.752 16.416 31.536 16.248 31.104 16.248H28.392C27.576 16.248 26.76 16.296 25.944 16.296C25.416 16.296 25.44 15.984 25.44 15.384C25.44 14.808 25.416 14.496 25.944 14.496C26.76 14.496 27.576 14.544 28.392 14.544H31.2C31.608 14.544 31.776 14.376 31.776 13.968V13.872C31.776 13.488 31.608 13.296 31.2 13.296H29.64C29.088 13.296 28.536 13.344 27.984 13.344C27.312 13.344 26.88 13.2 26.88 12.432C26.88 12.024 26.928 11.592 26.928 11.184V8.232C26.928 7.824 26.88 7.392 26.88 6.984C26.88 6.216 27.312 6.072 27.984 6.072C28.536 6.072 29.088 6.096 29.64 6.096ZM54.456 18.912C54.456 19.44 53.4 19.704 53.136 19.704C52.728 19.704 52.704 19.368 52.608 18.984C52.344 17.928 52.056 16.944 51.648 15.912C51.6 15.792 51.504 15.6 51.504 15.456C51.504 15 52.416 14.808 52.704 14.808C53.136 14.808 53.256 15.12 53.76 16.488C53.904 16.92 54.456 18.552 54.456 18.912ZM46.584 14.928C46.728 14.928 47.544 15.144 47.76 15.192C48.144 15.288 48.576 15.336 48.576 15.624C48.576 15.792 48.408 15.864 48.288 15.912C48.072 16.032 48.072 16.128 48.024 16.368C47.76 17.928 47.424 19.488 46.992 21.024C46.92 21.288 46.848 21.528 46.536 21.528C46.2 21.528 45.048 21.24 45.048 20.856C45.048 20.712 45.168 20.352 45.216 20.184C45.672 18.792 46.08 16.968 46.248 15.528C46.296 15.216 46.272 14.928 46.584 14.928ZM58.824 19.392H61.92C62.328 19.344 62.544 19.128 62.592 18.72V16.632C62.544 16.224 62.328 16.008 61.92 15.96H58.824C58.416 16.008 58.2 16.224 58.152 16.632V18.72C58.2 19.128 58.416 19.344 58.824 19.392ZM62.976 13.848C63.072 13.848 63.192 13.8 63.192 13.68C63.192 13.608 63.144 13.536 63.096 13.512C62.328 13.008 61.584 12.432 60.888 11.808C60.768 11.712 60.6 11.592 60.432 11.592C60.216 11.592 60.096 11.688 59.952 11.808C59.232 12.432 58.608 12.936 57.816 13.488C57.744 13.536 57.72 13.584 57.72 13.68C57.72 13.8 57.816 13.848 57.936 13.872H61.728C62.016 13.872 62.712 13.872 62.976 13.848ZM60.048 7.776C60.144 7.896 60.264 8.016 60.456 8.016C60.648 8.016 60.744 7.92 60.888 7.8C61.128 7.536 62.208 6.216 62.208 5.952C62.208 5.688 61.848 5.664 61.464 5.664H59.328C59.112 5.664 58.896 5.736 58.896 6C58.896 6.096 58.944 6.144 58.968 6.216C59.304 6.768 59.64 7.272 60.048 7.776ZM52.536 13.464C52.464 13.224 52.368 13.152 52.128 13.176C51.984 13.176 51.864 13.2 51.72 13.224C51.264 13.344 51.096 13.536 51.096 13.992V18.72C51.096 19.752 51.168 20.784 51.168 21.84C51.168 22.536 50.928 22.584 49.968 22.584C49.032 22.584 48.816 22.536 48.816 21.84C48.816 20.784 48.864 19.752 48.864 18.72V14.304C48.864 13.968 48.72 13.728 48.336 13.728H48.216C47.712 13.776 47.184 13.848 46.656 13.896C46.512 13.92 46.464 13.944 46.392 14.088C46.32 14.208 46.248 14.376 46.08 14.376C45.816 14.376 45.768 14.112 45.624 13.584C45.528 13.248 45.288 12.384 45.288 12.072C45.288 11.736 45.48 11.736 45.912 11.712C46.056 11.712 46.224 11.712 46.44 11.688C46.944 11.64 47.16 11.544 47.448 11.136C47.64 10.824 47.808 10.536 48 10.248C48.072 10.08 48.144 9.936 48.144 9.768C48.144 9.552 48.048 9.384 47.904 9.24C47.184 8.424 46.224 7.488 45.408 6.792C45.288 6.696 45.144 6.576 45.144 6.408C45.144 6.096 45.816 4.728 46.248 4.728C46.416 4.728 46.56 4.896 46.68 4.992C46.776 5.064 46.872 5.112 46.992 5.112C47.16 5.112 47.256 4.992 47.328 4.872C47.736 4.032 48.504 2.28 48.792 1.464C48.864 1.272 48.912 1.08 49.08 1.08C49.296 1.08 49.872 1.344 50.208 1.512C50.496 1.656 51.24 1.944 51.24 2.208C51.24 2.4 51.096 2.448 50.928 2.472C50.712 2.472 50.592 2.496 50.496 2.688C49.92 3.936 49.296 5.136 48.648 6.336C48.6 6.432 48.576 6.504 48.576 6.624C48.576 6.768 48.624 6.864 48.72 6.984C48.816 7.08 48.912 7.2 49.008 7.296C49.128 7.392 49.224 7.464 49.368 7.464C49.56 7.464 49.68 7.368 49.752 7.224C50.28 6.288 50.76 5.304 51.216 4.344C51.288 4.176 51.36 3.96 51.552 3.96C51.792 3.96 52.248 4.2 52.68 4.416C52.824 4.488 52.992 4.584 53.136 4.656C53.496 4.848 53.808 5.016 53.808 5.208C53.808 5.448 53.52 5.448 53.472 5.448C53.256 5.472 53.16 5.496 53.04 5.688C52.008 7.488 50.976 9.216 49.776 10.896C49.752 10.968 49.704 11.016 49.704 11.088C49.704 11.28 49.872 11.352 50.04 11.352L51.264 11.184C51.504 11.16 51.72 11.016 51.72 10.728C51.72 10.656 51.696 10.584 51.672 10.512C51.576 10.272 51.288 9.576 51.288 9.36C51.288 8.952 52.272 8.688 52.584 8.688C53.016 8.688 53.088 9 53.256 9.456C53.616 10.368 53.928 11.304 54.192 12.24C54.288 12.456 54.384 12.648 54.648 12.648C54.744 12.648 54.84 12.6 54.936 12.576C56.16 11.856 57.336 11.064 58.44 10.176C58.584 10.032 58.704 9.888 58.704 9.696C58.704 9.504 58.608 9.408 58.512 9.264C58.056 8.64 57.648 8.016 57.264 7.368C57.168 7.224 57.072 7.104 56.88 7.104C56.736 7.104 56.64 7.176 56.544 7.272C56.232 7.632 55.056 8.952 54.648 8.952C54.288 8.952 53.4 7.8 53.4 7.512C53.4 7.296 53.688 7.056 53.832 6.936C55.536 5.376 56.976 3.48 57.936 1.392C58.032 1.2 58.104 0.983999 58.32 0.983999C58.608 0.983999 59.76 1.392 60.12 1.464C60.336 1.512 60.744 1.608 60.744 1.824C60.744 2.088 60.48 2.136 60.312 2.184C60.072 2.256 59.976 2.424 59.76 2.808C59.712 2.88 59.664 2.976 59.592 3.096C59.568 3.168 59.544 3.216 59.544 3.312C59.544 3.552 59.736 3.624 59.928 3.648H61.632C62.424 3.648 63.192 3.6 63.984 3.6C64.848 3.6 65.328 4.68 65.328 5.016C65.328 5.952 63.096 8.616 62.4 9.36C62.304 9.504 62.208 9.624 62.208 9.816C62.208 10.008 62.328 10.128 62.448 10.248C63.672 11.304 64.896 12.072 66.336 12.792C66.6 12.912 66.984 13.056 66.984 13.344C66.984 13.728 66.192 14.976 65.784 14.976C65.664 14.976 65.544 14.904 65.424 14.856C65.376 14.832 65.304 14.808 65.232 14.808C64.992 14.808 64.92 15 64.896 15.216C64.872 15.648 64.848 16.032 64.848 16.488V20.544C64.848 21.048 64.896 21.792 64.896 22.08C64.896 22.56 64.56 22.536 63.696 22.536C62.616 22.536 62.52 22.536 62.544 21.888C62.52 21.6 62.4 21.48 62.112 21.48H58.632C58.344 21.48 58.2 21.576 58.2 21.888C58.176 22.536 58.152 22.536 57 22.536C56.232 22.536 55.824 22.56 55.824 22.104C55.824 21.672 55.872 21.048 55.872 20.544V16.488C55.872 16.104 55.848 15.72 55.848 15.36C55.824 15.144 55.728 14.952 55.488 14.952C55.416 14.952 55.344 14.976 55.296 15C55.08 15.096 54.864 15.216 54.624 15.216C54.216 15.216 53.832 14.568 53.664 14.256C53.592 14.112 53.472 14.016 53.304 14.016H53.184C53.136 14.04 53.04 14.04 52.992 14.04C52.632 14.04 52.608 13.776 52.536 13.464ZM82.584 19.488V13.416C82.584 12.936 82.392 12.744 81.912 12.744H79.416C79.368 12.744 79.344 12.768 79.344 12.816C79.344 12.84 79.368 12.888 79.392 12.888C80.328 13.128 80.784 13.2 80.784 13.44C80.784 13.656 80.592 13.752 80.424 13.8C80.256 13.872 80.208 13.944 80.184 14.136C79.776 17.448 77.664 19.896 74.832 21.504C74.376 21.768 73.104 22.44 72.648 22.44C72.048 22.44 71.112 21.288 71.112 20.76C71.112 20.448 71.424 20.4 71.688 20.328C73.68 19.752 75.744 18.288 76.896 16.56C77.616 15.48 77.76 14.616 77.88 13.344C77.88 12.936 77.76 12.744 77.352 12.744H74.832C73.824 12.744 72.84 12.792 71.856 12.792C71.256 12.792 71.28 12.48 71.28 11.592C71.28 10.656 71.256 10.368 71.856 10.368C72.84 10.368 73.824 10.416 74.832 10.416H79.92C80.4 10.416 80.592 10.224 80.592 9.744V7.488C80.592 7.008 80.4 6.816 79.92 6.816H77.256C76.776 6.816 76.536 6.936 76.296 7.368C75.912 8.064 75.408 8.904 74.928 9.552C74.784 9.744 74.616 9.96 74.328 9.96C73.872 9.96 72.48 9.288 72.48 8.832C72.48 8.664 73.08 7.896 73.224 7.704C74.4 6.144 75.456 3.744 76.008 1.872C76.056 1.728 76.104 1.56 76.296 1.56C76.512 1.56 77.592 1.872 77.856 1.944C78.6 2.16 78.864 2.232 78.864 2.496C78.864 2.688 78.672 2.76 78.528 2.808C78.24 2.904 78.192 3.072 78.024 3.552C77.976 3.648 77.928 3.792 77.88 3.936C77.856 4.008 77.832 4.08 77.832 4.128C77.832 4.416 78.072 4.512 78.312 4.536H79.92C80.4 4.536 80.592 4.344 80.592 3.864V3.096C80.592 2.568 80.592 1.992 80.52 1.512C80.496 1.44 80.496 1.368 80.496 1.296C80.496 1.008 80.688 0.935999 80.928 0.935999C81.192 0.935999 83.016 1.08 83.304 1.104C83.472 1.128 83.736 1.176 83.736 1.392C83.736 1.536 83.592 1.608 83.424 1.752C83.16 1.968 83.136 2.328 83.136 3.096V3.864C83.136 4.344 83.328 4.536 83.808 4.536H87.456C88.32 4.536 89.184 4.488 90.048 4.488C90.624 4.488 90.576 4.776 90.576 5.664C90.576 6.576 90.624 6.864 90.048 6.864C89.184 6.864 88.32 6.816 87.456 6.816H83.808C83.328 6.816 83.136 7.008 83.136 7.488V9.744C83.136 10.224 83.328 10.416 83.808 10.416H89.016C90 10.416 90.984 10.368 91.992 10.368C92.592 10.368 92.568 10.68 92.568 11.592C92.568 12.456 92.592 12.792 91.992 12.792C91.008 12.792 90 12.744 89.016 12.744H85.608C85.128 12.744 84.936 12.912 84.936 13.416V18.672C84.936 19.512 85.104 19.68 85.944 19.68H88.752C89.712 19.68 89.904 19.416 90.168 17.544C90.24 17.064 90.264 16.776 90.816 16.776C91.248 16.776 92.496 16.968 92.496 17.568C92.496 18.264 92.016 19.968 91.728 20.64C91.224 21.888 90.408 22.056 89.16 22.056H85.272C83.28 22.056 82.584 21.6 82.584 19.488Z" fill="#060606"/>
<circle cx="5.5" cy="11.5" r="5.5" fill="#41C9E2"/>
</svg>
