<svg width="333" height="48" viewBox="0 0 333 48" fill="none" xmlns="http://www.w3.org/2000/svg">
<path d="M83.012 31.048C83.044 31.688 83.268 34.312 83.268 34.696C83.268 36.456 80.644 37.576 79.556 37.576C78.852 37.576 78.628 37.064 78.276 36.328C77.764 35.272 76.324 33.672 75.588 33.672C75.172 33.672 74.788 33.992 74.5 34.248C74.244 34.472 73.86 34.824 73.668 34.824C72.964 34.824 71.076 31.272 71.076 30.536C71.076 30.152 71.364 30.024 71.748 29.832C72.548 29.416 77.732 26.312 78.084 25.896C78.308 25.608 78.34 25.16 78.34 24.744V23.496C78.34 23.048 78.052 22.696 77.604 22.696C77.476 22.696 76.708 22.824 76.516 22.856C76.036 22.952 75.172 23.112 74.724 23.112C74.084 23.112 73.444 23.08 73.444 19.752C73.444 18.536 73.444 18.472 74.692 18.408C75.62 18.376 76.548 18.312 77.476 18.216C77.796 18.184 78.148 18.056 78.308 17.768C78.5 17.448 78.532 15.848 78.532 14.888V14.344C78.532 13.672 78.468 12.968 78.468 12.776C78.468 12.456 78.628 12.264 78.948 12.264C79.652 12.264 82.788 12.936 83.684 13.096C83.972 13.16 84.292 13.256 84.292 13.512C84.292 13.672 84.1 13.8 83.972 13.864C83.492 14.248 83.396 14.568 83.3 15.016C83.172 15.72 83.108 16.2 83.108 16.296C83.108 16.648 83.396 16.936 83.716 16.936C83.876 16.936 84.548 16.712 84.74 16.648C84.996 16.552 85.412 16.424 85.604 16.424C86.148 16.424 86.436 17.128 86.564 18.376C86.628 18.856 86.724 19.784 86.724 20.264C86.724 21.064 86.372 21.096 83.684 21.544C83.14 21.64 82.724 21.896 82.724 22.568C82.724 23.016 82.852 23.4 83.364 23.4C83.556 23.4 83.908 23.272 84.1 23.208C85.476 22.76 86.948 22.504 88.388 22.504C92.324 22.504 96.036 24.712 96.036 29.032C96.036 31.08 95.076 32.936 93.444 34.152C91.748 35.432 88.612 35.848 86.532 35.848C85.668 35.848 84.996 35.848 84.74 35.368C84.388 34.696 84.196 33.064 84.196 32.36C84.196 31.784 84.26 31.144 84.964 31.144C85.156 31.144 85.86 31.24 86.084 31.272C86.468 31.304 87.076 31.336 87.428 31.336C88.804 31.336 91.14 30.952 91.14 29.192C91.14 27.624 89.604 26.856 88.26 26.856C87.012 26.856 84.292 27.464 83.332 28.2C83.012 28.456 82.916 28.904 82.916 29.288C82.916 29.672 82.98 30.664 83.012 31.048ZM78.532 32.808V32.264C78.532 31.88 78.5 31.464 78.212 31.464C77.956 31.464 77.668 31.72 77.476 31.88C77.348 31.976 77.22 32.072 77.22 32.264C77.22 32.52 77.316 32.616 77.892 33C78.084 33.128 78.212 33.192 78.276 33.192C78.5 33.192 78.532 33 78.532 32.808ZM91.908 16.2C92.452 16.2 94.5 17.864 94.98 18.248C95.716 18.856 96.868 19.816 97.54 20.488C97.732 20.648 97.956 20.872 97.956 21.128C97.956 21.96 96.036 24.168 95.236 24.168C94.948 24.168 94.724 23.944 94.468 23.72C93.028 22.408 91.524 21.192 89.956 20.04C89.604 19.784 89.252 19.56 89.252 19.208C89.252 18.76 90.148 17.704 90.468 17.384C90.532 17.32 90.596 17.224 90.66 17.16C91.076 16.712 91.524 16.2 91.908 16.2ZM117.956 34.44H116.388C115.972 34.44 115.652 34.632 115.652 35.08V35.304C115.652 36.04 115.364 36.104 114.276 36.104H112.612C111.652 36.104 111.268 36.04 111.268 35.4C111.268 34.728 111.364 33.448 111.364 32.424V28.072C111.364 27.336 111.3 26.568 111.3 25.832C111.3 24.616 112.292 24.552 113.252 24.552C114.18 24.552 115.14 24.616 116.068 24.616H118.02C118.98 24.616 119.908 24.552 120.868 24.552C121.796 24.552 122.788 24.616 122.788 25.832C122.788 26.536 122.724 27.272 122.724 28.072V32.424C122.724 34.568 122.756 34.92 123.428 34.92H123.588C124.164 34.92 124.708 34.952 125.284 34.952C126.052 34.952 126.084 34.408 126.084 33.608V22.952C126.084 22.472 125.7 22.056 125.188 22.056H122.852C121.828 22.056 120.804 22.152 119.78 22.152C118.692 22.152 118.02 21.864 118.02 20.36C118.02 19.24 118.084 18.088 118.084 16.936V16.296C118.084 15.144 118.02 13.992 118.02 12.872C118.02 11.592 118.468 11.08 119.748 11.08C120.772 11.08 121.828 11.176 122.852 11.176H125.828C126.852 11.176 127.876 11.08 128.9 11.08C129.988 11.08 130.66 11.4 130.66 12.872C130.66 13.992 130.596 15.144 130.596 16.296V31.72C130.596 32.744 130.66 33.8 130.66 34.856C130.66 36.264 130.468 37.384 129.252 38.248C128.132 39.048 126.34 39.304 124.868 39.304C123.492 39.304 123.012 39.048 122.756 36.744C122.724 36.36 122.5 36.072 122.116 36.072C122.084 36.072 121.764 36.104 121.444 36.104H120.484C118.948 36.104 118.628 36.104 118.628 35.368C118.628 35.24 118.66 35.112 118.66 35.08C118.66 34.664 118.372 34.44 117.956 34.44ZM118.724 29.896V29.192C118.724 28.712 118.308 28.296 117.828 28.296H116.452C115.972 28.296 115.556 28.712 115.556 29.192V29.896C115.556 30.376 115.972 30.792 116.452 30.792H117.828C118.308 30.792 118.692 30.44 118.724 29.896ZM126.084 14.856V14.76C126.084 14.536 125.924 14.344 125.668 14.344H122.884C122.66 14.344 122.468 14.536 122.468 14.76V14.856C122.468 15.08 122.66 15.272 122.884 15.272H125.668C125.924 15.272 126.084 15.112 126.084 14.856ZM126.084 18.472V18.376C126.084 18.12 125.924 17.96 125.668 17.96H122.884C122.66 17.96 122.468 18.152 122.468 18.376V18.472C122.468 18.696 122.66 18.888 122.884 18.888H125.668C125.924 18.888 126.084 18.696 126.084 18.472ZM111.332 22.056H109.028C108.58 22.056 108.132 22.472 108.132 22.952V33.512C108.132 35.144 108.228 36.776 108.228 38.44C108.228 39.24 107.908 39.336 106.916 39.336H104.9C103.876 39.336 103.556 39.272 103.556 38.44C103.556 36.776 103.62 35.144 103.62 33.512V16.296C103.62 15.144 103.556 13.992 103.556 12.872C103.556 11.624 104.036 11.08 105.284 11.08C106.34 11.08 107.364 11.176 108.388 11.176H111.332C112.356 11.176 113.38 11.08 114.404 11.08C115.492 11.08 116.164 11.368 116.164 12.872C116.164 13.992 116.1 15.144 116.1 16.296V16.936C116.1 18.088 116.164 19.24 116.164 20.36C116.164 21.64 115.716 22.152 114.436 22.152C113.412 22.152 112.388 22.056 111.332 22.056ZM111.716 14.856V14.76C111.716 14.536 111.524 14.344 111.3 14.344H108.548C108.324 14.344 108.132 14.536 108.132 14.76V14.856C108.132 15.08 108.324 15.272 108.548 15.272H111.3C111.556 15.272 111.716 15.08 111.716 14.856ZM111.716 18.472V18.312C111.716 18.088 111.556 17.896 111.3 17.896H108.548C108.324 17.896 108.132 18.088 108.132 18.312V18.472C108.132 18.696 108.324 18.888 108.548 18.888H111.3C111.524 18.888 111.716 18.696 111.716 18.472ZM139.172 15.752C139.588 15.752 143.332 16.424 144.132 16.584C144.452 16.648 144.804 16.744 144.804 17.032C144.804 17.16 144.708 17.256 144.484 17.416C144.068 17.736 143.972 18.344 143.876 18.824C143.588 20.296 143.46 21.832 143.46 23.304C143.46 25.32 143.748 27.624 144.612 29.448C144.868 29.992 145.444 31.016 146.148 31.016C146.884 31.016 147.62 29.704 147.908 29.192C148.132 28.808 148.42 28.392 148.9 28.392C149.86 28.392 152.228 30.216 152.228 30.984C152.228 31.752 150.756 33.448 150.212 34.056C149.092 35.304 147.972 36.36 146.212 36.36C144.068 36.36 142.244 34.792 141.06 33.128C138.692 29.8 138.468 25.128 138.468 21.192C138.468 20.584 138.596 16.712 138.628 16.264C138.66 15.912 138.82 15.752 139.172 15.752ZM153.028 18.504C153.028 17.768 154.884 15.56 155.844 15.56C156.708 15.56 159.236 17.544 160.644 19.816C161.892 21.832 162.66 24.072 163.012 26.376C163.076 26.888 163.172 27.656 163.172 28.04C163.172 28.712 163.012 29 162.372 29.192C161.444 29.48 160.292 29.736 159.332 29.736C158.148 29.736 158.116 29.32 158.02 28.104C157.732 24.264 156.388 21.224 153.348 19.048C153.156 18.888 153.028 18.76 153.028 18.504ZM178.756 33.48H187.236C187.748 33.48 188.132 33.096 188.132 32.584V31.016C188.132 30.504 187.748 30.12 187.236 30.12H178.756C178.276 30.12 177.86 30.504 177.86 31.016V32.584C177.86 33.096 178.244 33.48 178.756 33.48ZM187.524 37.448H178.532C178.244 37.448 177.956 37.608 177.956 37.928V38.184C177.956 39.176 177.7 39.176 175.716 39.176H174.692C173.54 39.176 173.092 39.112 173.092 38.28C173.092 37.832 173.188 36.552 173.188 35.432V30.12C173.188 29.256 173.124 28.36 173.124 27.496C173.124 25.896 174.372 25.768 175.652 25.768C176.676 25.768 177.7 25.896 178.756 25.896H187.3C188.324 25.896 189.38 25.768 190.404 25.768C191.652 25.768 192.932 25.896 192.932 27.464C192.932 28.232 192.868 29.128 192.868 30.12V35.432C192.868 36.616 192.964 37.896 192.964 38.248C192.964 39.112 192.516 39.176 191.396 39.176H189.508C188.452 39.176 188.036 39.112 188.036 38.28C188.036 38.152 188.068 38.056 188.068 37.96C188.068 37.704 187.876 37.448 187.524 37.448ZM180.068 20.008H186.372C186.788 20.008 187.14 19.976 187.14 19.656C187.14 19.336 186.916 19.112 186.692 18.92C185.828 18.12 184.484 16.616 183.716 15.688C183.556 15.496 183.332 15.208 183.044 15.208C182.788 15.208 182.596 15.368 182.436 15.592C181.54 16.68 180.324 17.896 179.332 18.888C179.14 19.048 178.852 19.336 178.852 19.624C178.852 19.976 178.948 20.008 180.068 20.008ZM185.956 24.2H180.068C179.044 24.2 177.892 24.264 176.996 24.264C176.452 24.264 176.292 24.072 176.292 22.92V22.664C176.292 22.44 176.228 22.088 175.908 22.088C175.716 22.088 175.524 22.28 175.364 22.376C174.756 22.856 172.164 24.808 171.524 24.808C170.692 24.808 168.612 22.312 168.612 21.448C168.612 21.064 169.028 20.904 169.476 20.68C173.7 18.504 178.372 14.504 180.708 10.344C180.868 10.056 180.964 9.928 181.284 9.928C181.668 9.928 185.604 10.536 186.148 10.664C186.404 10.728 186.66 10.856 186.66 11.176C186.66 11.304 186.596 11.4 186.5 11.496C186.436 11.592 186.308 11.72 186.308 11.88C186.308 12.104 187.012 12.968 187.204 13.192C189.956 16.584 193.188 18.664 197.06 20.488C197.7 20.776 197.764 20.84 197.764 21.128C197.764 21.864 197.092 23.048 196.74 23.72C196.452 24.264 196.036 24.968 195.556 24.968C194.82 24.968 191.236 22.536 190.468 21.992C190.372 21.928 190.244 21.832 190.148 21.832C189.764 21.832 189.732 22.152 189.732 22.632V23.272C189.732 24.008 189.572 24.264 189.028 24.264C188.164 24.264 187.268 24.2 185.956 24.2ZM209.988 11.112C210.564 11.112 213.86 11.4 214.436 11.528C214.756 11.592 214.948 11.688 214.948 11.944C214.948 12.136 214.884 12.232 214.756 12.328C214.244 12.744 214.244 12.84 214.116 14.12C214.084 14.44 214.02 15.048 213.924 15.72C213.924 15.848 213.892 15.976 213.892 16.104C213.892 16.552 214.084 16.712 214.404 17C214.692 17.288 215.492 18.088 215.492 18.536C215.492 18.792 215.012 19.304 214.532 19.848C213.924 20.552 213.668 20.936 213.668 21.096C213.668 21.192 213.732 21.288 213.828 21.288C213.892 21.288 214.372 20.904 214.724 20.584C214.82 20.488 214.916 20.424 214.948 20.392C216.772 18.824 218.916 17.8 221.348 17.8C226.084 17.8 229.412 21.608 229.412 26.216C229.412 30.536 226.852 33.48 223.172 35.432C222.02 36.04 219.716 37.032 218.468 37.032C217.092 37.032 216.164 34.152 216.164 33.352C216.164 32.616 216.708 32.52 217.284 32.392C218.628 32.072 220.228 31.656 221.412 30.952C223.108 29.928 224.42 28.488 224.42 26.408C224.42 24.424 223.204 22.472 221.028 22.472C218.404 22.472 214.756 25.064 213.796 26.824C213.604 27.208 213.572 27.496 213.572 27.88V28.168C213.572 29.864 213.604 31.56 213.668 33.224C213.7 33.8 213.956 37.544 213.956 37.672C213.956 37.928 213.86 38.024 213.38 38.088C212.42 38.184 211.524 38.216 210.532 38.216C209.188 38.216 208.74 38.216 208.74 37.576C208.74 37.416 208.74 37.192 208.772 37.064C208.9 36.104 208.964 33.736 208.964 32.712C208.964 32.456 208.932 32.104 208.548 32.104C208.1 32.104 206.948 33.992 206.692 34.408C206.564 34.632 206.404 34.92 206.116 34.92C205.38 34.92 202.788 32.136 202.788 31.432C202.788 31.08 203.14 30.76 203.46 30.472L203.652 30.28C205.668 28.264 207.524 25.896 208.932 23.432C209.06 23.208 209.188 22.92 209.188 22.76C209.188 22.44 209.092 22.12 208.74 22.12C208.58 22.12 208.388 22.184 208.196 22.248C207.556 22.44 205.764 22.92 205.124 22.92C204.58 22.92 204.388 22.344 204.26 21.896C204.1 21.288 203.588 18.984 203.588 18.472C203.588 17.8 204.068 17.736 204.548 17.736H204.996C205.796 17.736 208.484 17.672 209.028 17.192C209.22 17.032 209.348 16.744 209.348 16.168C209.38 14.92 209.38 13.672 209.38 12.424V11.656C209.38 11.24 209.604 11.112 209.988 11.112ZM241.572 14.216C242.212 14.216 245.956 14.632 246.564 14.76C246.756 14.792 247.076 14.92 247.076 15.144C247.076 15.336 246.852 15.592 246.724 15.752C246.308 16.232 246.212 17.256 246.212 18.888C246.212 19.208 246.212 19.912 246.884 19.912C247.204 19.912 249.988 19.432 250.596 19.336C251.172 19.24 251.492 19.016 251.492 18.408C251.492 17.192 251.172 14.6 250.948 13.384C250.916 13.192 250.852 13 250.852 12.808C250.852 12.488 251.076 12.328 251.364 12.328C251.748 12.328 255.044 12.84 256.292 13.128C256.612 13.192 256.804 13.32 256.804 13.512C256.804 13.64 256.644 13.768 256.452 13.96C256.196 14.248 256.164 15.304 256.164 16.072V17.064C256.164 17.192 256.132 17.352 256.132 17.512C256.132 17.992 256.324 18.376 256.868 18.376C257.22 18.376 258.468 18.216 259.076 18.12C259.588 18.024 261.06 17.8 261.476 17.8C262.084 17.8 262.276 17.992 262.276 20.392C262.276 23.016 262.244 23.016 261.156 23.016H260.452C259.844 23.016 257.156 23.112 256.708 23.208C256.164 23.336 256.004 23.72 255.94 24.328C255.492 28.52 254.244 30.856 249.604 30.856C249.092 30.856 248.708 30.824 248.452 30.344C248.132 29.768 247.844 27.592 247.844 26.92C247.844 26.568 248.004 26.248 248.42 26.248C248.74 26.248 249.06 26.28 249.38 26.28C250.18 26.28 250.756 26.12 251.076 25.288C251.14 25.128 251.3 24.584 251.3 24.424C251.3 24.328 251.236 23.976 250.82 23.976C250.628 23.976 250.02 24.072 248.26 24.36C246.052 24.712 246.02 24.872 246.02 25.992V26.376C246.02 27.24 246.084 29.736 246.276 30.504C246.756 32.296 248.356 32.36 250.372 32.36C252.356 32.36 254.116 32.168 256.068 31.88C256.292 31.848 256.964 31.752 257.188 31.752C257.668 31.752 257.796 32.168 257.796 33.352C257.796 34.728 257.7 36.2 257.38 36.52C256.9 36.968 252.068 37.096 251.172 37.096C249.412 37.096 247.108 36.968 245.476 36.424C243.876 35.88 242.468 34.504 241.956 32.904C241.412 31.24 241.412 28.808 241.38 26.952C241.38 26.472 241.284 25.928 240.644 25.928C240.26 25.928 237.124 26.792 236.42 26.984C236.292 27.016 236.132 27.048 236.004 27.048C235.556 27.048 235.428 26.856 235.236 24.52C235.172 23.752 235.108 22.92 235.108 22.312C235.108 21.512 235.46 21.48 236.164 21.48C236.772 21.48 239.332 21.128 240.036 21.032C240.868 20.904 241.22 20.68 241.22 19.816C241.22 18.504 241.124 16.616 240.964 15.336C240.964 15.176 240.932 14.952 240.932 14.792C240.932 14.376 241.188 14.216 241.572 14.216Z" fill="#36CDD5"/>
<mask id="mask0_286_109" style="mask-type:alpha" maskUnits="userSpaceOnUse" x="9" y="1" width="37" height="47">
<rect x="9" y="1" width="37" height="47" fill="#D9D9D9"/>
</mask>
<g mask="url(#mask0_286_109)">
<circle cx="45.9226" cy="24.5383" r="21.0769" fill="#3FE2EB" stroke="#ADFAFF" stroke-width="4"/>
</g>
<rect y="22" width="10" height="3" rx="1.5" fill="#3FE2EB"/>
<rect x="1" y="36.3999" width="10" height="3" rx="1.5" transform="rotate(-15 1 36.3999)" fill="#3FE2EB"/>
<rect x="2.25781" y="7.46094" width="10" height="3" rx="1.5" transform="rotate(15 2.25781 7.46094)" fill="#3FE2EB"/>
<mask id="mask1_286_109" style="mask-type:alpha" maskUnits="userSpaceOnUse" x="287" y="0" width="37" height="47">
<rect x="324" y="47" width="37" height="47" transform="rotate(-180 324 47)" fill="#D9D9D9"/>
</mask>
<g mask="url(#mask1_286_109)">
<circle cx="287.077" cy="23.4617" r="21.0769" transform="rotate(-180 287.077 23.4617)" fill="#3FE2EB" stroke="#ADFAFF" stroke-width="4"/>
</g>
<rect x="333" y="26" width="10" height="3" rx="1.5" transform="rotate(-180 333 26)" fill="#3FE2EB"/>
<rect x="332" y="11.6001" width="10" height="3" rx="1.5" transform="rotate(165 332 11.6001)" fill="#3FE2EB"/>
<rect x="330.742" y="40.5391" width="10" height="3" rx="1.5" transform="rotate(-165 330.742 40.5391)" fill="#3FE2EB"/>
</svg>
