<svg width="455" height="139" viewBox="0 0 455 139" fill="none" xmlns="http://www.w3.org/2000/svg">
<path d="M6.128 20.003H8.477C9.854 20.003 12.392 19.949 12.581 19.949C13.148 19.949 13.256 20.111 13.256 20.732V22.001C13.256 22.622 13.148 22.784 12.581 22.784C12.392 22.784 9.854 22.73 8.477 22.73H4.967C3.59 22.73 1.052 22.784 0.863 22.784C0.296 22.784 0.188 22.622 0.188 22.001V21.515C0.188 20.813 0.269 20.624 0.836 20.192C1.322 19.841 1.754 19.463 2.213 19.058C7.073 14.792 9.881 12.092 9.881 9.446C9.881 7.691 8.666 6.476 6.452 6.476C4.832 6.476 3.428 7.259 2.51 8.258C2.267 8.528 2.105 8.636 1.943 8.636C1.808 8.636 1.646 8.501 1.403 8.258L0.323 7.097C0.107 6.854 -0.000999987 6.692 -0.000999987 6.53C-0.000999987 6.341 0.134 6.179 0.377 5.936C1.916 4.478 4.157 3.479 6.722 3.479C10.826 3.479 13.121 5.909 13.121 9.014C13.121 12.821 10.07 15.872 5.939 19.463C5.723 19.652 5.642 19.76 5.642 19.841C5.642 19.949 5.804 20.003 6.128 20.003ZM27.4255 3.506C31.6645 3.506 35.2285 6.611 35.2285 12.767C35.2285 19.193 31.5295 22.946 27.0205 22.946C22.7005 22.946 19.2715 19.679 19.2715 13.523C19.2715 7.988 22.1065 3.506 27.4255 3.506ZM27.4255 6.53C23.9965 6.53 22.4305 9.797 22.4305 13.604C22.4305 17.816 24.2935 20.057 27.0205 20.057C29.9095 20.057 32.0695 17.276 32.0695 12.875C32.0695 8.636 30.0985 6.53 27.4255 6.53ZM46.4118 20.003H48.7608C50.1378 20.003 52.6758 19.949 52.8648 19.949C53.4318 19.949 53.5398 20.111 53.5398 20.732V22.001C53.5398 22.622 53.4318 22.784 52.8648 22.784C52.6758 22.784 50.1378 22.73 48.7608 22.73H45.2508C43.8738 22.73 41.3358 22.784 41.1468 22.784C40.5798 22.784 40.4718 22.622 40.4718 22.001V21.515C40.4718 20.813 40.5528 20.624 41.1198 20.192C41.6058 19.841 42.0378 19.463 42.4968 19.058C47.3568 14.792 50.1648 12.092 50.1648 9.446C50.1648 7.691 48.9498 6.476 46.7358 6.476C45.1158 6.476 43.7118 7.259 42.7938 8.258C42.5508 8.528 42.3888 8.636 42.2268 8.636C42.0918 8.636 41.9298 8.501 41.6868 8.258L40.6068 7.097C40.3908 6.854 40.2828 6.692 40.2828 6.53C40.2828 6.341 40.4178 6.179 40.6608 5.936C42.1998 4.478 44.4408 3.479 47.0058 3.479C51.1098 3.479 53.4048 5.909 53.4048 9.014C53.4048 12.821 50.3538 15.872 46.2228 19.463C46.0068 19.652 45.9258 19.76 45.9258 19.841C45.9258 19.949 46.0878 20.003 46.4118 20.003ZM72.0169 18.68C71.3959 18.68 71.2879 18.788 71.2879 19.409C71.2879 20.327 71.3419 21.92 71.3419 22.109C71.3419 22.676 71.1799 22.784 70.5589 22.784H69.0469C68.4259 22.784 68.2639 22.676 68.2639 22.109C68.2639 21.92 68.3179 20.327 68.3179 19.409C68.3179 18.788 68.2099 18.68 67.5889 18.68H63.3229C61.7569 18.68 59.4349 18.734 59.2459 18.734C58.6789 18.734 58.5709 18.572 58.5709 17.951V17.492C58.5709 16.844 58.6519 16.493 58.9489 15.953C59.5429 14.873 60.1099 13.766 60.6499 12.713L63.0259 8.123C63.5929 7.016 64.2139 5.774 64.8619 4.397C65.1319 3.776 65.2939 3.668 65.9959 3.668H68.0209C68.4259 3.668 68.6149 3.722 68.6149 3.911C68.6149 4.019 68.5339 4.154 68.4259 4.37C67.5619 5.963 66.8599 7.286 66.1849 8.582L62.7289 15.251C62.6209 15.467 62.5669 15.629 62.5669 15.737C62.5669 15.926 62.7559 15.98 63.1609 15.98H67.5889C68.2369 15.98 68.3179 15.818 68.3179 15.197C68.3179 13.361 68.2639 10.904 68.2639 10.715C68.2639 10.148 68.4259 10.04 69.0469 10.04H70.5589C71.1799 10.04 71.3419 10.148 71.3419 10.715C71.3419 10.904 71.2879 13.334 71.2879 15.251C71.2879 15.872 71.3959 15.98 72.0169 15.98C72.7459 15.98 74.0689 15.953 74.2579 15.953C74.8249 15.953 74.9329 16.115 74.9329 16.736V17.951C74.9329 18.572 74.8249 18.734 74.2579 18.734C74.0689 18.734 72.7459 18.68 72.0169 18.68ZM90.6956 12.011H87.3476C86.8886 12.065 86.6456 12.308 86.5916 12.767V15.17C86.6456 15.656 86.8886 15.872 87.3476 15.926H90.6956C91.1816 15.872 91.3976 15.656 91.4516 15.17V12.767C91.3976 12.308 91.1816 12.065 90.6956 12.011ZM94.3946 6.638V8.69C94.3946 9.203 94.6106 9.392 95.1506 9.446H97.3106C98.2556 9.446 99.1736 9.365 100.119 9.365C100.794 9.365 100.794 9.662 100.794 10.742C100.794 11.795 100.767 12.065 100.119 12.065C99.1736 12.065 98.2556 12.011 97.3106 12.011H95.1506C94.6106 12.011 94.3946 12.227 94.3946 12.767V15.17C94.3946 15.71 94.6106 15.926 95.1506 15.926H99.6056C100.74 15.926 101.874 15.872 103.008 15.872C103.683 15.872 103.656 16.196 103.656 17.222C103.656 18.275 103.683 18.572 103.008 18.572C101.874 18.572 100.74 18.518 99.6056 18.518H95.1506C94.6106 18.518 94.3946 18.734 94.3946 19.274V20.03C94.3946 21.353 94.4756 22.649 94.4756 23.945C94.4756 24.836 94.1246 24.836 92.9096 24.836C91.7216 24.836 91.3706 24.836 91.3706 23.972C91.3706 22.649 91.4516 21.353 91.4516 20.03V19.274C91.4516 18.734 91.2356 18.518 90.6956 18.518H83.9996C82.8656 18.518 81.7316 18.572 80.5976 18.572C79.9226 18.572 79.9496 18.275 79.9496 17.249C79.9496 16.169 79.9226 15.872 80.5976 15.872C81.4616 15.872 82.3526 15.953 83.2436 15.926C83.7296 15.926 83.9186 15.656 83.9186 15.17V12.605C83.9186 11.93 83.8916 11.282 83.8916 10.607C83.8916 9.662 84.2966 9.392 85.2146 9.392C85.8626 9.392 86.5106 9.446 87.1586 9.446H90.6956C91.2356 9.392 91.4516 9.203 91.4516 8.69V6.638C91.4516 6.098 91.2356 5.882 90.6956 5.882H87.1316C86.5376 5.882 86.3756 5.99 85.9976 6.449C84.9446 8.069 83.6756 9.554 82.2986 10.904C82.0826 11.12 81.7316 11.498 81.4076 11.498C80.8676 11.498 79.5986 10.229 79.5986 9.716C79.5986 9.446 80.0846 9.068 80.2736 8.906C82.7576 6.8 84.7826 3.776 85.8086 0.697999C85.8896 0.454999 85.9706 0.319999 86.1866 0.319999C86.4836 0.319999 88.4006 0.913999 88.8056 1.049C88.9946 1.103 89.2646 1.184 89.2646 1.427C89.2646 1.616 89.0216 1.724 88.8596 1.778C88.4276 1.913 88.4546 1.994 88.1846 2.561C88.1576 2.669 88.1306 2.723 88.1306 2.831C88.1306 3.128 88.3466 3.209 88.6166 3.236H98.4176C99.5246 3.236 100.605 3.155 101.712 3.155C102.387 3.155 102.36 3.506 102.36 4.559C102.36 5.585 102.387 5.936 101.712 5.936C100.605 5.936 99.5246 5.882 98.4176 5.882H95.1506C94.6106 5.882 94.3946 6.098 94.3946 6.638ZM110.271 19.058C110.271 18.599 111.648 17.168 112.107 17.168C112.728 17.168 117.372 20.894 117.372 21.569C117.372 22.163 116.022 23.648 115.401 23.648C115.185 23.648 114.996 23.405 114.861 23.243C113.7 21.812 112.323 20.543 110.757 19.571C110.568 19.463 110.271 19.301 110.271 19.058ZM16.982 68.876C16.982 69.362 15.767 70.442 15.281 70.442C15.038 70.442 14.822 70.199 14.687 70.037C13.877 69.146 12.986 68.363 12.068 67.58C11.906 67.472 11.69 67.31 11.69 67.094C11.69 66.662 12.851 65.528 13.364 65.528C13.526 65.528 13.661 65.636 13.769 65.717L15.578 67.283C15.875 67.553 16.982 68.525 16.982 68.876ZM17.9 62.477C17.9 63.017 16.847 64.07 16.253 64.07C16.01 64.07 15.821 63.827 15.659 63.665C14.903 62.747 14.039 61.937 13.121 61.181C12.986 61.046 12.77 60.911 12.77 60.695C12.77 60.236 13.877 59.129 14.417 59.129C14.579 59.129 14.714 59.21 14.822 59.318C15.524 59.939 16.226 60.56 16.874 61.208C17.252 61.586 17.9 62.18 17.9 62.477ZM21.896 74.195V76.517C21.896 77.975 21.95 79.433 21.95 80.891C21.95 81.755 21.626 81.755 20.465 81.755C19.277 81.755 18.98 81.728 18.98 80.864C18.98 79.406 19.061 77.975 19.061 76.517V74.897C19.061 74.573 18.926 74.303 18.548 74.303C18.494 74.303 18.413 74.303 18.332 74.33L13.58 75.518C13.283 75.599 11.663 76.058 11.501 76.058C10.799 76.058 10.529 74.06 10.529 73.871C10.529 73.493 10.853 73.466 11.825 73.223C12.095 73.169 12.446 73.088 12.851 72.98L18.386 71.603C18.899 71.468 19.061 71.225 19.061 70.685V60.83C19.061 59.939 19.007 58.913 18.953 58.211C18.953 58.103 18.926 57.995 18.926 57.914C18.926 57.563 19.196 57.536 19.439 57.536C19.817 57.536 21.707 57.671 22.085 57.698C22.301 57.725 22.571 57.833 22.571 58.103C22.571 58.319 22.409 58.373 22.22 58.508C21.923 58.697 21.896 59.237 21.896 60.155V69.983C21.896 70.307 22.031 70.577 22.382 70.577H22.571C22.814 70.496 23.921 70.145 24.056 70.145C24.515 70.145 24.65 71.063 24.731 71.414C24.812 71.684 24.893 72.035 24.893 72.332C24.893 72.764 24.704 72.791 23.516 73.061C23.273 73.115 22.949 73.169 22.571 73.277C22.031 73.412 21.896 73.655 21.896 74.195ZM7.964 70.901C7.937 70.847 7.856 70.793 7.775 70.793C7.667 70.793 7.613 70.901 7.613 71.009V77.138C7.613 78.38 7.694 79.622 7.694 80.864C7.694 81.701 7.451 81.728 6.317 81.728C5.291 81.728 4.967 81.728 4.967 80.918C4.967 79.649 5.048 78.38 5.048 77.138V72.494C5.048 72.44 4.994 72.332 4.913 72.332C4.832 72.332 4.805 72.386 4.778 72.44C4.427 73.223 2.537 77.516 1.754 77.516C1.295 77.516 0.107 76.436 0.107 75.896C0.107 75.68 0.269 75.464 0.404 75.329C2.078 73.061 3.455 70.415 4.508 67.796C4.535 67.715 4.562 67.661 4.562 67.58C4.562 67.256 4.292 67.175 4.022 67.148H3.617C2.78 67.148 1.862 67.202 1.268 67.202C0.674 67.202 0.674 66.905 0.674 65.933C0.674 64.934 0.674 64.637 1.268 64.637C1.943 64.637 2.78 64.691 3.617 64.691H4.292C4.832 64.691 5.048 64.475 5.048 63.935V62.261C5.048 61.91 4.886 61.64 4.508 61.64H4.319C3.833 61.748 2.51 61.991 2.105 61.991C1.322 61.991 1.052 60.614 1.052 60.02C1.052 59.534 1.43 59.561 2.132 59.48C4.319 59.21 7.343 58.562 9.314 57.59C9.395 57.536 9.503 57.509 9.584 57.509C9.854 57.509 10.097 57.887 10.367 58.319C10.421 58.4 10.475 58.508 10.529 58.589C10.691 58.832 11.258 59.642 11.258 59.885C11.258 60.047 11.096 60.155 10.934 60.155C10.826 60.155 10.691 60.074 10.583 60.047C10.529 60.02 10.448 59.993 10.394 59.993C10.34 59.993 9.827 60.155 9.287 60.344C8.855 60.479 8.396 60.641 8.261 60.695C7.748 60.857 7.613 61.1 7.613 61.64V63.935C7.613 64.475 7.829 64.691 8.369 64.691H8.558C9.395 64.691 10.205 64.637 10.907 64.637C11.528 64.637 11.501 64.988 11.501 65.933C11.501 66.824 11.528 67.202 10.907 67.202C10.259 67.202 9.422 67.148 8.612 67.148C8.369 67.175 8.153 67.229 8.153 67.499C8.153 67.607 8.207 67.661 8.234 67.742C9.152 69.092 9.908 70.118 11.069 71.279C11.285 71.495 11.501 71.657 11.501 71.9C11.501 72.197 10.583 73.601 10.097 73.601C9.854 73.601 9.692 73.412 9.557 73.25C9.044 72.656 8.369 71.576 7.964 70.901ZM43.55 61.262C43.55 61.829 42.146 62.531 41.687 62.531C41.39 62.531 41.228 62.315 41.093 62.072C40.634 61.208 39.959 60.155 39.392 59.372C39.284 59.21 39.176 59.075 39.176 58.886C39.176 58.319 40.526 57.698 41.012 57.698C41.525 57.698 41.93 58.427 42.659 59.534C42.686 59.588 42.74 59.669 42.821 59.777C43.091 60.236 43.55 60.965 43.55 61.262ZM49.436 62.855C50.192 62.855 50.948 62.828 51.704 62.828C52.487 62.828 53.162 62.936 53.162 63.881C53.162 64.421 53.108 64.988 53.108 65.609V66.608C53.108 67.013 53.189 67.445 53.189 67.877C53.189 68.552 52.811 68.552 51.785 68.552C50.786 68.552 50.354 68.552 50.354 67.877C50.354 67.445 50.435 67.04 50.435 66.608V65.852C50.435 65.312 50.192 65.096 49.679 65.096H34.721C34.181 65.096 33.965 65.312 33.965 65.852V66.608C33.965 67.04 34.019 67.472 34.019 67.877C34.019 68.552 33.587 68.552 32.615 68.552C31.589 68.552 31.238 68.552 31.238 67.85C31.238 67.472 31.292 67.013 31.292 66.608V65.609C31.292 65.015 31.265 64.448 31.265 63.908C31.265 62.936 31.913 62.828 32.696 62.828C33.236 62.828 33.749 62.828 34.262 62.855C34.478 62.828 34.667 62.747 34.667 62.504C34.667 62.423 34.64 62.342 34.613 62.261C34.181 61.559 33.587 60.641 33.074 59.993C32.966 59.858 32.858 59.696 32.858 59.507C32.858 58.994 34.208 58.319 34.721 58.319C35.153 58.319 35.477 58.751 36.26 59.885C36.503 60.236 37.232 61.289 37.232 61.667C37.232 62.072 36.719 62.369 36.422 62.558C36.368 62.612 36.341 62.639 36.341 62.72C36.341 62.828 36.422 62.855 36.503 62.855H44.792C45.332 62.855 45.575 62.801 45.953 62.369C46.952 61.154 47.789 59.831 48.545 58.454C48.626 58.292 48.707 58.103 48.923 58.103C49.274 58.103 50.813 58.778 51.218 58.967C51.407 59.048 51.65 59.156 51.65 59.399C51.65 59.642 51.353 59.696 51.191 59.723C50.948 59.804 50.759 59.858 50.651 60.101C50.192 60.857 49.733 61.586 49.193 62.288C49.139 62.369 49.112 62.423 49.112 62.531C49.112 62.747 49.274 62.828 49.436 62.855ZM49.76 75.356H44.441C43.928 75.356 43.685 75.572 43.685 76.112V77.138C43.685 77.786 43.739 78.434 43.739 79.082C43.739 79.811 43.496 80.594 42.929 81.026C41.984 81.755 40.04 81.755 38.906 81.755C38.204 81.755 37.664 81.782 37.394 81.323C37.178 80.972 37.07 80.243 37.07 79.838C37.07 79.352 37.259 79.109 37.772 79.109C38.15 79.109 38.663 79.163 39.176 79.163C40.985 79.163 40.958 78.758 40.958 77.246V76.112C40.958 75.572 40.742 75.356 40.202 75.356H34.667C33.587 75.356 32.507 75.41 31.4 75.41C30.779 75.41 30.779 75.14 30.779 74.195C30.779 73.277 30.779 72.953 31.4 72.953C32.48 72.953 33.56 73.034 34.667 73.034H40.202C40.688 73.034 40.931 72.818 40.931 72.305C40.904 72.089 40.85 71.522 40.85 71.414C40.85 71.09 41.066 71.036 41.309 71.036C41.498 71.036 41.66 71.063 41.822 71.063H41.957C42.335 71.063 42.524 71.009 42.821 70.793C43.064 70.604 44.279 69.686 44.279 69.443C44.279 69.227 43.901 69.254 43.604 69.254H38.879C37.961 69.254 37.016 69.335 36.071 69.335C35.45 69.335 35.45 69.011 35.45 68.12C35.45 67.175 35.45 66.905 36.098 66.905C37.043 66.905 37.961 66.986 38.879 66.986H44.711C45.467 66.986 46.196 66.932 46.952 66.932C47.519 66.932 47.708 67.094 48.059 67.499C48.275 67.742 48.626 68.174 48.626 68.498C48.626 69.389 44.657 72.197 43.82 72.764C43.739 72.818 43.739 72.845 43.712 72.926C43.739 73.007 43.793 73.007 43.874 73.034H49.76C50.84 73.034 51.947 72.953 53.027 72.953C53.648 72.953 53.621 73.277 53.621 74.195C53.621 75.113 53.648 75.41 53.027 75.41C51.947 75.41 50.84 75.356 49.76 75.356ZM69.794 68.417V68.228C69.794 67.85 69.524 67.715 69.2 67.715H63.557C62.504 67.715 61.451 67.769 60.398 67.769C59.723 67.769 59.75 67.418 59.75 66.365C59.75 65.285 59.723 64.934 60.398 64.934C61.451 64.934 62.504 65.015 63.557 65.015H69.578C70.091 65.015 70.307 64.826 70.361 64.286C70.415 63.449 70.442 62.585 70.442 61.748V60.614C70.442 59.804 70.442 58.913 70.361 58.292C70.334 58.238 70.334 58.157 70.334 58.103C70.334 57.725 70.631 57.671 70.928 57.671C71.387 57.671 72.98 57.806 73.466 57.86C73.655 57.887 73.979 57.941 73.979 58.211C73.979 58.346 73.871 58.427 73.763 58.508C73.412 58.751 73.358 58.94 73.358 59.345C73.304 60.992 73.358 62.639 73.277 64.313C73.304 64.799 73.52 65.015 74.006 65.015H80.081C81.134 65.015 82.187 64.934 83.267 64.934C83.942 64.934 83.888 65.312 83.888 66.365C83.888 67.445 83.942 67.769 83.24 67.769C82.187 67.769 81.134 67.715 80.081 67.715H74.276C74.006 67.742 73.736 67.823 73.736 68.147C73.736 68.255 73.763 68.309 73.763 68.39C75.545 73.007 78.677 76.652 83.051 79.001C83.321 79.163 83.564 79.271 83.564 79.622C83.564 80.189 82.592 81.674 81.971 81.674C81.512 81.674 79.757 80.459 79.325 80.135C76.058 77.786 73.979 75.113 72.197 71.522C72.143 71.414 72.062 71.333 71.927 71.333C71.792 71.333 71.711 71.441 71.63 71.549C69.875 75.869 66.311 79.217 62.207 81.296C62.153 81.323 62.126 81.35 62.072 81.35C61.775 81.512 61.397 81.674 61.127 81.674C60.452 81.674 59.75 79.865 59.75 79.433C59.75 79.109 60.074 78.947 60.344 78.812C60.425 78.785 60.479 78.758 60.533 78.731C65.096 76.625 68.498 73.412 69.794 68.417ZM99.791 63.746C99.575 63.746 99.089 63.935 98.873 64.043C95.795 65.501 94.013 68.39 94.013 71.819C94.013 72.818 94.364 75.329 95.741 75.329C97.091 75.329 98.603 72.251 99.359 69.497C99.71 68.201 100.223 65.528 100.223 64.232C100.223 63.962 100.088 63.746 99.791 63.746ZM102.383 60.587C105.029 60.587 107.459 61.37 109.376 63.26C111.185 65.069 112.103 67.337 112.103 69.902C112.103 73.655 110.132 76.868 106.838 78.623C106.217 78.947 104.543 79.703 103.895 79.703C103.193 79.703 102.086 78.029 102.086 77.435C102.086 77.165 102.491 77.111 102.761 77.057C106.298 76.22 109.079 73.898 109.079 70.037C109.079 67.148 107.567 64.556 104.759 63.584C104.516 63.503 103.976 63.341 103.733 63.341C103.112 63.341 103.112 63.935 103.085 64.394C102.788 68.336 101.843 73.142 99.251 76.247C98.36 77.327 97.172 78.326 95.687 78.326C94.04 78.326 92.744 77.138 92.015 75.761C91.421 74.654 91.178 73.196 91.178 71.927C91.178 65.609 96.011 60.587 102.383 60.587ZM132.65 61.262C132.65 61.829 131.246 62.531 130.787 62.531C130.49 62.531 130.328 62.315 130.193 62.072C129.734 61.208 129.059 60.155 128.492 59.372C128.384 59.21 128.276 59.075 128.276 58.886C128.276 58.319 129.626 57.698 130.112 57.698C130.625 57.698 131.03 58.427 131.759 59.534C131.786 59.588 131.84 59.669 131.921 59.777C132.191 60.236 132.65 60.965 132.65 61.262ZM138.536 62.855C139.292 62.855 140.048 62.828 140.804 62.828C141.587 62.828 142.262 62.936 142.262 63.881C142.262 64.421 142.208 64.988 142.208 65.609V66.608C142.208 67.013 142.289 67.445 142.289 67.877C142.289 68.552 141.911 68.552 140.885 68.552C139.886 68.552 139.454 68.552 139.454 67.877C139.454 67.445 139.535 67.04 139.535 66.608V65.852C139.535 65.312 139.292 65.096 138.779 65.096H123.821C123.281 65.096 123.065 65.312 123.065 65.852V66.608C123.065 67.04 123.119 67.472 123.119 67.877C123.119 68.552 122.687 68.552 121.715 68.552C120.689 68.552 120.338 68.552 120.338 67.85C120.338 67.472 120.392 67.013 120.392 66.608V65.609C120.392 65.015 120.365 64.448 120.365 63.908C120.365 62.936 121.013 62.828 121.796 62.828C122.336 62.828 122.849 62.828 123.362 62.855C123.578 62.828 123.767 62.747 123.767 62.504C123.767 62.423 123.74 62.342 123.713 62.261C123.281 61.559 122.687 60.641 122.174 59.993C122.066 59.858 121.958 59.696 121.958 59.507C121.958 58.994 123.308 58.319 123.821 58.319C124.253 58.319 124.577 58.751 125.36 59.885C125.603 60.236 126.332 61.289 126.332 61.667C126.332 62.072 125.819 62.369 125.522 62.558C125.468 62.612 125.441 62.639 125.441 62.72C125.441 62.828 125.522 62.855 125.603 62.855H133.892C134.432 62.855 134.675 62.801 135.053 62.369C136.052 61.154 136.889 59.831 137.645 58.454C137.726 58.292 137.807 58.103 138.023 58.103C138.374 58.103 139.913 58.778 140.318 58.967C140.507 59.048 140.75 59.156 140.75 59.399C140.75 59.642 140.453 59.696 140.291 59.723C140.048 59.804 139.859 59.858 139.751 60.101C139.292 60.857 138.833 61.586 138.293 62.288C138.239 62.369 138.212 62.423 138.212 62.531C138.212 62.747 138.374 62.828 138.536 62.855ZM138.86 75.356H133.541C133.028 75.356 132.785 75.572 132.785 76.112V77.138C132.785 77.786 132.839 78.434 132.839 79.082C132.839 79.811 132.596 80.594 132.029 81.026C131.084 81.755 129.14 81.755 128.006 81.755C127.304 81.755 126.764 81.782 126.494 81.323C126.278 80.972 126.17 80.243 126.17 79.838C126.17 79.352 126.359 79.109 126.872 79.109C127.25 79.109 127.763 79.163 128.276 79.163C130.085 79.163 130.058 78.758 130.058 77.246V76.112C130.058 75.572 129.842 75.356 129.302 75.356H123.767C122.687 75.356 121.607 75.41 120.5 75.41C119.879 75.41 119.879 75.14 119.879 74.195C119.879 73.277 119.879 72.953 120.5 72.953C121.58 72.953 122.66 73.034 123.767 73.034H129.302C129.788 73.034 130.031 72.818 130.031 72.305C130.004 72.089 129.95 71.522 129.95 71.414C129.95 71.09 130.166 71.036 130.409 71.036C130.598 71.036 130.76 71.063 130.922 71.063H131.057C131.435 71.063 131.624 71.009 131.921 70.793C132.164 70.604 133.379 69.686 133.379 69.443C133.379 69.227 133.001 69.254 132.704 69.254H127.979C127.061 69.254 126.116 69.335 125.171 69.335C124.55 69.335 124.55 69.011 124.55 68.12C124.55 67.175 124.55 66.905 125.198 66.905C126.143 66.905 127.061 66.986 127.979 66.986H133.811C134.567 66.986 135.296 66.932 136.052 66.932C136.619 66.932 136.808 67.094 137.159 67.499C137.375 67.742 137.726 68.174 137.726 68.498C137.726 69.389 133.757 72.197 132.92 72.764C132.839 72.818 132.839 72.845 132.812 72.926C132.839 73.007 132.893 73.007 132.974 73.034H138.86C139.94 73.034 141.047 72.953 142.127 72.953C142.748 72.953 142.721 73.277 142.721 74.195C142.721 75.113 142.748 75.41 142.127 75.41C141.047 75.41 139.94 75.356 138.86 75.356ZM158.111 70.415H163.889C164.213 70.415 164.375 70.199 164.402 69.902V69.74C164.375 69.443 164.213 69.227 163.889 69.227H158.111C157.814 69.254 157.625 69.443 157.598 69.74V69.902C157.625 70.199 157.814 70.388 158.111 70.415ZM164.996 72.116C164.483 72.089 163.97 72.062 163.457 72.062C163.322 72.089 163.16 72.143 163.16 72.332C163.16 72.44 163.187 72.494 163.268 72.548L163.835 73.034C163.997 73.142 164.105 73.223 164.294 73.223C164.483 73.223 164.618 73.115 164.753 73.007L165.185 72.602C165.239 72.521 165.293 72.467 165.293 72.359C165.293 72.197 165.131 72.116 164.996 72.116ZM162.809 77.867H168.83C169.37 77.867 169.586 77.651 169.586 77.111V61.37C169.586 60.857 169.37 60.614 168.83 60.614H153.305C152.765 60.614 152.549 60.857 152.549 61.37V77.111C152.549 77.651 152.765 77.867 153.305 77.867H159.137C159.542 77.867 159.65 77.678 159.65 77.273L159.731 74.627C159.704 74.438 159.65 74.276 159.434 74.276C159.326 74.276 159.272 74.303 159.191 74.357C158.57 74.924 155.843 77.192 155.114 77.192C154.601 77.192 153.764 76.166 153.764 75.653C153.764 75.356 154.196 75.167 154.439 75.059C155.87 74.357 157.031 73.52 158.273 72.548C158.354 72.467 158.381 72.413 158.381 72.305C158.381 72.143 158.219 72.089 158.084 72.062C157.598 72.089 157.112 72.116 156.626 72.116C156.059 72.116 155.276 72.008 155.276 71.279C155.276 71.036 155.303 70.874 155.303 70.496V69.173C155.303 68.768 155.276 68.606 155.276 68.363C155.276 67.634 156.059 67.553 156.626 67.553C157.328 67.553 158.03 67.58 158.732 67.58H163.295C163.997 67.58 164.672 67.553 165.347 67.553C165.914 67.553 166.751 67.607 166.751 68.363C166.751 68.606 166.697 68.822 166.697 69.173V70.496C166.697 70.82 166.751 71.036 166.751 71.279C166.751 71.468 166.724 71.549 166.616 71.711C166.562 71.792 166.535 71.846 166.535 71.927C166.535 72.008 166.589 72.062 166.643 72.089C166.886 72.251 167.912 72.926 167.912 73.223C167.912 73.358 167.777 73.439 167.669 73.439C167.588 73.439 167.453 73.412 167.399 73.385H167.291C167.183 73.385 167.075 73.493 166.994 73.574C166.805 73.709 166.616 73.871 166.4 74.006C166.292 74.114 166.184 74.222 166.184 74.384C166.184 74.573 166.319 74.681 166.454 74.789C166.832 74.978 167.129 75.113 167.345 75.221C167.885 75.464 168.074 75.572 168.074 75.842C168.074 76.355 167.183 77.381 166.805 77.381C166.049 77.381 163.349 75.167 162.728 74.573C162.647 74.519 162.593 74.465 162.485 74.465C162.323 74.465 162.242 74.6 162.215 74.762C162.242 75.599 162.242 76.436 162.269 77.273C162.269 77.678 162.377 77.867 162.809 77.867ZM168.884 80.189H153.251C152.819 80.189 152.603 80.378 152.603 80.81C152.576 81.62 152.441 81.647 151.226 81.647C150.146 81.647 149.876 81.62 149.876 80.918C149.876 79.838 149.957 78.758 149.957 77.678V61.937C149.957 61.154 149.903 60.344 149.903 59.561C149.903 58.508 150.335 58.238 151.334 58.238C152.171 58.238 153.008 58.265 153.845 58.265H168.209C169.046 58.265 169.883 58.238 170.72 58.238C171.692 58.238 172.151 58.481 172.151 59.534C172.151 60.344 172.124 61.154 172.124 61.937V77.786C172.124 78.866 172.178 79.973 172.178 81.053C172.178 81.728 171.8 81.728 170.855 81.728C169.802 81.728 169.505 81.728 169.505 81.026C169.505 80.945 169.505 80.864 169.532 80.783C169.505 80.378 169.316 80.189 168.884 80.189ZM158.246 62.261H159.191C159.623 62.261 159.785 62.099 159.785 61.64C159.785 61.532 159.758 61.289 159.758 61.181C159.758 60.884 159.92 60.83 160.163 60.83C160.568 60.83 161.891 60.965 162.35 60.992C162.539 61.019 163.025 61.046 163.025 61.316C163.025 61.505 162.809 61.586 162.674 61.667C162.566 61.748 162.539 61.775 162.458 61.883C162.431 61.91 162.404 61.964 162.404 62.018C162.404 62.207 162.62 62.261 162.782 62.261H163.916C164.834 62.261 165.752 62.207 166.67 62.207C167.264 62.207 167.237 62.423 167.237 63.098C167.237 63.773 167.264 63.962 166.67 63.962C165.752 63.962 164.834 63.908 163.916 63.908H162.863C162.485 63.908 162.35 64.043 162.35 64.421V64.475C162.35 64.853 162.485 64.988 162.863 64.988H164.429C165.482 64.988 166.562 64.934 167.615 64.934C168.29 64.934 168.29 65.15 168.29 65.825C168.29 66.473 168.29 66.689 167.615 66.689C166.562 66.689 165.482 66.635 164.429 66.635H157.733C156.68 66.635 155.6 66.689 154.547 66.689C153.872 66.689 153.872 66.5 153.872 65.825C153.872 65.123 153.872 64.934 154.547 64.934C155.6 64.934 156.68 64.988 157.733 64.988H159.326C159.677 64.988 159.839 64.853 159.839 64.475V64.421C159.839 64.043 159.677 63.908 159.326 63.908H158.246C157.328 63.908 156.41 63.962 155.492 63.962C154.925 63.962 154.925 63.746 154.925 63.098C154.925 62.423 154.925 62.207 155.492 62.207C156.41 62.207 157.328 62.261 158.246 62.261ZM201.878 79.757C201.878 80.189 200.636 81.269 200.177 81.269C199.907 81.269 199.637 80.918 199.475 80.729C198.071 79.136 196.451 77.705 194.75 76.463C194.588 76.355 194.318 76.166 194.318 75.923C194.318 75.491 195.479 74.492 195.911 74.492C196.667 74.492 201.878 79.082 201.878 79.757ZM187.514 75.977C187.514 76.058 187.433 76.247 187.136 76.247H187.028C186.731 76.247 186.623 76.382 186.434 76.598C185.678 77.435 182.087 81.08 181.115 81.08C180.575 81.08 179.306 79.892 179.306 79.487C179.306 79.217 179.522 79.082 179.711 78.974C181.574 77.813 183.167 76.301 184.598 74.627C184.706 74.492 184.841 74.303 185.057 74.303C185.273 74.303 185.921 74.735 186.434 75.086C186.677 75.248 186.893 75.383 187.001 75.437C187.136 75.545 187.514 75.788 187.514 75.977ZM193.886 66.608C194.075 66.608 194.264 66.527 194.264 66.284C194.264 66.176 194.237 66.095 194.183 66.014C193.049 64.556 192.347 63.368 191.564 61.694C191.483 61.586 191.402 61.505 191.294 61.505C191.159 61.505 191.078 61.586 190.997 61.694C190.43 62.936 189.08 65.015 188.162 66.068C188.108 66.122 188.054 66.203 188.054 66.311C188.054 66.608 188.324 66.635 188.405 66.635H192.509C192.968 66.635 193.427 66.635 193.886 66.608ZM198.665 71.225C198.8 71.225 198.962 71.144 198.962 70.982C198.962 70.901 198.908 70.82 198.827 70.766C197.747 69.902 196.748 68.93 195.776 67.931C195.722 67.877 195.668 67.85 195.587 67.85C195.452 67.85 195.371 67.958 195.371 68.093C195.344 68.714 195.425 69.092 194.804 69.092C194.048 69.092 193.292 69.038 192.509 69.038H189.323C188.54 69.038 187.784 69.092 187.001 69.092C186.488 69.092 186.461 68.822 186.461 68.39C186.434 68.255 186.38 68.174 186.245 68.174C186.191 68.174 186.137 68.228 186.083 68.255C185.138 69.146 184.166 70.01 183.14 70.793C183.059 70.847 183.005 70.928 183.005 71.009C183.005 71.117 183.086 71.225 183.275 71.252C183.896 71.252 184.517 71.279 185.138 71.279H196.532C197.261 71.279 197.963 71.279 198.665 71.225ZM185.219 65.528C185.3 65.42 185.354 65.312 185.354 65.204C185.354 65.042 185.3 64.934 185.192 64.826C184.814 64.475 184.409 64.124 184.004 63.773C183.869 63.665 183.734 63.584 183.545 63.584C183.302 63.584 183.194 63.692 183.032 63.854C182.951 63.935 182.87 64.043 182.789 64.124C182.735 64.232 182.681 64.313 182.681 64.448C182.681 64.583 182.762 64.691 182.843 64.799L184.112 65.987C184.193 66.068 184.301 66.149 184.436 66.149C184.598 66.149 184.679 66.068 184.787 65.987C184.949 65.825 185.084 65.663 185.219 65.528ZM185.057 62.018C185.462 62.369 185.867 62.747 186.272 63.125C186.38 63.233 186.515 63.314 186.704 63.314C186.92 63.314 187.055 63.206 187.163 63.044C187.352 62.774 188.027 61.775 188.027 61.505C188.027 61.316 187.757 61.289 187.352 61.289H185.462C185.219 61.289 185.057 61.316 184.868 61.478C184.841 61.532 184.841 61.559 184.841 61.613C184.841 61.802 184.922 61.91 185.057 62.018ZM182.465 67.148L181.655 66.419C181.493 66.284 181.358 66.203 181.169 66.203C180.953 66.203 180.791 66.311 180.629 66.419C180.467 66.581 180.305 66.716 180.089 66.716C179.603 66.716 178.496 65.609 178.496 65.123C178.496 64.853 178.793 64.61 179.009 64.421C180.98 62.558 182.87 60.317 183.842 57.779C183.896 57.59 183.95 57.401 184.193 57.401C184.355 57.401 185.543 57.725 185.813 57.806C186.731 58.022 187.19 58.103 187.19 58.427C187.19 58.616 186.92 58.724 186.758 58.751C186.623 58.778 186.353 58.805 186.353 58.994C186.353 59.129 186.542 59.183 186.65 59.21H187.784C188.432 59.21 189.08 59.183 189.728 59.183H189.971C190.187 59.183 190.403 59.129 190.403 58.859V58.724C190.376 58.589 190.349 58.481 190.349 58.373C190.349 57.725 192.158 57.59 192.185 57.59C192.59 57.59 192.671 57.914 192.779 58.238C193.481 60.398 194.48 62.18 195.83 64.016C195.938 64.178 196.073 64.286 196.289 64.286C196.586 64.286 196.802 63.962 196.964 63.746C197.585 62.99 198.935 61.343 198.935 61.073C198.935 60.857 198.584 60.884 198.314 60.884H196.856C196.262 60.884 195.587 60.938 195.074 60.938C194.453 60.938 194.453 60.695 194.453 59.831C194.453 58.913 194.48 58.724 195.074 58.724C195.506 58.724 196.073 58.778 196.964 58.778H198.476C199.097 58.778 199.718 58.751 200.366 58.751C201.608 58.751 202.229 59.858 202.229 60.263C202.229 61.478 199.259 64.853 198.395 65.906C198.26 66.068 198.179 66.203 198.179 66.392C198.179 66.635 198.287 66.77 198.449 66.905C199.61 68.012 200.879 68.984 202.202 69.875C202.526 70.091 202.877 70.28 202.877 70.577C202.877 71.09 201.878 72.494 201.365 72.494C201.122 72.494 200.69 72.17 200.501 72.035C200.42 71.981 200.366 71.954 200.285 71.954C200.042 71.954 199.988 72.143 199.961 72.332C199.961 73.358 199.988 73.682 199.367 73.682C198.422 73.682 197.477 73.628 196.532 73.628H192.968C192.455 73.628 192.212 73.844 192.212 74.384V76.895C192.212 77.435 192.266 77.975 192.266 78.515C192.266 80.54 192.158 81.728 187.892 81.728H187.568C187.19 81.728 186.758 81.701 186.596 81.431C186.326 81.053 186.164 80.054 186.164 79.595C186.164 79.055 186.353 78.947 186.677 78.947C187.082 78.947 187.487 79.001 187.892 79.001C189.377 79.001 189.35 78.731 189.35 77.327V74.384C189.35 73.844 189.134 73.628 188.594 73.628H185.138C184.193 73.628 183.248 73.682 182.303 73.682C181.628 73.682 181.736 73.304 181.709 72.521C181.682 72.305 181.601 72.116 181.358 72.116C181.25 72.116 181.196 72.143 181.115 72.197C180.818 72.386 180.386 72.71 180.035 72.71C179.306 72.71 178.388 71.387 178.388 71.036C178.388 70.631 179.252 70.199 179.576 70.01C180.602 69.389 181.439 68.822 182.384 68.12C182.546 67.985 182.681 67.823 182.681 67.607C182.681 67.418 182.573 67.283 182.465 67.148ZM225.53 57.131H230.147C230.768 57.131 231.362 57.05 231.902 57.05C232.658 57.05 232.631 57.455 232.631 58.346C232.631 59.345 232.631 59.696 231.875 59.696C231.416 59.696 230.957 59.615 230.525 59.615H226.475C225.611 59.615 225.503 60.047 225.503 60.803V78.002C225.503 79.109 225.557 80.243 225.557 81.35C225.557 82.376 225.449 82.403 224.261 82.403C223.046 82.403 222.965 82.349 222.965 81.323C222.965 80.216 223.019 79.109 223.019 78.002V60.911C223.019 60.02 222.965 59.156 222.965 58.265C222.965 57.32 223.343 57.077 224.261 57.077C224.666 57.077 225.098 57.131 225.53 57.131ZM251.612 62.882V76.652C251.612 77.192 251.855 77.408 252.368 77.408H257.984C259.118 77.408 260.252 77.354 261.386 77.354C262.088 77.354 262.061 77.678 262.061 78.758C262.061 79.811 262.088 80.162 261.386 80.162C260.252 80.162 259.118 80.108 257.984 80.108H242.27C241.136 80.108 240.002 80.162 238.868 80.162C238.166 80.162 238.193 79.811 238.193 78.758C238.193 77.678 238.193 77.354 238.868 77.354C240.002 77.354 241.136 77.408 242.27 77.408H247.886C248.426 77.408 248.642 77.192 248.642 76.652V62.882C248.642 62.369 248.426 62.126 247.886 62.126H243.512C242.432 62.126 241.379 62.207 240.299 62.207C239.57 62.207 239.597 61.856 239.597 60.776C239.597 59.696 239.57 59.345 240.299 59.345C241.379 59.345 242.432 59.426 243.512 59.426H256.823C257.903 59.426 258.983 59.345 260.063 59.345C260.792 59.345 260.765 59.723 260.765 60.776C260.765 61.856 260.792 62.207 260.063 62.207C258.983 62.207 257.903 62.126 256.823 62.126H252.368C251.855 62.126 251.612 62.369 251.612 62.882ZM277.694 68.417V68.228C277.694 67.85 277.424 67.715 277.1 67.715H271.457C270.404 67.715 269.351 67.769 268.298 67.769C267.623 67.769 267.65 67.418 267.65 66.365C267.65 65.285 267.623 64.934 268.298 64.934C269.351 64.934 270.404 65.015 271.457 65.015H277.478C277.991 65.015 278.207 64.826 278.261 64.286C278.315 63.449 278.342 62.585 278.342 61.748V60.614C278.342 59.804 278.342 58.913 278.261 58.292C278.234 58.238 278.234 58.157 278.234 58.103C278.234 57.725 278.531 57.671 278.828 57.671C279.287 57.671 280.88 57.806 281.366 57.86C281.555 57.887 281.879 57.941 281.879 58.211C281.879 58.346 281.771 58.427 281.663 58.508C281.312 58.751 281.258 58.94 281.258 59.345C281.204 60.992 281.258 62.639 281.177 64.313C281.204 64.799 281.42 65.015 281.906 65.015H287.981C289.034 65.015 290.087 64.934 291.167 64.934C291.842 64.934 291.788 65.312 291.788 66.365C291.788 67.445 291.842 67.769 291.14 67.769C290.087 67.769 289.034 67.715 287.981 67.715H282.176C281.906 67.742 281.636 67.823 281.636 68.147C281.636 68.255 281.663 68.309 281.663 68.39C283.445 73.007 286.577 76.652 290.951 79.001C291.221 79.163 291.464 79.271 291.464 79.622C291.464 80.189 290.492 81.674 289.871 81.674C289.412 81.674 287.657 80.459 287.225 80.135C283.958 77.786 281.879 75.113 280.097 71.522C280.043 71.414 279.962 71.333 279.827 71.333C279.692 71.333 279.611 71.441 279.53 71.549C277.775 75.869 274.211 79.217 270.107 81.296C270.053 81.323 270.026 81.35 269.972 81.35C269.675 81.512 269.297 81.674 269.027 81.674C268.352 81.674 267.65 79.865 267.65 79.433C267.65 79.109 267.974 78.947 268.244 78.812C268.325 78.785 268.379 78.758 268.433 78.731C272.996 76.625 276.398 73.412 277.694 68.417ZM320.678 79.757C320.678 80.189 319.436 81.269 318.977 81.269C318.707 81.269 318.437 80.918 318.275 80.729C316.871 79.136 315.251 77.705 313.55 76.463C313.388 76.355 313.118 76.166 313.118 75.923C313.118 75.491 314.279 74.492 314.711 74.492C315.467 74.492 320.678 79.082 320.678 79.757ZM306.314 75.977C306.314 76.058 306.233 76.247 305.936 76.247H305.828C305.531 76.247 305.423 76.382 305.234 76.598C304.478 77.435 300.887 81.08 299.915 81.08C299.375 81.08 298.106 79.892 298.106 79.487C298.106 79.217 298.322 79.082 298.511 78.974C300.374 77.813 301.967 76.301 303.398 74.627C303.506 74.492 303.641 74.303 303.857 74.303C304.073 74.303 304.721 74.735 305.234 75.086C305.477 75.248 305.693 75.383 305.801 75.437C305.936 75.545 306.314 75.788 306.314 75.977ZM312.686 66.608C312.875 66.608 313.064 66.527 313.064 66.284C313.064 66.176 313.037 66.095 312.983 66.014C311.849 64.556 311.147 63.368 310.364 61.694C310.283 61.586 310.202 61.505 310.094 61.505C309.959 61.505 309.878 61.586 309.797 61.694C309.23 62.936 307.88 65.015 306.962 66.068C306.908 66.122 306.854 66.203 306.854 66.311C306.854 66.608 307.124 66.635 307.205 66.635H311.309C311.768 66.635 312.227 66.635 312.686 66.608ZM317.465 71.225C317.6 71.225 317.762 71.144 317.762 70.982C317.762 70.901 317.708 70.82 317.627 70.766C316.547 69.902 315.548 68.93 314.576 67.931C314.522 67.877 314.468 67.85 314.387 67.85C314.252 67.85 314.171 67.958 314.171 68.093C314.144 68.714 314.225 69.092 313.604 69.092C312.848 69.092 312.092 69.038 311.309 69.038H308.123C307.34 69.038 306.584 69.092 305.801 69.092C305.288 69.092 305.261 68.822 305.261 68.39C305.234 68.255 305.18 68.174 305.045 68.174C304.991 68.174 304.937 68.228 304.883 68.255C303.938 69.146 302.966 70.01 301.94 70.793C301.859 70.847 301.805 70.928 301.805 71.009C301.805 71.117 301.886 71.225 302.075 71.252C302.696 71.252 303.317 71.279 303.938 71.279H315.332C316.061 71.279 316.763 71.279 317.465 71.225ZM304.019 65.528C304.1 65.42 304.154 65.312 304.154 65.204C304.154 65.042 304.1 64.934 303.992 64.826C303.614 64.475 303.209 64.124 302.804 63.773C302.669 63.665 302.534 63.584 302.345 63.584C302.102 63.584 301.994 63.692 301.832 63.854C301.751 63.935 301.67 64.043 301.589 64.124C301.535 64.232 301.481 64.313 301.481 64.448C301.481 64.583 301.562 64.691 301.643 64.799L302.912 65.987C302.993 66.068 303.101 66.149 303.236 66.149C303.398 66.149 303.479 66.068 303.587 65.987C303.749 65.825 303.884 65.663 304.019 65.528ZM303.857 62.018C304.262 62.369 304.667 62.747 305.072 63.125C305.18 63.233 305.315 63.314 305.504 63.314C305.72 63.314 305.855 63.206 305.963 63.044C306.152 62.774 306.827 61.775 306.827 61.505C306.827 61.316 306.557 61.289 306.152 61.289H304.262C304.019 61.289 303.857 61.316 303.668 61.478C303.641 61.532 303.641 61.559 303.641 61.613C303.641 61.802 303.722 61.91 303.857 62.018ZM301.265 67.148L300.455 66.419C300.293 66.284 300.158 66.203 299.969 66.203C299.753 66.203 299.591 66.311 299.429 66.419C299.267 66.581 299.105 66.716 298.889 66.716C298.403 66.716 297.296 65.609 297.296 65.123C297.296 64.853 297.593 64.61 297.809 64.421C299.78 62.558 301.67 60.317 302.642 57.779C302.696 57.59 302.75 57.401 302.993 57.401C303.155 57.401 304.343 57.725 304.613 57.806C305.531 58.022 305.99 58.103 305.99 58.427C305.99 58.616 305.72 58.724 305.558 58.751C305.423 58.778 305.153 58.805 305.153 58.994C305.153 59.129 305.342 59.183 305.45 59.21H306.584C307.232 59.21 307.88 59.183 308.528 59.183H308.771C308.987 59.183 309.203 59.129 309.203 58.859V58.724C309.176 58.589 309.149 58.481 309.149 58.373C309.149 57.725 310.958 57.59 310.985 57.59C311.39 57.59 311.471 57.914 311.579 58.238C312.281 60.398 313.28 62.18 314.63 64.016C314.738 64.178 314.873 64.286 315.089 64.286C315.386 64.286 315.602 63.962 315.764 63.746C316.385 62.99 317.735 61.343 317.735 61.073C317.735 60.857 317.384 60.884 317.114 60.884H315.656C315.062 60.884 314.387 60.938 313.874 60.938C313.253 60.938 313.253 60.695 313.253 59.831C313.253 58.913 313.28 58.724 313.874 58.724C314.306 58.724 314.873 58.778 315.764 58.778H317.276C317.897 58.778 318.518 58.751 319.166 58.751C320.408 58.751 321.029 59.858 321.029 60.263C321.029 61.478 318.059 64.853 317.195 65.906C317.06 66.068 316.979 66.203 316.979 66.392C316.979 66.635 317.087 66.77 317.249 66.905C318.41 68.012 319.679 68.984 321.002 69.875C321.326 70.091 321.677 70.28 321.677 70.577C321.677 71.09 320.678 72.494 320.165 72.494C319.922 72.494 319.49 72.17 319.301 72.035C319.22 71.981 319.166 71.954 319.085 71.954C318.842 71.954 318.788 72.143 318.761 72.332C318.761 73.358 318.788 73.682 318.167 73.682C317.222 73.682 316.277 73.628 315.332 73.628H311.768C311.255 73.628 311.012 73.844 311.012 74.384V76.895C311.012 77.435 311.066 77.975 311.066 78.515C311.066 80.54 310.958 81.728 306.692 81.728H306.368C305.99 81.728 305.558 81.701 305.396 81.431C305.126 81.053 304.964 80.054 304.964 79.595C304.964 79.055 305.153 78.947 305.477 78.947C305.882 78.947 306.287 79.001 306.692 79.001C308.177 79.001 308.15 78.731 308.15 77.327V74.384C308.15 73.844 307.934 73.628 307.394 73.628H303.938C302.993 73.628 302.048 73.682 301.103 73.682C300.428 73.682 300.536 73.304 300.509 72.521C300.482 72.305 300.401 72.116 300.158 72.116C300.05 72.116 299.996 72.143 299.915 72.197C299.618 72.386 299.186 72.71 298.835 72.71C298.106 72.71 297.188 71.387 297.188 71.036C297.188 70.631 298.052 70.199 298.376 70.01C299.402 69.389 300.239 68.822 301.184 68.12C301.346 67.985 301.481 67.823 301.481 67.607C301.481 67.418 301.373 67.283 301.265 67.148ZM334.07 82.349H329.453C328.805 82.349 328.211 82.43 327.671 82.43C326.969 82.43 326.969 82.052 326.969 81.188C326.969 80.162 326.942 79.784 327.698 79.784C328.157 79.784 328.616 79.865 329.075 79.865H333.098C333.962 79.865 334.07 79.433 334.07 78.677V61.478C334.07 60.344 334.016 59.21 334.016 58.076C334.016 57.104 334.151 57.077 335.312 57.077C336.554 57.077 336.608 57.131 336.608 58.157C336.608 59.264 336.554 60.371 336.554 61.478V78.569C336.554 79.46 336.608 80.324 336.608 81.215C336.608 82.16 336.23 82.403 335.339 82.403C334.907 82.403 334.475 82.349 334.07 82.349ZM367.577 73.574C367.739 73.574 367.847 73.709 367.928 73.817C369.089 75.248 370.223 75.707 372.032 75.707C374.057 75.707 376.028 75.383 377.972 74.843C378.107 74.789 378.377 74.735 378.539 74.735C378.971 74.735 379.025 75.383 379.025 76.76C379.025 77.084 379.052 77.57 378.701 77.759C377.945 78.164 373.382 78.569 372.302 78.569C367.928 78.569 366.119 76.301 366.119 75.869C366.119 75.491 367.064 73.574 367.577 73.574ZM368.198 61.883C368.387 61.883 368.684 61.964 368.9 62.018C370.007 62.261 371.303 62.423 372.437 62.423C373.787 62.423 375.218 62.207 376.541 61.883C376.676 61.856 376.865 61.802 377.027 61.802C377.405 61.802 377.513 62.126 377.567 62.45C377.621 62.936 377.675 63.422 377.675 63.908C377.675 64.475 377.675 64.691 377.162 64.799C376.082 65.015 373.76 65.177 372.626 65.177C371.789 65.177 368.468 65.015 367.901 64.637C367.604 64.448 367.631 63.881 367.631 63.584C367.631 62.288 367.766 61.883 368.198 61.883ZM361.718 59.777C361.934 59.777 364.202 60.749 364.58 60.911C364.796 60.992 365.12 61.1 365.12 61.37C365.12 61.532 365.012 61.559 364.742 61.721C364.283 61.964 364.175 62.207 363.905 62.882C362.96 65.285 362.393 67.985 362.393 70.55C362.393 71.063 362.501 74.33 363.122 74.33C363.365 74.33 363.743 73.547 363.851 73.277C364.013 72.926 364.175 72.629 364.418 72.629C364.688 72.629 365.39 73.196 365.39 73.493C365.39 73.736 364.31 76.193 364.31 77.408C364.31 77.678 364.391 78.299 364.418 78.542C364.445 78.677 364.472 78.839 364.472 78.947C364.472 79.622 362.933 80.27 362.366 80.27C361.907 80.27 361.583 79.676 361.232 78.947C359.963 76.382 359.585 73.493 359.585 70.658C359.585 67.499 360.125 64.745 360.962 61.721C361.097 61.262 361.232 60.83 361.313 60.371C361.367 60.128 361.421 59.777 361.718 59.777ZM5.777 122.069C5.777 122.393 5.453 122.474 5.183 122.555C4.859 122.663 4.319 122.798 3.968 122.798C3.509 122.798 3.482 122.744 3.212 121.907C3.131 121.637 3.023 121.34 2.861 120.881C2.834 120.773 2.753 120.584 2.753 120.503C2.753 120.044 4.184 119.747 4.562 119.747C4.967 119.747 5.048 119.99 5.399 120.881C5.48 121.097 5.777 121.88 5.777 122.069ZM18.197 125.66H17.441C16.928 125.66 16.712 125.876 16.685 126.389C16.577 129.494 16.064 132.464 14.741 135.299C14.309 136.244 13.769 137.189 13.148 137.999C13.013 138.188 12.851 138.323 12.608 138.323C12.149 138.323 10.502 137.648 10.502 137.135C10.502 136.892 10.745 136.622 10.88 136.46C13.391 133.301 13.985 129.44 13.985 125.525V118.208C13.985 117.074 14.336 116.939 15.794 116.777C17.279 116.615 20.924 115.886 22.193 115.211C22.301 115.157 22.355 115.13 22.49 115.13C22.868 115.13 23.462 115.994 23.705 116.345C23.894 116.615 24.434 117.155 24.434 117.479C24.434 117.722 24.245 117.803 24.056 117.803C23.921 117.803 23.786 117.749 23.651 117.722C23.516 117.668 23.354 117.641 23.192 117.641C23.084 117.641 22.976 117.668 22.868 117.695C21.356 118.154 19.277 118.667 17.711 118.829C16.739 118.937 16.685 119.072 16.685 120.422V122.393C16.685 122.933 16.901 123.149 17.441 123.149H21.275C22.139 123.149 23.03 123.095 23.759 123.095C24.461 123.095 24.434 123.473 24.434 124.418C24.434 125.39 24.461 125.741 23.759 125.741C23.3 125.741 22.841 125.687 22.355 125.687C21.842 125.714 21.653 125.93 21.653 126.416V134.921C21.653 135.92 21.734 136.946 21.734 137.945C21.734 138.755 21.437 138.782 20.303 138.782C19.196 138.782 18.872 138.755 18.872 137.945C18.872 136.946 18.953 135.92 18.953 134.921V126.416C18.953 125.903 18.737 125.66 18.197 125.66ZM8.153 116.534C8.18 117.047 8.396 117.236 8.909 117.236H9.476C10.259 117.236 11.015 117.182 11.798 117.182C12.446 117.182 12.446 117.533 12.446 118.37C12.446 119.207 12.446 119.558 11.798 119.558C11.015 119.558 10.259 119.504 9.476 119.504H4.184C3.401 119.504 2.645 119.558 1.862 119.558C1.187 119.558 1.214 119.18 1.214 118.37C1.214 117.56 1.187 117.182 1.862 117.182C2.645 117.182 3.401 117.236 4.184 117.236H4.643C5.156 117.236 5.372 117.047 5.399 116.507C5.399 116.102 5.372 115.616 5.291 115.211V114.968C5.291 114.671 5.507 114.617 5.75 114.617C6.101 114.617 7.64 114.752 8.072 114.806C8.558 114.86 8.774 114.941 8.774 115.157C8.774 115.319 8.612 115.4 8.45 115.535C8.153 115.751 8.153 116.048 8.153 116.534ZM4.265 130.466C4.292 130.358 4.319 130.304 4.319 130.196C4.319 129.926 4.103 129.845 3.86 129.818C3.266 129.818 2.321 129.872 1.754 129.872C1.079 129.872 1.106 129.548 1.106 128.63C1.106 127.685 1.079 127.361 1.754 127.361C2.618 127.361 3.482 127.442 4.373 127.442H4.724C5.183 127.442 5.453 127.226 5.453 126.74C5.453 126.578 5.426 126.335 5.399 126.173C5.372 126.119 5.372 126.011 5.372 125.93C5.372 125.606 5.642 125.606 5.831 125.606C6.29 125.606 7.505 125.687 7.991 125.714C8.207 125.714 8.639 125.741 8.639 126.038C8.639 126.2 8.531 126.254 8.342 126.389C8.18 126.497 8.099 126.632 8.099 126.821C8.099 127.253 8.45 127.442 8.828 127.442H9.071C9.962 127.442 10.826 127.361 11.69 127.361C12.365 127.361 12.338 127.739 12.338 128.63C12.338 129.521 12.365 129.872 11.69 129.872C10.934 129.872 10.178 129.818 9.449 129.818C9.233 129.818 9.044 129.899 9.044 130.142C9.044 130.25 9.071 130.304 9.125 130.385C9.773 131.222 10.475 132.005 11.258 132.707C11.393 132.815 11.501 132.896 11.501 133.085C11.501 133.544 10.556 134.813 10.07 134.813C9.665 134.813 8.72 133.436 8.477 133.085C8.396 133.031 8.342 132.977 8.261 132.977C8.126 132.977 8.072 133.112 8.072 133.247V135.002C8.072 136.001 8.126 137 8.126 138.026C8.126 138.782 7.856 138.782 6.776 138.782C5.696 138.782 5.399 138.782 5.399 138.026C5.399 137.027 5.48 136.001 5.48 135.002V133.679C5.453 133.571 5.426 133.463 5.291 133.463C5.21 133.463 5.156 133.49 5.129 133.544C4.805 134.084 3.185 136.838 2.672 136.838C2.24 136.838 0.89 135.785 0.89 135.245C0.89 135.002 1.052 134.894 1.214 134.732C2.348 133.571 3.482 131.897 4.265 130.466ZM3.968 123.014H6.614C7.154 123.014 7.397 122.906 7.667 122.42C8.072 121.61 8.315 120.989 8.585 120.098C8.639 119.909 8.666 119.72 8.909 119.72C9.287 119.72 11.339 120.26 11.339 120.638C11.339 120.827 11.123 120.908 10.988 120.962C10.799 121.016 10.664 121.151 10.61 121.313C10.529 121.502 10.097 122.447 10.097 122.609C10.097 122.906 10.313 122.987 10.583 123.014C10.772 123.014 12.23 122.96 12.392 122.96C13.067 122.96 13.04 123.311 13.04 124.148C13.04 125.039 13.067 125.336 12.365 125.336C11.42 125.336 10.475 125.282 9.557 125.282H3.968C3.023 125.282 2.078 125.336 1.133 125.336C0.431 125.336 0.458 124.985 0.458 124.148C0.458 123.284 0.458 122.96 1.133 122.96C2.078 122.96 3.023 123.014 3.968 123.014ZM35.693 120.908H49.841C50.354 120.908 50.921 120.908 51.353 120.827C51.434 120.8 51.542 120.8 51.623 120.8C52.163 120.8 53.513 122.501 53.513 122.825C53.513 122.987 53.135 123.338 52.676 123.743C52.433 123.959 52.19 124.175 51.947 124.418C49.652 126.686 47.276 128.927 44.792 131.006C44.549 131.222 44.279 131.438 44.279 131.789C44.279 132.086 44.522 132.329 44.684 132.572C44.873 132.842 45.683 133.976 45.683 134.219C45.683 134.732 44.009 135.812 43.442 135.812C43.172 135.812 43.01 135.542 42.902 135.326C41.579 133.193 39.878 131.141 38.015 129.494C37.853 129.332 37.502 129.035 37.502 128.792C37.502 128.387 38.96 127.172 39.5 127.172C39.905 127.172 41.255 128.549 41.606 128.9C41.822 129.116 41.984 129.305 42.308 129.305C42.578 129.305 42.767 129.17 42.956 129.008C44.117 128.036 45.251 127.037 46.331 126.011C46.628 125.741 48.032 124.445 48.032 124.121C48.032 123.743 47.546 123.77 47.033 123.77H35.693C34.505 123.77 33.155 123.851 32.237 123.851C31.508 123.851 31.535 123.311 31.535 122.555C31.535 121.151 31.508 120.854 32.183 120.854C33.371 120.854 34.532 120.908 35.693 120.908ZM68.606 118.586H75.95C76.382 118.586 76.841 118.586 77.111 118.532C77.273 118.532 77.543 118.478 77.705 118.478C78.272 118.478 79.433 119.963 79.433 120.314C79.433 120.449 79.136 120.881 78.839 121.367C78.677 121.61 78.515 121.88 78.407 122.069C77.327 123.878 76.247 125.579 74.897 127.199C74.762 127.361 74.681 127.496 74.681 127.712C74.681 128.036 74.843 128.198 75.086 128.36C76.571 129.332 78.299 130.655 79.649 131.843C80.297 132.41 80.972 133.031 81.593 133.679C81.701 133.787 81.782 133.895 81.782 134.057C81.782 134.624 80.297 136.217 79.73 136.217C79.433 136.217 79.244 136.028 79.055 135.812C77.111 133.49 75.491 132.194 73.088 130.466C72.872 130.304 72.71 130.223 72.467 130.223C72.116 130.223 71.873 130.493 71.657 130.682C69.659 132.545 67.337 134.165 64.907 135.407C64.664 135.542 63.962 135.92 63.719 135.92C63.152 135.92 61.91 134.111 61.91 133.625C61.91 133.301 62.234 133.166 62.477 133.085C67.256 131.249 71.792 127.118 74.519 122.852C74.654 122.636 74.978 122.177 74.978 121.934C74.978 121.529 74.6 121.475 74.195 121.475H68.606C67.445 121.475 66.284 121.529 65.123 121.529C64.394 121.529 64.448 121.124 64.448 119.882C64.448 118.937 64.421 118.532 65.096 118.532C66.257 118.532 67.418 118.586 68.606 118.586ZM96.983 119.477H106.244C106.946 119.477 107.621 119.45 108.323 119.45C109.403 119.45 110.105 119.558 110.105 120.827C110.105 121.637 110.078 122.447 110.078 123.257V132.356C110.078 133.166 110.105 134.003 110.105 134.813C110.105 135.65 109.943 135.65 108.485 135.65C107.243 135.65 107.216 135.596 107.108 135.083C106.973 134.462 106.622 134.462 105.812 134.462H97.037C95.849 134.462 94.256 134.516 93.554 134.516C92.879 134.516 92.906 134.138 92.906 132.95C92.906 131.87 92.852 131.519 93.5 131.519C94.148 131.519 95.714 131.6 97.01 131.6H106.325C106.784 131.6 107.135 131.222 107.135 130.79V123.149C107.135 122.69 106.784 122.339 106.325 122.339H97.01C95.849 122.339 94.202 122.42 93.527 122.42C92.933 122.42 92.879 122.042 92.879 120.692C92.879 119.612 92.987 119.396 93.473 119.396C93.878 119.396 94.256 119.45 94.634 119.45C95.417 119.477 96.2 119.477 96.983 119.477ZM136.808 122.366C137.051 122.366 138.698 123.014 139.022 123.149C139.238 123.23 139.508 123.365 139.508 123.635C139.508 123.824 139.319 123.932 139.184 124.04C138.968 124.202 138.941 124.283 138.833 124.607C138.023 127.388 136.997 129.926 135.134 132.167C133.163 134.489 130.679 135.947 127.79 136.865C127.601 136.919 127.142 137.081 126.953 137.081C126.44 137.081 125.441 135.596 125.441 135.218C125.441 134.921 125.603 134.813 125.873 134.732C129.356 133.787 132.299 132.194 134.243 129.035C135.404 127.172 136.16 125.066 136.457 122.906C136.484 122.663 136.511 122.366 136.808 122.366ZM132.029 123.338L132.272 123.743C132.515 124.121 133.487 125.606 133.487 125.957C133.487 126.497 131.921 127.199 131.543 127.199C131.273 127.199 131.111 126.902 131.003 126.686C130.436 125.552 129.815 124.553 129.113 123.5C129.005 123.365 128.87 123.176 128.87 122.96C128.87 122.501 130.328 121.826 130.679 121.826C131.057 121.826 131.57 122.582 132.029 123.338ZM125.198 123.338C125.414 123.338 125.522 123.446 125.657 123.581C125.954 123.932 126.575 124.904 126.845 125.336C127.088 125.714 128.006 127.118 128.006 127.469C128.006 128.036 126.386 128.711 126.062 128.711C125.792 128.711 125.657 128.468 125.549 128.252C124.982 127.118 124.334 126.038 123.605 124.985C123.524 124.85 123.389 124.688 123.389 124.499C123.389 124.013 124.847 123.338 125.198 123.338ZM161.297 123.716C161.486 123.5 161.783 123.122 162.08 123.122C162.62 123.122 165.32 125.255 165.86 125.714C166.238 126.038 167.75 127.199 167.75 127.658C167.75 128.117 166.481 129.521 165.941 129.521C165.725 129.521 165.509 129.332 165.347 129.17C163.889 127.874 163.025 127.145 161.432 126.011C161.351 125.957 161.27 125.903 161.162 125.903C160.919 125.903 160.838 126.119 160.838 126.335V133.706C160.838 134.786 160.892 135.839 160.892 136.919C160.892 138.161 160.865 138.323 159.218 138.323C158.138 138.323 157.679 138.296 157.679 137.405C157.679 136.19 157.76 134.975 157.76 133.76V118.37C157.76 117.668 157.706 116.939 157.679 116.264C157.679 116.129 157.652 115.886 157.652 115.778C157.652 115.508 157.733 115.373 158.003 115.373C158.165 115.373 158.732 115.454 158.921 115.481C160.136 115.643 161.243 115.751 161.243 116.129C161.243 116.237 161.162 116.399 161.108 116.48C160.865 116.777 160.811 117.182 160.811 117.911C160.811 118.316 160.838 118.829 160.838 119.504V123.554C160.838 123.77 160.973 123.824 161.054 123.824C161.162 123.824 161.216 123.797 161.297 123.716ZM185.003 121.097L187.271 120.773C187.622 120.719 187.865 120.422 187.865 120.071C187.865 119.936 187.838 119.801 187.811 119.639L187.676 119.018C187.514 118.289 187.298 117.047 187.082 116.345C187.055 116.264 187.001 116.156 187.001 116.048C187.001 115.697 187.46 115.697 188.135 115.67C188.783 115.643 189.431 115.616 190.079 115.616C190.241 115.616 190.565 115.616 190.565 115.859C190.565 116.129 190.241 116.318 190.241 116.858C190.241 117.128 190.511 118.613 190.565 118.991L190.673 119.45C190.781 119.882 191.105 120.206 191.564 120.152L193.805 119.828C194.291 119.747 197.261 119.261 197.423 119.261C197.909 119.261 197.936 119.747 198.017 120.152C198.071 120.476 198.206 121.205 198.206 121.502C198.206 122.069 197.855 122.096 196.289 122.285C195.749 122.339 195.074 122.393 194.21 122.528L192.023 122.852C191.618 122.906 191.375 123.311 191.456 123.689L192.023 126.659C192.104 127.091 192.482 127.361 192.914 127.307L197.288 126.686C197.747 126.632 200.825 126.092 200.96 126.092C201.473 126.092 201.527 126.497 201.608 127.091C201.635 127.199 201.635 127.307 201.662 127.442C201.689 127.685 201.743 128.063 201.743 128.279C201.743 128.873 201.473 128.927 199.826 129.116C199.286 129.17 198.584 129.251 197.666 129.386L193.4 130.007C192.995 130.061 192.752 130.439 192.833 130.844L193.157 132.626C193.292 133.355 194.075 136.811 194.075 137.216C194.075 137.594 193.778 137.675 193.481 137.783C193.049 137.891 192.131 138.107 191.699 138.107C191.186 138.107 191.132 137.594 191.051 137C191.051 136.892 191.024 136.784 190.997 136.676C190.808 135.596 190.565 134.219 190.376 133.166L190.025 131.276C189.944 130.871 189.539 130.574 189.107 130.628L184.355 131.303C183.842 131.384 181.061 131.87 180.818 131.87C180.44 131.87 180.332 131.654 180.251 131.33C180.17 131.06 179.981 129.872 179.981 129.575C179.981 129.062 180.332 129.008 181.763 128.873C182.303 128.819 183.032 128.738 183.977 128.603L188.621 127.928C189.053 127.874 189.296 127.496 189.215 127.091L188.675 124.148C188.594 123.689 188.216 123.392 187.73 123.473L185.354 123.824C184.868 123.905 181.844 124.391 181.682 124.391C181.331 124.391 181.169 124.067 181.115 123.743C181.061 123.365 180.899 122.447 180.899 122.123C180.899 121.61 181.277 121.556 182.681 121.394C183.248 121.34 184.031 121.232 185.003 121.097ZM214.892 126.227L216.782 125.849C217.214 125.768 217.484 125.39 217.376 124.931L217.106 123.689C217.079 123.554 216.863 122.609 216.674 121.826C216.566 121.313 216.431 120.881 216.431 120.827C216.431 120.584 216.674 120.53 216.863 120.503C217.403 120.449 218.159 120.395 218.699 120.395C218.996 120.395 219.455 120.422 219.455 120.8C219.455 120.908 219.401 121.016 219.374 121.097C219.32 121.205 219.266 121.286 219.266 121.394C219.266 121.664 219.536 122.906 219.617 123.257L219.86 124.472C219.941 124.904 220.319 125.147 220.724 125.066L225.098 124.175C225.368 124.121 227.366 123.689 227.393 123.689C227.825 123.689 229.121 124.85 229.121 125.363C229.121 125.579 228.986 125.741 228.824 125.876C228.122 126.605 227.447 127.631 226.88 128.495C226.583 128.954 225.503 130.601 225.206 130.898C225.044 131.087 224.882 131.195 224.639 131.195C224.261 131.195 222.803 130.628 222.803 130.115C222.803 129.899 223.019 129.683 223.127 129.521C223.397 129.224 224.936 127.253 224.936 127.01C224.936 126.848 224.801 126.713 224.639 126.713C224.531 126.713 224.423 126.74 224.342 126.767L221.237 127.388C220.913 127.442 220.643 127.739 220.643 128.09V128.279L221.777 133.787C221.912 134.381 222.425 136.487 222.425 136.919C222.425 137.27 222.209 137.351 221.777 137.486C221.48 137.567 220.697 137.729 220.427 137.729C219.941 137.729 219.806 137.216 219.617 135.947C219.536 135.515 219.455 134.948 219.32 134.3L218.186 128.792C218.105 128.414 217.808 128.198 217.457 128.198C217.403 128.198 217.295 128.225 217.268 128.225L215.324 128.63C214.973 128.711 212.597 129.197 212.489 129.197C212.192 129.197 212.084 129.035 211.976 128.792C211.895 128.549 211.679 127.496 211.679 127.226C211.679 126.794 211.949 126.74 213.542 126.47C213.92 126.416 214.352 126.335 214.892 126.227ZM244.781 122.609H255.014C255.635 122.609 256.877 122.609 257.444 122.555C257.579 122.528 257.795 122.501 257.93 122.501C258.497 122.501 259.847 123.797 259.847 124.283C259.847 124.472 259.631 124.985 259.496 125.39C259.064 126.686 258.632 127.82 257.93 129.035C256.58 131.438 254.501 133.706 252.341 135.407C251.585 136.028 248.669 138.107 247.832 138.107C247.211 138.107 245.969 136.568 245.969 136.109C245.969 135.785 246.644 135.542 246.914 135.407C250.154 133.949 253.475 130.844 255.203 127.739C255.392 127.388 255.932 126.335 255.932 125.984C255.932 125.336 255.203 125.39 254.771 125.39H244.727C243.593 125.39 242.459 125.444 241.298 125.444C240.542 125.444 240.542 125.174 240.542 124.121C240.542 122.744 240.569 122.555 241.325 122.555C242.459 122.555 243.62 122.609 244.781 122.609ZM246.59 116.777H253.205C254.312 116.777 255.689 116.696 256.391 116.696C257.066 116.696 257.12 116.993 257.12 118.343C257.12 119.261 257.12 119.612 256.391 119.612C255.311 119.612 254.258 119.558 253.205 119.558H246.59C245.537 119.558 244.484 119.612 243.431 119.612C242.675 119.612 242.675 119.288 242.675 118.289C242.675 117.02 242.729 116.696 243.404 116.696C244.16 116.696 245.537 116.777 246.59 116.777ZM280.556 119.693H285.362C285.848 119.693 286.253 119.666 286.874 119.531C286.955 119.531 287.063 119.504 287.171 119.504C287.711 119.504 288.899 120.989 288.899 121.34C288.899 121.475 288.791 121.664 288.575 122.015C288.359 122.339 288.089 122.798 287.738 123.473C285.092 128.603 282.446 132.545 277.478 135.758C276.884 136.136 274.346 137.729 273.779 137.729C273.185 137.729 271.484 136.406 271.484 135.893C271.484 135.623 271.808 135.488 272.024 135.407C276.371 133.463 279.773 130.709 282.446 126.767C282.905 126.092 284.525 123.473 284.525 122.798C284.525 122.447 284.093 122.42 283.715 122.42H278.585C277.964 122.42 277.802 122.69 277.451 123.176C276.938 123.905 273.833 127.604 273.104 127.604C272.78 127.604 270.809 126.578 270.809 126.011C270.809 125.822 270.917 125.714 271.052 125.633C273.887 123.392 277.019 119.369 278.261 115.967C278.369 115.697 278.45 115.319 278.693 115.319C278.828 115.319 279.557 115.643 280.124 115.913C280.367 116.048 281.744 116.561 281.744 116.858C281.744 116.993 281.609 117.101 281.501 117.155C281.123 117.29 281.042 117.425 280.583 118.262C280.475 118.478 280.097 119.018 280.097 119.234C280.097 119.531 280.286 119.666 280.556 119.693ZM310.175 119.423H315.116C315.656 119.423 316.304 119.396 316.763 119.288C316.844 119.261 316.952 119.234 317.033 119.234C317.492 119.234 318.437 120.638 318.437 121.07C318.437 121.232 318.356 121.34 318.275 121.475C317.951 121.961 317.816 122.258 317.6 122.798C316.844 124.526 315.98 126.2 315.035 127.82C314.927 127.982 314.846 128.144 314.846 128.36C314.846 128.711 315.089 128.873 315.332 129.062C315.656 129.305 316.844 130.115 316.844 130.466C316.844 130.925 315.629 132.518 315.116 132.518C314.954 132.518 314.819 132.41 314.711 132.302C314.333 131.978 313.982 131.708 313.604 131.384C313.442 131.249 313.253 131.114 313.01 131.114C312.632 131.114 312.335 131.492 312.092 131.762C310.418 133.625 308.393 135.164 306.206 136.325C305.612 136.649 303.506 137.702 302.939 137.702C302.237 137.702 300.995 135.974 300.995 135.596C300.995 135.272 301.454 135.191 302.156 134.975C304.964 134.084 307.853 132.275 309.878 130.115C310.067 129.926 310.283 129.71 310.283 129.44C310.283 129.17 310.148 129.008 309.959 128.873C309.338 128.468 307.934 127.739 307.259 127.415C306.989 127.307 306.449 127.118 306.449 126.821C306.449 126.443 307.502 124.796 308.096 124.796C308.555 124.796 311.039 126.227 311.579 126.551C311.741 126.632 311.903 126.713 312.092 126.713C312.605 126.713 312.848 126.2 313.577 124.769C313.604 124.688 313.658 124.553 313.739 124.391C314.009 123.824 314.441 122.879 314.441 122.609C314.441 122.042 313.739 122.069 313.334 122.069H308.177C307.529 122.069 307.34 122.285 306.989 122.771C306.098 124.013 304.559 125.849 303.479 126.929C303.263 127.145 302.939 127.442 302.615 127.442C302.129 127.442 300.374 126.308 300.374 125.849C300.374 125.633 300.617 125.444 300.779 125.336C303.479 123.257 306.719 118.856 307.826 115.643C307.907 115.427 308.015 114.968 308.312 114.968C308.528 114.968 309.068 115.238 309.824 115.616C310.067 115.724 311.417 116.318 311.417 116.534C311.417 116.696 311.282 116.777 311.147 116.831C310.742 116.993 310.715 117.074 310.337 117.722C310.229 117.911 310.094 118.154 309.905 118.451C309.824 118.613 309.689 118.829 309.689 119.018C309.689 119.288 309.932 119.396 310.175 119.423ZM332.99 124.823H345.41C346.652 124.823 348.407 124.742 348.758 124.742C349.487 124.742 349.514 124.958 349.514 126.443C349.514 127.307 349.487 127.82 348.785 127.82C347.651 127.82 346.517 127.766 345.41 127.766H332.99C331.883 127.766 330.749 127.82 329.615 127.82C328.913 127.82 328.886 127.307 328.886 126.47C328.886 124.958 328.94 124.742 329.642 124.742C329.993 124.742 331.856 124.823 332.99 124.823ZM365.687 116.183C365.957 116.183 367.982 116.696 368.387 116.804C368.603 116.858 369.089 116.939 369.089 117.236C369.089 117.398 368.981 117.479 368.846 117.587C368.333 117.965 368.279 118.397 368.144 119.369C368.09 119.666 368.036 120.044 367.955 120.476C367.928 120.584 367.901 120.692 367.901 120.8C367.901 121.178 368.171 121.34 368.495 121.34H368.819C369.899 121.34 370.925 121.34 371.87 121.934C373.22 122.825 373.544 124.364 373.544 125.876C373.544 128.333 373.112 131.978 371.924 134.138C370.844 136.109 369.008 137.054 366.821 137.054C366.227 137.054 365.849 137 365.579 136.433C365.336 135.974 365.093 135.002 365.093 134.489C365.093 134.246 365.174 134.03 365.471 134.03C365.741 134.03 366.146 134.138 366.686 134.138C368.171 134.138 368.846 133.814 369.521 132.464C370.304 130.925 370.736 128.117 370.736 126.362C370.736 125.039 370.655 123.905 369.008 123.905C367.496 123.905 367.199 124.121 367.01 124.877C366.335 127.631 365.012 130.52 363.554 132.95C362.96 133.976 361.691 135.974 360.881 136.784C360.773 136.919 360.611 137.054 360.422 137.054C359.936 137.054 358.208 136.028 358.208 135.407C358.208 135.164 358.424 134.948 358.586 134.786C360.719 132.572 362.339 130.169 363.419 127.28C363.608 126.794 364.094 125.633 364.094 125.228C364.094 124.985 363.905 124.877 363.743 124.877C363.338 124.877 361.124 125.633 360.638 125.822C360.476 125.876 360.26 126.011 360.071 126.011C359.423 126.011 358.964 123.365 358.964 123.203C358.964 122.798 359.423 122.798 359.747 122.771C361.259 122.609 362.771 122.231 364.256 121.961C364.796 121.853 365.039 121.691 365.12 121.124C365.282 120.179 365.417 118.613 365.417 117.641C365.417 117.209 365.363 116.642 365.363 116.588C365.363 116.372 365.444 116.183 365.687 116.183ZM376.676 116.183C376.946 116.183 379.214 118.505 379.214 118.829C379.214 119.261 378.269 120.071 377.918 120.071C377.783 120.071 377.648 119.882 377.54 119.774C376.946 119.045 376.298 118.343 375.623 117.695C375.515 117.587 375.38 117.452 375.38 117.317C375.38 116.993 376.352 116.183 376.676 116.183ZM379.214 114.266C379.511 114.266 381.779 116.615 381.779 116.912C381.779 117.344 380.807 118.154 380.483 118.154C380.321 118.154 380.24 118.019 380.105 117.857C379.484 117.128 378.863 116.453 378.188 115.778C378.08 115.697 377.918 115.535 377.918 115.4C377.918 115.076 378.944 114.266 379.214 114.266ZM374.813 119.126C375.839 119.126 379.619 125.066 379.619 125.741C379.619 126.362 377.918 127.361 377.378 127.361C377.027 127.361 376.865 127.01 376.757 126.74C375.731 124.526 374.84 122.771 373.139 120.962C373.031 120.827 372.896 120.665 372.896 120.503C372.896 120.017 374.381 119.126 374.813 119.126ZM391.499 121.178H389.42C388.637 121.178 387.881 121.232 387.125 121.232C386.477 121.232 386.504 120.773 386.504 120.125C386.504 119.207 386.531 119.045 387.287 119.045C387.719 119.045 388.394 119.099 389.42 119.099H391.499C392.255 119.099 393.011 119.045 393.767 119.045C394.415 119.045 394.388 119.45 394.388 120.125C394.388 120.881 394.388 121.232 393.74 121.232C392.984 121.232 392.228 121.178 391.499 121.178ZM391.31 128.333H389.663C389.069 128.333 388.502 128.387 387.989 128.387C387.422 128.387 387.449 127.928 387.449 127.361C387.449 126.74 387.422 126.335 388.016 126.335C388.475 126.335 389.069 126.389 389.663 126.389H391.31C391.904 126.389 392.498 126.335 392.957 126.335C393.551 126.335 393.524 126.686 393.524 127.361C393.524 127.955 393.551 128.387 392.984 128.387C392.417 128.387 391.877 128.333 391.31 128.333ZM391.202 124.823H389.798C389.177 124.823 388.583 124.877 387.989 124.877C387.422 124.877 387.449 124.364 387.449 123.743C387.449 123.122 387.422 122.636 387.989 122.636C388.583 122.636 389.177 122.663 389.798 122.663H391.202C391.796 122.663 392.417 122.636 393.011 122.636C393.578 122.636 393.524 123.095 393.524 123.743C393.524 124.499 393.551 124.877 392.957 124.877C392.39 124.877 391.796 124.823 391.202 124.823ZM391.337 117.506H389.717C389.15 117.506 388.583 117.56 387.989 117.56C387.422 117.56 387.476 117.074 387.476 116.48C387.476 115.724 387.449 115.373 388.07 115.373C388.448 115.373 389.123 115.4 389.717 115.4H391.337C391.931 115.4 392.579 115.373 393.011 115.373C393.605 115.373 393.578 115.778 393.578 116.48C393.578 117.047 393.632 117.56 393.038 117.56C392.471 117.56 391.904 117.506 391.337 117.506ZM391.445 134.111V132.842C391.391 132.383 391.148 132.14 390.689 132.086H390.257C389.798 132.14 389.555 132.383 389.501 132.842V134.111C389.555 134.57 389.798 134.813 390.257 134.867H390.689C391.148 134.813 391.391 134.57 391.445 134.111ZM391.526 137.594C391.31 137.297 391.148 137.027 390.824 137.027H390.176C389.447 137.027 389.501 137.108 389.501 138.053C389.501 138.512 389.42 138.593 388.367 138.593C387.476 138.593 387.287 138.593 387.287 137.945C387.287 137.405 387.314 136.892 387.314 136.379V132.248C387.314 131.843 387.287 131.438 387.287 131.033C387.287 130.331 387.476 129.899 388.232 129.899C388.691 129.899 389.123 129.926 389.555 129.926H391.418C391.823 129.926 392.255 129.899 392.687 129.899C393.443 129.899 393.659 130.277 393.659 130.979C393.659 131.411 393.632 131.816 393.632 132.248V135.056C393.632 135.326 393.659 135.596 393.659 135.866C393.686 136.055 393.74 136.217 393.956 136.217C394.064 136.217 394.145 136.163 394.226 136.109C394.685 135.704 395.171 135.272 395.576 134.786C395.738 134.597 395.819 134.435 395.819 134.192C395.819 133.976 395.765 133.814 395.684 133.652C395.144 132.707 394.064 129.791 394.064 128.765C394.064 128.171 395.198 127.955 395.657 127.955C396.116 127.955 396.143 128.198 396.224 128.576C396.359 129.305 396.683 130.412 396.953 131.087C397.007 131.195 397.061 131.276 397.196 131.276C397.331 131.276 397.412 131.168 397.439 131.06C397.79 129.845 398.168 127.712 398.168 126.47C398.168 126.146 398.033 126.119 397.655 126.119H397.304C396.872 126.119 396.656 126.389 396.359 126.632C396.197 126.767 396.116 126.821 395.9 126.821C395.468 126.821 394.064 126.416 394.064 125.822C394.064 125.606 395.036 123.5 395.225 123.122C395.522 122.447 397.169 118.721 397.169 118.262C397.169 117.938 396.71 117.965 396.116 117.965H395.981C395.576 117.965 395.09 118.019 394.793 118.019C394.307 118.019 394.334 117.533 394.334 116.75C394.334 115.859 394.307 115.508 394.847 115.508C394.928 115.508 395.819 115.535 395.981 115.535H398.465C399.14 115.535 399.437 115.751 399.788 116.318C399.896 116.534 400.139 116.966 400.139 117.209C400.139 117.776 398.33 122.15 397.979 122.987C397.952 123.068 397.925 123.149 397.925 123.23C397.925 123.527 398.168 123.635 398.438 123.662C399.275 123.635 399.734 123.581 400.112 123.986C400.463 124.391 400.652 124.742 400.652 125.282C400.652 126.254 400.382 128.171 400.247 129.197C400.058 130.763 399.761 132.032 399.194 133.517C399.14 133.652 399.113 133.787 399.113 133.949C399.113 134.246 399.221 134.408 399.464 134.597C400.841 135.65 402.866 135.758 404.702 135.758H406.187C407.537 135.758 409.319 135.65 410.156 135.65C410.75 135.65 410.804 136.082 410.804 136.568C410.804 138.053 410.345 138.323 408.725 138.323C407.726 138.323 406.349 138.296 405.35 138.296H404.243C403.163 138.296 402.137 138.269 401.03 138.026C400.058 137.81 398.924 137.351 398.168 136.73C398.006 136.622 397.871 136.541 397.682 136.541C397.466 136.541 397.304 136.649 397.169 136.811C396.791 137.243 395.306 138.809 394.82 138.809C394.469 138.809 394.118 138.458 393.875 138.215C393.497 137.864 393.281 137.783 392.741 137.783H392.525C391.985 137.783 391.715 137.783 391.526 137.594ZM405.215 130.763V119.369C405.215 119.045 405.08 118.748 404.702 118.748C404.648 118.748 404.567 118.775 404.513 118.775C404 118.883 402.704 119.126 402.245 119.126C401.786 119.126 401.597 118.856 401.489 118.478C401.354 118.1 401.165 117.533 401.165 117.128C401.165 116.615 401.57 116.642 402.191 116.561C404.27 116.345 406.646 115.832 408.536 114.941C408.59 114.887 408.752 114.833 408.833 114.833C409.211 114.833 410.453 117.101 410.453 117.29C410.453 117.425 410.345 117.56 410.21 117.56C410.129 117.56 410.075 117.533 410.021 117.506C409.913 117.479 409.697 117.425 409.589 117.425C409.454 117.425 408.536 117.722 408.32 117.803C407.807 117.992 407.645 118.208 407.645 118.748V122.528C407.645 123.041 407.861 123.23 408.401 123.257C408.914 123.257 409.643 123.203 409.967 123.203C410.453 123.203 410.426 123.554 410.426 124.499C410.426 125.552 410.453 125.876 409.967 125.876C409.778 125.876 408.833 125.849 408.401 125.822C407.861 125.849 407.645 126.065 407.645 126.578V130.655C407.645 131.141 407.861 131.384 408.374 131.384C408.968 131.411 409.589 131.33 410.183 131.33C410.831 131.33 410.804 131.708 410.804 132.626C410.804 133.544 410.831 133.922 410.183 133.922C409.346 133.922 408.509 133.841 407.645 133.841H403.406C402.569 133.841 401.705 133.922 400.868 133.922C400.22 133.922 400.247 133.544 400.247 132.626C400.247 131.438 400.274 131.33 401.111 131.33C401.543 131.33 401.732 131.141 401.732 130.736V124.391C401.732 123.635 401.759 122.96 401.651 122.204C401.651 122.123 401.624 122.069 401.624 121.988C401.624 121.718 401.813 121.664 402.029 121.664C402.353 121.664 403.541 121.799 403.865 121.826C404.054 121.853 404.459 121.853 404.459 122.123C404.459 122.285 404.351 122.312 404.135 122.447C403.865 122.636 403.838 122.96 403.838 123.635V130.763C403.838 131.195 404.027 131.384 404.486 131.384H404.567C405.026 131.384 405.215 131.195 405.215 130.763ZM423.197 119.963H426.059C426.599 119.963 426.815 119.747 426.815 119.234V117.182C426.815 116.48 426.761 115.751 426.707 115.157C426.707 115.076 426.68 114.968 426.68 114.887C426.68 114.563 426.923 114.509 427.193 114.509C427.571 114.509 429.326 114.671 429.758 114.725C430.001 114.752 430.46 114.779 430.46 115.103C430.46 115.292 430.325 115.346 430.109 115.508C429.812 115.751 429.785 116.264 429.785 117.209V119.234C429.785 119.747 430.028 119.963 430.541 119.963H435.131C436.238 119.963 437.345 119.909 438.452 119.909C439.154 119.909 439.1 120.26 439.1 121.313C439.1 122.366 439.154 122.717 438.452 122.717C437.345 122.717 436.238 122.663 435.131 122.663H430.541C430.028 122.663 429.785 122.879 429.785 123.419V126.308C429.785 126.848 430.028 127.064 430.541 127.064H433.97C435.05 127.064 436.13 126.983 437.21 126.983C437.939 126.983 437.912 127.361 437.912 128.36C437.912 129.386 437.939 129.764 437.21 129.764C436.13 129.764 435.05 129.683 433.97 129.683H430.541C430.028 129.683 429.785 129.899 429.785 130.439V134.354C429.785 134.867 430.028 135.083 430.541 135.083H436.13C437.237 135.083 438.371 135.029 439.505 135.029C440.234 135.029 440.18 135.38 440.18 136.433C440.18 137.486 440.207 137.837 439.505 137.837C438.371 137.837 437.264 137.783 436.13 137.783H420.362C419.255 137.783 418.121 137.837 416.987 137.837C416.285 137.837 416.312 137.486 416.312 136.433C416.312 135.353 416.285 135.029 416.987 135.029C418.121 135.029 419.255 135.083 420.362 135.083H426.059C426.599 135.083 426.815 134.867 426.815 134.354V130.439C426.815 129.899 426.599 129.683 426.059 129.683H422.711C421.631 129.683 420.578 129.764 419.498 129.764C418.742 129.764 418.769 129.413 418.769 128.36C418.769 127.334 418.742 126.983 419.498 126.983C420.578 126.983 421.631 127.064 422.711 127.064H426.059C426.599 127.064 426.815 126.848 426.815 126.308V123.419C426.815 122.879 426.599 122.663 426.059 122.663H422.117C421.577 122.663 421.361 122.798 421.091 123.284C420.713 124.013 418.958 127.442 418.175 127.442C417.689 127.442 416.123 126.767 416.123 126.173C416.123 125.93 416.393 125.633 416.528 125.471C418.715 122.609 419.957 119.612 420.686 116.102C420.74 115.805 420.767 115.4 421.118 115.4C421.307 115.4 422.198 115.643 422.441 115.697C423.737 116.048 424.196 116.102 424.196 116.426C424.196 116.696 423.899 116.831 423.71 116.912C423.278 117.128 423.224 117.317 422.981 118.208C422.9 118.478 422.792 118.856 422.657 119.288C422.63 119.369 422.63 119.423 422.63 119.504C422.63 119.855 422.873 119.963 423.197 119.963ZM450.305 131.681C448.982 131.681 447.902 132.761 447.902 134.084C447.902 135.407 448.982 136.487 450.305 136.487C451.628 136.487 452.708 135.407 452.708 134.084C452.708 132.734 451.655 131.681 450.305 131.681ZM450.305 130.331C452.384 130.331 454.058 132.005 454.058 134.084C454.058 136.136 452.384 137.837 450.305 137.837C448.253 137.837 446.552 136.136 446.552 134.084C446.552 132.005 448.226 130.331 450.305 130.331Z" fill="#494949"/>
</svg>
