<svg width="366" height="48" viewBox="0 0 366 48" fill="none" xmlns="http://www.w3.org/2000/svg">
<path d="M92.376 22.472H91.48C90.936 22.472 90.584 22.888 90.584 23.368V23.784C90.584 24.296 91 24.68 91.48 24.68H92.376C92.856 24.68 93.272 24.296 93.272 23.784V23.368C93.272 22.888 92.856 22.472 92.376 22.472ZM85.176 22.472H84.216C83.736 22.472 83.32 22.888 83.32 23.368V23.784C83.32 24.296 83.736 24.68 84.216 24.68H85.176C85.656 24.68 86.072 24.296 86.072 23.784V23.368C86.072 22.888 85.688 22.472 85.176 22.472ZM85.08 28.296H83.96C83.8 28.296 83.544 28.296 83.544 28.52C83.544 28.648 83.64 28.744 83.736 28.808C83.928 28.968 84.056 29.096 84.248 29.256C84.44 29.48 85.016 30.088 85.304 30.088C85.72 30.088 85.848 29.16 85.848 28.872C85.848 28.296 85.432 28.296 85.08 28.296ZM79.192 24.392V23.208C79.192 22.248 79.128 21.32 79.128 20.392C79.128 19.144 79.736 18.856 80.856 18.856C81.816 18.856 82.776 18.92 83.704 18.92H85.432C85.784 18.92 86.072 18.632 86.072 18.312V17.992C86.072 17.64 85.784 17.352 85.432 17.352H83.384C82.072 17.352 80.792 17.448 79.48 17.448C78.68 17.448 78.616 17.032 78.616 16.328V16.264C78.616 16.136 78.584 15.976 78.424 15.976C78.264 15.976 78.168 16.264 78.104 16.392C77.752 17.064 77.432 17.736 77.08 18.376C76.984 18.568 76.856 18.792 76.856 19.048C76.856 19.368 77.112 19.464 77.4 19.528C77.624 19.592 77.912 19.656 77.912 19.944C77.912 20.136 77.784 20.2 77.592 20.392C77.304 20.648 77.272 21.032 77.272 21.416C77.272 22.216 77.272 23.048 77.272 23.848V33.896C77.272 35.368 77.368 36.84 77.368 38.344C77.368 39.144 77.016 39.208 75.928 39.208H73.976C72.92 39.208 72.568 39.144 72.568 38.344C72.568 36.84 72.664 35.368 72.664 33.896V26.472C72.664 26.184 72.664 25.864 72.376 25.864C72.248 25.864 72.184 25.928 72.088 26.024C71.96 26.152 71.8 26.28 71.576 26.28C70.808 26.28 69.016 23.208 69.016 22.44C69.016 21.992 69.528 21.448 69.784 21.128C71.96 18.408 74.2 14.408 75.16 11.08C75.288 10.664 75.416 10.088 75.96 10.088C76.28 10.088 79.192 11.08 79.768 11.272C80.12 11.368 80.76 11.56 80.76 12.008C80.76 12.232 80.472 12.328 80.312 12.424C80.024 12.552 79.672 12.712 79.672 13.064C79.672 13.32 79.96 13.32 80.248 13.32C81.304 13.352 82.328 13.384 83.384 13.384H84.984C85.56 13.384 86.04 13.16 86.04 12.488C86.04 12.008 85.976 11.4 85.976 10.984C85.976 10.472 86.264 10.344 86.712 10.344C87.128 10.344 90.52 10.536 90.872 10.6C91.128 10.632 91.416 10.728 91.416 11.08C91.416 11.336 91.256 11.432 91.064 11.56C90.648 11.784 90.584 12.008 90.584 12.456C90.584 13.128 91.032 13.384 91.672 13.384H93.528C94.84 13.384 96.12 13.32 97.432 13.32C98.232 13.32 98.296 13.64 98.296 14.536V16.2C98.296 17.128 98.232 17.448 97.4 17.448C96.12 17.448 94.808 17.352 93.528 17.352H91.192C90.84 17.352 90.584 17.64 90.584 17.992V18.312C90.584 18.632 90.84 18.92 91.192 18.92H93.048C93.976 18.92 94.904 18.856 95.832 18.856C96.888 18.856 97.624 19.048 97.624 20.36C97.624 21.32 97.56 22.248 97.56 23.208V24.392C97.56 25.672 97.656 26.952 97.656 28.264C97.656 29 97.368 29.064 95.96 29.064H94.872C93.816 29.064 93.432 29.064 93.24 28.68C93.112 28.424 93.048 28.296 92.76 28.296H91.544C90.552 28.296 90.552 28.648 90.424 29.512C90.296 30.344 90.104 31.08 89.816 31.848C89.752 32.008 89.688 32.264 89.688 32.456C89.688 32.872 90.136 33.128 90.488 33.256C92.728 34.152 94.904 34.728 97.336 35.048C98.104 35.144 98.52 35.144 98.52 35.72C98.52 36.36 97.944 39.368 96.44 39.368C96.184 39.368 95.64 39.272 95.416 39.208C92.92 38.696 90.264 37.832 87.992 36.744C87.64 36.584 87.256 36.392 86.84 36.392C86.424 36.392 86.008 36.712 85.624 36.968C84.312 37.832 82.904 38.568 81.4 39.048C81.176 39.112 80.792 39.272 80.568 39.272C79.352 39.272 77.72 36.84 77.72 35.816C77.72 35.272 78.328 35.176 78.744 35.08C79.832 34.824 80.92 34.504 81.912 33.992C82.136 33.864 82.296 33.768 82.296 33.512C82.296 33.224 81.944 32.968 81.72 32.776C81.4 32.52 80.376 31.528 80.376 31.176C80.376 30.824 81.4 29.992 81.656 29.768C81.752 29.672 82.008 29.48 82.008 29.32C82.008 29.128 81.784 29.032 80.664 29.032H79.96C79.352 29.032 79.096 28.904 79.096 28.264C79.096 26.984 79.192 25.672 79.192 24.392ZM124.344 22.696H120.376C119.832 22.696 119.48 23.112 119.48 23.592V24.776C119.48 25.256 119.864 25.672 120.376 25.672H124.344C124.856 25.672 125.24 25.256 125.24 24.776V23.592C125.24 23.112 124.856 22.696 124.344 22.696ZM113.848 22.696H110.936C109.944 22.696 109.816 23.208 109.816 24.072V24.776C109.816 25.224 110.168 25.672 110.872 25.672H113.848C114.36 25.672 114.744 25.256 114.744 24.776V23.592C114.744 23.112 114.392 22.696 113.848 22.696ZM120.376 18.472H124.344C124.856 18.472 125.24 18.088 125.24 17.576V16.424C125.24 15.912 124.856 15.528 124.344 15.528H120.376C119.864 15.528 119.48 15.912 119.48 16.424V17.576C119.48 18.088 119.832 18.472 120.376 18.472ZM110.776 18.472H113.848C114.392 18.472 114.744 18.088 114.744 17.576V16.424C114.744 15.912 114.36 15.528 113.848 15.528H110.776C110.296 15.528 109.88 15.912 109.88 16.424V17.576C109.88 18.088 110.296 18.472 110.776 18.472ZM113.848 29.8H110.872C109.784 29.8 109.496 30.344 109.336 31.304C108.92 33.608 108.12 36.136 106.872 38.088C106.584 38.536 106.168 39.176 105.56 39.176C104.856 39.176 102.328 37.512 102.328 36.648C102.328 36.456 102.424 36.264 102.648 35.944C103.384 34.792 104.12 32.904 104.472 31.56C105.272 28.616 105.304 24.712 105.304 21.608V16.264C105.304 15.112 105.208 13.992 105.208 12.84C105.208 11.592 105.688 11.08 106.968 11.08C108.024 11.08 109.08 11.144 110.136 11.144H125.016C126.04 11.144 127.096 11.08 128.12 11.08C129.4 11.08 129.912 11.528 129.912 12.84C129.912 13.96 129.848 15.112 129.848 16.264V32.488C129.848 33.352 129.88 34.248 129.88 35.112C129.88 36.552 129.624 37.768 128.248 38.536C127.16 39.144 125.752 39.24 124.504 39.24C123.384 39.24 122.936 38.952 122.552 37.896C122.296 37.192 122.168 36.424 122.168 35.656C122.168 35.08 122.264 34.632 122.936 34.632C123.128 34.632 123.288 34.632 123.48 34.664C123.768 34.696 123.96 34.696 124.248 34.696C125.176 34.696 125.24 34.408 125.24 33.544V30.696C125.24 30.216 124.856 29.8 124.344 29.8H120.376C119.864 29.8 119.48 30.216 119.48 30.696V32.616C119.48 34.312 119.576 35.976 119.576 37.64C119.576 38.44 119.192 38.504 118.104 38.504H116.12C115 38.504 114.648 38.44 114.648 37.608C114.648 35.944 114.744 34.28 114.744 32.616V30.696C114.744 30.184 114.392 29.8 113.848 29.8ZM143.16 12.392C143.896 12.392 147.352 13.096 148.376 13.32C148.632 13.384 149.08 13.512 149.08 13.768C149.08 13.896 148.952 13.992 148.856 14.024C148.344 14.312 148.28 14.696 148.12 15.496C147.32 19.432 147.096 23.464 147.096 27.464C147.096 29.992 147.096 32.584 149.656 32.584C151.672 32.584 153.592 31.4 154.808 29.864C155.864 28.552 156.568 26.856 156.856 25.224C156.984 24.584 157.08 24.008 157.624 24.008C158.328 24.008 159.288 24.872 159.8 25.32C160.376 25.832 161.336 26.696 161.336 27.496C161.336 28.456 160.44 30.568 159.96 31.432C157.912 35.208 154.296 37.704 149.912 37.704C147.64 37.704 145.208 36.936 143.736 35.08C142.136 33.032 141.944 29.64 141.944 27.08C141.944 23.4 142.264 19.464 142.52 16.008C142.584 15.336 142.616 14.248 142.616 13.512C142.616 12.808 142.616 12.392 143.16 12.392ZM179.736 10.088C180.152 10.088 183.128 10.888 183.704 11.048C184.312 11.208 185.272 11.496 185.272 11.816C185.272 11.976 185.08 12.072 184.952 12.136C184.504 12.36 184.376 12.872 184.088 13.928C184.024 14.216 183.928 14.568 183.8 14.984C183.768 15.112 183.736 15.24 183.736 15.272C183.736 15.656 183.992 15.848 184.344 15.848C184.824 15.848 186.456 15.208 186.936 15.016C187.192 14.92 187.512 14.792 187.736 14.792C188.6 14.792 188.6 17.96 188.6 18.92C188.6 19.368 188.472 19.56 187.96 19.72C186.68 20.136 184.632 20.616 183.384 20.872C182.008 21.16 181.912 21.192 181.528 22.344C180.184 26.216 177.432 33.16 175.384 36.488C175.128 36.904 174.936 37.256 174.392 37.256C173.848 37.256 170.52 35.816 170.52 34.856C170.52 34.568 170.776 34.184 171.16 33.608C173.368 30.376 175 26.76 176.408 23.08C176.504 22.888 176.632 22.536 176.632 22.344C176.632 21.896 176.28 21.8 175.928 21.8C175.288 21.8 174.52 21.896 173.816 21.896C173.144 21.896 172.728 21.8 172.536 21.096C172.376 20.488 172.184 18.344 172.184 17.704C172.184 17.288 172.248 16.968 172.76 16.968C173.08 16.968 174.52 17.128 176.184 17.128C177.784 17.128 178.296 17.128 178.552 16.328C178.936 15.176 179.416 11.72 179.48 10.44C179.48 10.248 179.544 10.088 179.736 10.088ZM184.12 25.16C184.12 21.48 184.76 21.288 186.04 21.288C188.824 21.288 191 21.672 193.304 22.248C193.752 22.376 194.104 22.504 194.104 23.016C194.104 23.752 193.528 25.896 193.144 26.536C193.016 26.76 192.824 26.92 192.536 26.92C192.312 26.92 191.992 26.792 191.736 26.696C189.88 25.96 188.184 25.832 186.232 25.832H185.08C184.344 25.832 184.12 25.736 184.12 25.16ZM182.328 30.568C182.552 30.568 182.776 30.856 182.904 31.016C184.216 32.584 186.648 32.936 188.568 32.936C190.36 32.936 191.672 32.776 193.4 32.264C193.496 32.232 193.624 32.2 193.752 32.2C194.264 32.2 194.328 32.904 194.328 33.928V34.888C194.328 36.648 194.328 37.032 193.752 37.192C192.792 37.448 189.4 37.608 188.344 37.608C186.072 37.608 182.968 37.32 181.08 35.944C180.568 35.56 179.544 34.664 179.544 33.928C179.544 33.384 180.728 31.944 181.112 31.496C181.368 31.208 181.944 30.568 182.328 30.568ZM205.112 15.752C205.528 15.752 209.272 16.424 210.072 16.584C210.392 16.648 210.744 16.744 210.744 17.032C210.744 17.16 210.648 17.256 210.424 17.416C210.008 17.736 209.912 18.344 209.816 18.824C209.528 20.296 209.4 21.832 209.4 23.304C209.4 25.32 209.688 27.624 210.552 29.448C210.808 29.992 211.384 31.016 212.088 31.016C212.824 31.016 213.56 29.704 213.848 29.192C214.072 28.808 214.36 28.392 214.84 28.392C215.8 28.392 218.168 30.216 218.168 30.984C218.168 31.752 216.696 33.448 216.152 34.056C215.032 35.304 213.912 36.36 212.152 36.36C210.008 36.36 208.184 34.792 207 33.128C204.632 29.8 204.408 25.128 204.408 21.192C204.408 20.584 204.536 16.712 204.568 16.264C204.6 15.912 204.76 15.752 205.112 15.752ZM218.968 18.504C218.968 17.768 220.824 15.56 221.784 15.56C222.648 15.56 225.176 17.544 226.584 19.816C227.832 21.832 228.6 24.072 228.952 26.376C229.016 26.888 229.112 27.656 229.112 28.04C229.112 28.712 228.952 29 228.312 29.192C227.384 29.48 226.232 29.736 225.272 29.736C224.088 29.736 224.056 29.32 223.96 28.104C223.672 24.264 222.328 21.224 219.288 19.048C219.096 18.888 218.968 18.76 218.968 18.504ZM249.464 20.616V21.32C249.464 22.12 249.912 22.376 250.648 22.376H256.248C257.112 22.376 257.976 22.344 258.808 22.344C260.696 22.344 260.728 23.496 260.728 24.68C260.728 27.976 260.152 32.84 258.904 35.88C258.424 37.032 257.72 38.152 256.568 38.76C255.736 39.208 254.776 39.208 253.88 39.208C250.808 39.208 249.688 39.208 249.688 36.104C249.688 35.368 249.72 34.472 250.488 34.472C250.808 34.472 251.48 34.568 251.832 34.632C252.056 34.664 252.504 34.728 252.824 34.728C253.752 34.728 254.424 34.312 254.84 33.448C255.448 32.232 255.832 29.256 255.832 27.848C255.832 26.76 255.448 26.728 253.816 26.728H249.72C248.888 26.728 248.664 26.984 248.472 27.688C248.248 28.456 247.8 29.448 247.416 30.184C245.656 33.48 242.136 36.84 238.936 38.728C238.616 38.92 238.296 39.048 237.944 39.048C236.888 39.048 235.16 37.16 235.16 35.976C235.16 35.432 235.544 35.208 235.992 34.952C237.816 33.832 240.28 31.976 241.624 30.28C243.256 28.232 244.088 25.928 244.504 23.336C244.664 22.248 244.728 21.16 244.728 20.072C244.728 19.272 244.504 18.824 243.64 18.824H239.448C238.168 18.824 236.888 18.888 235.608 18.888C234.84 18.888 234.776 18.536 234.776 17.576V15.56C234.776 14.6 234.872 14.28 235.64 14.28C236.92 14.28 238.168 14.376 239.448 14.376H245.464C246.232 14.376 246.392 13.704 246.392 13.064C246.392 12.456 246.36 11.56 246.264 10.952C246.232 10.824 246.232 10.76 246.232 10.664C246.232 10.248 246.552 10.184 246.904 10.184C247.448 10.184 250.008 10.376 250.68 10.44C251 10.472 251 10.472 251.256 10.504C251.8 10.568 252.152 10.6 252.152 10.984C252.152 11.24 251.832 11.432 251.64 11.528C251.256 11.72 251.224 11.752 251.224 13.32C251.224 13.96 251.512 14.376 252.184 14.376H258.392C259.672 14.376 260.92 14.28 262.2 14.28C262.968 14.28 263.064 14.6 263.064 15.56V17.576C263.064 18.536 263 18.888 262.232 18.888C260.952 18.888 259.672 18.824 258.392 18.824H251.224C250.584 18.824 250.488 18.984 250.232 19.464C250.136 19.656 249.944 19.784 249.752 19.912C249.496 20.072 249.464 20.36 249.464 20.616ZM279.768 17.288C281.944 17.288 283.224 18.76 284.792 20.552C287.864 24.072 290.904 27.016 295.064 29.128C295.352 29.288 295.8 29.512 295.8 29.928C295.8 30.728 293.624 34.12 292.632 34.12C291.928 34.12 289.368 32.232 288.696 31.688C285.528 29.224 283.416 26.824 280.856 23.752C280.536 23.4 280.184 22.984 279.672 22.984C279.128 22.984 278.52 23.56 278.136 23.912C276.952 25 275.8 26.088 274.584 27.112C273.88 27.72 273.4 28.136 272.792 28.84C272.632 29.032 272.344 29.32 272.088 29.32C271.544 29.32 270.552 28.008 270.232 27.592C269.88 27.144 268.44 25.288 268.44 24.84C268.44 24.552 268.92 24.296 269.272 24.136C269.336 24.104 269.4 24.072 269.432 24.04C271.384 23.048 273.304 21.416 274.936 20.008C276.76 18.44 278.072 17.288 279.768 17.288Z" fill="#36CDD5"/>
<mask id="mask0_410_4" style="mask-type:alpha" maskUnits="userSpaceOnUse" x="9" y="1" width="37" height="47">
<rect x="9" y="1" width="37" height="47" fill="#D9D9D9"/>
</mask>
<g mask="url(#mask0_410_4)">
<circle cx="45.9226" cy="24.5383" r="21.0769" fill="#3FE2EB" stroke="#ADFAFF" stroke-width="4"/>
</g>
<rect y="22" width="10" height="3" rx="1.5" fill="#3FE2EB"/>
<rect x="1" y="36.3999" width="10" height="3" rx="1.5" transform="rotate(-15 1 36.3999)" fill="#3FE2EB"/>
<rect x="2.25781" y="7.46094" width="10" height="3" rx="1.5" transform="rotate(15 2.25781 7.46094)" fill="#3FE2EB"/>
<mask id="mask1_410_4" style="mask-type:alpha" maskUnits="userSpaceOnUse" x="320" y="0" width="37" height="47">
<rect x="357" y="47" width="37" height="47" transform="rotate(-180 357 47)" fill="#D9D9D9"/>
</mask>
<g mask="url(#mask1_410_4)">
<circle cx="320.077" cy="23.4617" r="21.0769" transform="rotate(-180 320.077 23.4617)" fill="#3FE2EB" stroke="#ADFAFF" stroke-width="4"/>
</g>
<rect x="366" y="26" width="10" height="3" rx="1.5" transform="rotate(-180 366 26)" fill="#3FE2EB"/>
<rect x="365" y="11.6001" width="10" height="3" rx="1.5" transform="rotate(165 365 11.6001)" fill="#3FE2EB"/>
<rect x="363.742" y="40.5391" width="10" height="3" rx="1.5" transform="rotate(-165 363.742 40.5391)" fill="#3FE2EB"/>
</svg>
