<svg width="44" height="44" viewBox="0 0 44 44" fill="none" xmlns="http://www.w3.org/2000/svg">
<g clip-path="url(#clip0_286_114)">
<path d="M12.8885 0.153863C10.5477 0.264303 8.9492 0.637863 7.55176 1.18698C6.10548 1.75062 4.87964 2.50698 3.65996 3.73106C2.44028 4.95514 1.6892 6.18186 1.12952 7.63034C0.587876 9.03086 0.220916 10.6307 0.117516 12.9728C0.0141157 15.3149 -0.00876433 16.0678 0.00267567 22.0421C0.0141157 28.0164 0.0405157 28.7653 0.154036 31.1123C0.265796 33.4526 0.638036 35.0507 1.18716 36.4486C1.75168 37.8949 2.50716 39.1203 3.73168 40.3404C4.9562 41.5605 6.18204 42.3098 7.63404 42.8704C9.03324 43.4111 10.6335 43.7799 12.9752 43.8824C15.3169 43.9849 16.0706 44.0087 22.0432 43.9972C28.0157 43.9858 28.7677 43.9594 31.1142 43.8481C33.4607 43.7367 35.0504 43.3619 36.4488 42.8154C37.895 42.2495 39.1213 41.4954 40.3406 40.2704C41.5598 39.0455 42.3104 37.8179 42.8697 36.3685C43.4118 34.9693 43.78 33.369 43.8817 31.0291C43.9842 28.6808 44.0084 27.9311 43.997 21.9576C43.9855 15.9842 43.9587 15.2353 43.8474 12.8892C43.736 10.5431 43.3634 8.9499 42.8147 7.55114C42.2493 6.10486 41.4947 4.88034 40.2706 3.65934C39.0465 2.43834 37.818 1.68814 36.3691 1.13022C34.969 0.588583 33.3696 0.219423 31.028 0.118223C28.6863 0.0170227 27.9326 -0.00893725 21.9578 0.00250275C15.983 0.0139427 15.235 0.0394627 12.8885 0.153863ZM13.1455 39.9246C11.0005 39.8313 9.8358 39.4749 9.05964 39.1766C8.0318 38.7806 7.29964 38.3019 6.52612 37.5358C5.7526 36.7698 5.2774 36.035 4.87612 35.0093C4.57472 34.2332 4.21172 33.0698 4.1114 30.9248C4.00228 28.6065 3.9794 27.9104 3.96664 22.0368C3.95388 16.1633 3.97632 15.4681 4.07796 13.1488C4.16948 11.0056 4.52808 9.83958 4.82596 9.06386C5.22196 8.0347 5.69892 7.30386 6.46672 6.53078C7.23452 5.7577 7.96712 5.28162 8.99364 4.88034C9.76892 4.57762 10.9323 4.2177 13.0764 4.11562C15.3965 4.00562 16.0917 3.98362 21.9644 3.97086C27.8371 3.9581 28.534 3.9801 30.855 4.08218C32.9983 4.17546 34.1647 4.53054 34.9396 4.83018C35.9678 5.22618 36.6996 5.70182 37.4726 6.47094C38.2457 7.24006 38.7222 7.97002 39.1235 8.99874C39.4267 9.77182 39.7866 10.9347 39.8878 13.0802C39.9982 15.4003 40.0233 16.0959 40.0339 21.9682C40.0444 27.8404 40.0238 28.5378 39.9221 30.8562C39.8284 33.0012 39.4729 34.1663 39.1741 34.9433C38.7781 35.9707 38.3007 36.7033 37.5325 37.476C36.7642 38.2486 36.0325 38.7247 35.0056 39.126C34.2312 39.4283 33.0665 39.7891 30.9241 39.8911C28.604 40.0003 27.9088 40.0231 22.0339 40.0359C16.159 40.0487 15.466 40.0249 13.1459 39.9246M31.0803 10.2417C31.0812 10.7639 31.2369 11.2741 31.5277 11.7078C31.8186 12.1415 32.2315 12.4792 32.7143 12.6781C33.1971 12.8771 33.728 12.9285 34.24 12.8257C34.752 12.7229 35.2219 12.4706 35.5905 12.1007C35.959 11.7308 36.2096 11.2599 36.3105 10.7475C36.4115 10.2352 36.3582 9.70443 36.1574 9.22238C35.9567 8.74033 35.6175 8.32865 35.1827 8.03939C34.748 7.75013 34.2372 7.5963 33.715 7.59734C33.015 7.59874 32.3442 7.87811 31.8501 8.374C31.356 8.8699 31.0791 9.54172 31.0803 10.2417ZM10.7039 22.0219C10.7162 28.2611 15.7833 33.3074 22.0212 33.2955C28.259 33.2837 33.3089 28.2171 33.297 21.9779C33.2852 15.7387 28.2168 10.691 21.978 10.7033C15.7393 10.7156 10.692 15.7835 10.7039 22.0219ZM14.6666 22.0139C14.6637 20.5635 15.091 19.1448 15.8944 17.9372C16.6978 16.7297 17.8413 15.7875 19.1802 15.2298C20.5191 14.672 21.9934 14.5239 23.4165 14.8041C24.8396 15.0842 26.1477 15.7801 27.1753 16.8036C28.2029 17.8272 28.904 19.1325 29.1897 20.5545C29.4755 21.9765 29.3332 23.4513 28.7808 24.7924C28.2284 26.1335 27.2907 27.2807 26.0864 28.0889C24.882 28.8971 23.465 29.33 22.0146 29.3329C21.0515 29.3349 20.0974 29.1472 19.2069 28.7805C18.3164 28.4137 17.5068 27.8752 16.8245 27.1955C16.1421 26.5159 15.6004 25.7084 15.2301 24.8194C14.8598 23.9303 14.6683 22.977 14.6666 22.0139Z" fill="black"/>
</g>
<defs>
<clipPath id="clip0_286_114">
<rect width="44" height="44" fill="white"/>
</clipPath>
</defs>
</svg>
